<svg width="96" height="96" viewBox="0 0 96 96" fill="none" xmlns="http://www.w3.org/2000/svg">
<circle cx="48" cy="48" r="46.5" fill="#CFA1FD" stroke="white" stroke-width="3"/>
<path d="M41.7701 69.2553L41.9935 69.6316L42.3961 69.4599L49 66.6436L55.6039 69.4599L56.0065 69.6316L56.2299 69.2553L59.9195 63.0412L66.9085 61.4881L67.3393 61.3923L67.2978 60.9529L66.618 53.7672L71.3763 48.3293L71.6644 48L71.3763 47.6707L66.618 42.2328L67.2978 35.0471L67.3393 34.6077L66.9085 34.5119L59.9195 32.9588L56.2299 26.7447L56.0065 26.3684L55.6039 26.5401L49 29.3564L42.3961 26.5401L41.9935 26.3684L41.7701 26.7447L38.0805 32.9588L31.0915 34.5119L30.6607 34.6077L30.7022 35.0471L31.3819 42.2328L26.6237 47.6707L26.3356 48L26.6237 48.3293L31.3819 53.7672L30.7022 60.9529L30.6607 61.3923L31.0915 61.4881L38.0805 63.0412L41.7701 69.2553ZM46.9 54.3929L40.5071 48L42.6041 45.903L46.5506 49.7577L46.9041 50.103L47.2536 49.7536L55.3937 41.6134L57.499 43.7939L46.9 54.3929Z" fill="white" stroke="black"/>
</svg>
