<svg width="103" height="114" viewBox="0 0 103 114" fill="none" xmlns="http://www.w3.org/2000/svg">
<path d="M91.6814 105.362C91.8771 104.757 92.0549 104.135 92.1972 103.512C93.0687 99.6342 93.0687 95.8453 92.4996 92.0209C92.1972 89.9397 93.549 87.4316 95.5943 86.5955C96.288 86.3109 96.1812 86.2931 96.7148 85.5283C97.5863 84.2831 98.6712 83.6249 99.7918 83.4115C100.041 82.1485 100.041 80.6543 99.5072 78.9644C97.7464 73.5747 97.3907 74.7131 96.0212 71.28C94.6694 67.8647 93.1399 66.1393 93.2822 62.1192C93.4244 58.1168 94.8295 52.14 94.4027 49.543C93.9936 46.9281 87.8931 43.9398 83.7312 42.6946C79.5693 41.4494 71.5835 38.9413 71.5835 38.9413L61.8013 43.5128L59.1868 40.5244C55.7008 40.9514 56.43 33.765 55.4873 28.3218C54.5447 22.8787 53.4064 17.0442 51.4499 11.3698C49.4935 5.69542 46.1676 4.41469 38.3418 3.06279C30.5161 1.69311 30.5338 6.86942 28.8086 11.7967C27.0834 16.724 31.7611 29.7982 31.5476 35.5794C31.3342 41.3605 20.6627 47.0349 20.6627 47.0349C0.404675 39.9196 4.19305 73.5391 4.19305 73.5391C4.19305 73.5391 6.70085 88.7479 7.91029 90.6868C9.11972 92.6257 12.9437 93.942 15.9495 95.2405C18.9375 96.539 22.3168 92.0742 22.3168 92.0742C22.3168 92.0742 31.2275 99.5986 34.1266 102.32C37.0257 105.042 46.9324 107.55 49.4046 108.475C51.8768 109.382 67.0659 110.983 69.1824 110.77C70.5875 110.627 79.0179 111.268 85.3497 111.606C86.5413 109.293 89.227 107.105 91.6814 105.309V105.362Z" fill="white"/>
<path d="M75.5152 49.2223C75.2307 48.9555 74.9817 48.6709 74.6971 48.4041C74.3769 48.1195 74.0034 47.8882 73.6477 47.6392C73.0074 47.1767 72.4027 46.6786 71.8158 46.1628C71.5668 45.9493 71.3178 45.7181 71.0688 45.5046C70.9798 45.4335 70.802 45.1844 70.6953 45.1666C70.7309 45.1666 70.9621 45.4513 70.7486 45.22C70.6775 45.1489 70.6063 45.0777 70.5352 45.0065C70.304 44.7575 70.0906 44.4729 69.8949 44.2061C69.806 44.0994 69.7348 43.8859 69.9661 44.384C69.9305 44.3128 69.8949 44.2417 69.8593 44.1705C69.7882 44.0104 69.7171 43.8503 69.6459 43.6902C69.4147 43.1566 69.2013 42.623 68.7922 42.2138C67.9385 41.36 66.569 41.1643 65.484 41.947C64.5058 42.6407 64.239 44.0816 64.6481 45.0777C64.8971 45.6825 65.4129 46.2161 65.9109 46.6253C66.5334 47.1233 67.2982 47.5325 68.0096 47.8882C68.6321 48.2084 69.308 48.4574 70.0016 48.6531C70.8731 48.9021 71.7802 49.08 72.6695 49.2757C73.1141 49.3646 73.5766 49.5069 74.0212 49.5425C74.4659 49.5781 74.9461 49.5247 75.4085 49.5069C75.5508 49.5069 75.5686 49.3113 75.4974 49.2401L75.5152 49.2223Z" fill="#C9C9C9"/>
<path d="M2.55788 74.7488C3.05588 75.5848 3.58945 76.4564 4.33646 77.0612C5.1546 77.7372 6.06168 78.2708 7.02212 78.7511C8.90741 79.7116 11.0595 80.1563 13.2116 80.2986L10.8994 77.9684C11.6998 82.0952 13.2294 86.0264 14.6878 89.922L19.2588 86.4177C17.747 85.0303 15.6838 83.3048 13.9052 81.8462L8.46276 77.3814C7.39561 76.492 5.47475 76.5276 4.33646 77.4881C3.19816 78.4487 2.45116 80.1741 3.16259 81.4549C4.87003 84.5856 6.39962 88.0898 9.03191 90.5623C10.3658 91.8075 12.0377 92.5546 13.8341 92.9637C15.6304 93.3729 17.907 93.4084 19.5789 92.4657C21.0729 91.6296 21.9978 90.2066 21.6065 88.5345C21.2152 86.8625 19.7568 86.1509 18.0671 86.2043C19.2587 86.1687 17.3201 86.2576 17 86.2932C16.8577 86.311 15.9328 86.4711 16.8577 86.3466C16.5197 86.3822 16.1284 86.3288 15.7905 86.2754C15.5771 86.2398 14.8123 86.2398 15.6127 86.2754C15.2925 86.2754 14.9368 86.0264 14.6344 85.9197C14.0119 85.7062 15.0435 86.2754 14.4744 85.8485C14.2254 85.6706 13.9942 85.4572 13.7274 85.2793C13.5495 85.1192 13.5851 85.1548 13.8341 85.4038C13.7096 85.2793 13.5851 85.137 13.4606 84.9947C12.6069 83.9985 11.9666 82.8424 11.3085 81.7039C10.5793 80.441 9.7967 79.178 9.03191 77.9328L4.14082 82.7534C6.02611 84.1587 7.9114 85.5461 9.7967 86.9514C11.682 88.3566 13.8341 89.9042 15.5415 91.0427C16.5553 91.7186 18.0493 91.8253 19.0987 90.9537C20.148 90.0821 20.5749 88.748 20.1125 87.5384C18.7074 83.8563 17.4446 80.1741 16.3063 76.3853C15.9506 75.2112 14.5811 74.6598 13.425 74.7843C12.2689 74.9089 12.0733 74.9266 11.0595 74.8733C10.1346 74.8199 9.20977 74.7665 8.28491 74.642C7.43119 74.5353 6.59526 74.3752 5.75933 74.1973C4.92339 74.0194 3.99853 73.9839 3.10924 73.806C2.57566 73.6993 2.32666 74.3574 2.54009 74.731L2.55788 74.7488Z" fill="#C9C9C9"/>
<path d="M92.5003 101.253C92.358 101.253 92.198 101.253 92.0557 101.253C91.9668 101.253 91.6466 101.253 91.5755 101.253C91.4154 101.253 91.2553 101.253 91.0953 101.253C90.0281 101.253 88.9787 101.271 87.9294 101.253C83.8742 101.253 79.819 101.075 75.7817 100.773C71.6909 100.47 67.618 100.008 63.5806 99.4028C61.6597 99.1182 59.7389 98.7981 57.818 98.4245C56.8754 98.2466 55.9149 98.0332 54.9723 97.8197C53.8162 97.5529 53.5672 97.4817 52.34 97.1438C48.9962 96.2188 45.7592 94.9914 42.6467 93.5328C41.0993 92.8035 39.5875 92.0208 38.1113 91.2026C37.9868 91.1314 37.8801 91.078 37.7556 91.0069C37.6845 90.9713 37.5955 90.9179 37.56 90.9001C37.1687 90.6689 36.7596 90.4377 36.3683 90.1886C35.6569 89.7617 34.9455 89.317 34.2518 88.8723C31.0859 86.8089 28.0268 84.5498 25.1099 82.184C23.6159 80.9744 22.1219 79.747 20.6812 78.4663C19.952 77.8081 19.2762 77.1322 18.4224 76.6697C18.0667 76.474 17.7288 76.2606 17.3909 76.0293C16.9284 75.7269 16.466 75.6024 15.9324 75.4245C15.5056 75.2822 14.9186 75.6202 15.0076 76.136C15.3277 77.8793 16.0925 79.3913 17.1952 80.7432C18.2802 82.0951 19.4185 83.4291 20.5923 84.7099C23.029 87.3781 25.679 89.8684 28.5248 92.0742C34.1629 96.4322 40.4591 99.9899 47.3244 102.32C55.1857 104.971 63.6695 106.162 72.0111 106.945C77.5603 107.479 83.145 107.71 88.7475 107.692C90.0281 105.558 91.2909 103.405 92.5003 101.217V101.253Z" fill="#C9C9C9"/>
<path d="M87.1642 110.752C87.7867 108.83 89.263 107.247 91.0949 105.967C87.6978 106.002 84.3185 105.931 80.9392 105.753C73.5937 105.38 66.3015 104.526 59.1516 103.192C52.642 101.964 46.3458 100.15 40.4943 97.1971C37.5774 95.7207 34.785 93.9774 32.0816 91.914C30.6765 90.8467 29.3248 89.7261 28.0442 88.5165C27.3684 87.8761 27.2083 87.716 26.5502 87.0401C26.1411 86.6132 25.7676 86.1151 25.3052 85.7415C24.8606 85.3858 24.2914 85.1545 23.7934 84.8877C21.9437 83.8916 19.5782 86.3819 20.4319 88.1785C20.6453 88.6232 20.8588 89.0679 21.1078 89.4771C21.3923 89.9395 21.8548 90.2953 22.246 90.6688C22.8152 91.2025 23.4021 91.7361 23.9891 92.2342C25.2163 93.2837 26.4791 94.3154 27.7596 95.2937C30.4097 97.286 33.2199 99.047 36.1368 100.666C42.1306 103.956 48.6402 106.091 55.4166 107.479C65.7501 109.613 76.4216 110.716 87.1287 110.787C87.1287 110.787 87.1287 110.752 87.1287 110.734L87.1642 110.752Z" fill="#C9C9C9"/>
<path d="M53.2104 86.204C56.2163 87.6804 59.4177 89.0145 62.7081 89.8505C66.1763 90.7399 69.7335 90.989 73.3618 90.8822C76.9901 90.7755 80.6184 90.0818 84.1578 89.0679C87.6971 88.0539 91.3966 86.8266 94.7225 85.0122C96.7501 83.9093 98.5643 82.593 100.058 80.7964C100.716 79.996 101.285 79.1066 101.748 78.1816C102.37 76.9186 102.548 75.7446 102.566 74.3927C102.584 73.0408 101.179 71.7779 99.8804 71.6889C98.5109 71.6 96.8924 72.3293 96.3588 73.7168C96.1276 74.3393 95.8786 74.9797 95.5762 75.5845C95.4517 75.8513 95.0427 76.4383 95.434 75.9047C95.185 76.2427 94.9537 76.5806 94.687 76.9008C94.5091 77.1143 93.9577 77.6302 94.4557 77.1854C94.1534 77.4523 93.851 77.7191 93.5309 77.9859C92.8906 78.484 92.2325 78.9642 91.5566 79.3912C91.3788 79.4979 91.2187 79.6046 91.0409 79.7113C91.0942 79.6757 91.4855 79.4623 91.1476 79.658C90.8274 79.8358 90.5251 80.0137 90.2049 80.1738C89.4401 80.583 88.6398 80.9921 87.8572 81.3834C86.3098 82.1483 84.7447 82.8421 83.1617 83.4646C79.9603 84.7098 77.1146 85.4569 73.7353 86.115C70.6583 86.702 67.4569 87.0222 64.3444 87.0578C60.5915 87.0756 56.9632 86.8622 53.3705 85.9194C53.1749 85.866 53.0504 86.1328 53.2282 86.2218L53.2104 86.204Z" fill="#C9C9C9"/>
<path d="M40.7792 3.41859C40.4768 3.18734 40.1567 3.06283 39.8187 2.92052C39.9254 2.97389 39.3741 2.67148 39.4986 2.74263L39.3029 2.63591C39.6409 2.796 39.5519 2.74264 39.0006 2.44024C38.0046 2.0489 36.5106 2.47582 35.5501 2.92052C33.1846 4.02339 31.7795 6.05121 31.1393 8.48817C30.5879 10.5694 30.6768 12.7929 30.8013 14.8919C30.9258 16.9909 31.2104 18.9831 31.5128 21.011C31.8151 23.0388 32.1175 25.1556 32.3131 27.2546C32.4021 28.2329 32.4554 29.2113 32.4732 30.2074C32.4732 30.4742 32.4732 30.7233 32.4732 30.9901C32.4732 31.666 32.4732 31.168 32.4732 31.0257C32.4376 31.6482 32.3843 32.2708 32.2953 32.8756C32.1708 33.8006 31.9752 34.7078 31.744 35.6328C31.5128 36.5578 32.0285 35.0458 31.655 35.8818C31.5839 36.0597 31.5128 36.2376 31.4416 36.4155C31.3705 36.5933 31.2638 36.7712 31.1926 36.9313C30.997 37.2693 31.0148 37.2693 31.2282 36.9313C31.157 37.0558 31.0681 37.1803 30.9792 37.2871C30.8369 37.4827 30.6768 37.6606 30.5345 37.8385C30.1433 38.3188 30.4812 37.8919 30.5879 37.8029C30.2322 38.1053 29.8765 38.3899 29.5385 38.6923C28.8449 39.2971 28.0801 39.8308 27.2975 40.3288C25.4122 41.5206 23.7048 42.748 22.1574 44.3667C20.7168 45.8965 19.2761 48.1022 19.2761 50.2012C19.2761 50.7526 20.0053 51.1618 20.5211 50.8949C21.2503 50.5036 21.8373 49.9877 22.4953 49.4719C23.2424 48.8849 24.0249 48.3335 24.7897 47.7998C26.1059 46.857 27.6532 46.1811 29.3073 45.5763C31.1215 44.9181 33.0779 44.3134 34.5541 42.997C36.4394 41.325 37.5421 39.2615 38.2536 36.9135C40.708 28.7666 37.72 20.8153 37.3643 12.7751C37.3465 12.2592 37.3287 11.7256 37.3287 11.2097C37.3287 10.9607 37.3287 10.7117 37.3287 10.4626C37.3287 10.3203 37.3287 10.1781 37.3287 10.0358C37.3287 10.4271 37.3287 10.4271 37.3465 10.0358C37.4177 9.55547 37.471 9.09297 37.5955 8.63048C37.4354 9.18191 37.5955 8.71943 37.6311 8.6127C37.7378 8.38146 37.8267 8.1502 37.9334 7.93675C38.2358 7.24301 37.7022 8.25694 37.969 7.86561C38.1113 7.65215 38.2358 7.43868 38.3781 7.24301C38.5026 7.08292 38.6271 6.92284 38.7694 6.78053C38.8227 6.70938 39.3207 6.24688 38.9828 6.54928C39.1073 6.44255 39.2496 6.35361 39.3563 6.24689C39.6764 5.99785 39.9254 5.69546 40.0855 5.3397L40.2634 4.77047C40.5302 4.77047 39.7832 5.17959 40.1389 5.17959C40.299 5.17959 40.6013 4.85941 40.7258 4.77047C41.206 4.45029 41.1705 3.72099 40.7614 3.41859H40.7792Z" fill="#C9C9C9"/>
<path d="M58.9367 67.6686C65.5886 69.6964 72.6318 71.5997 79.835 70.9594C83.4456 70.6392 87.0383 69.5897 90.1152 67.5441C93.1922 65.4984 95.5577 62.4033 96.2691 58.8991C96.6604 56.9779 96.8027 54.9501 96.5893 53.029C96.3936 51.2858 95.8778 48.5108 93.9392 47.9238C93.2989 47.7281 92.3918 47.9416 92.125 48.6887C91.6448 50.0228 92.0717 51.4458 91.8938 52.8333C91.6982 54.3275 91.378 55.3948 90.8445 56.7823C90.5955 57.4404 90.3287 58.1164 90.0619 58.7745C89.9196 59.0947 89.724 59.4149 89.5995 59.7351C89.475 60.0375 89.635 59.7351 89.6706 59.6639C89.5461 59.8596 89.4216 60.0553 89.2793 60.2332C89.0837 60.5 88.888 60.749 88.6746 60.998C88.5501 61.1403 88.4256 61.2826 88.3011 61.425C88.2833 61.4427 87.9632 61.7985 88.1944 61.5495C88.4256 61.3004 88.1054 61.6384 88.0699 61.6562C87.9276 61.7807 87.7853 61.9052 87.643 62.0297C87.3584 62.2788 87.0561 62.51 86.7537 62.7235C86.4869 62.9191 86.2202 63.097 85.9356 63.2749C85.651 63.4528 85.9356 63.2749 85.9889 63.2393C85.8111 63.346 85.6154 63.4528 85.4376 63.5417C84.7439 63.8975 84.0147 64.2355 83.2855 64.5556C81.8093 65.196 80.6532 65.4984 79.3015 65.8542C76.1534 66.6724 73.0942 67.2594 69.875 67.4907C66.2467 67.7397 62.5828 67.6863 58.9723 67.4195C58.83 67.4195 58.7411 67.633 58.8834 67.6863L58.9367 67.6686Z" fill="#C9C9C9"/>
<path d="M35.3897 67.4022C38.3066 67.8469 41.2235 68.2916 44.1581 68.6296C45.5988 68.7897 47.0394 68.8608 48.4801 69.0387C49.1915 69.1277 49.9029 69.181 50.6322 69.2166C51.2725 69.2522 52.1973 69.1276 52.7665 69.3589C54.0648 69.857 55.5233 68.8608 55.5766 67.4911C55.63 66.1215 54.2071 65.072 52.891 65.7301C52.2863 66.0325 51.397 66.0147 50.7389 66.1037C50.0808 66.1926 49.4049 66.2638 48.7291 66.3883C47.2884 66.6373 45.83 66.7263 44.3894 66.8686C41.3836 67.1532 38.4133 67.3311 35.4075 67.3311C35.3542 67.3311 35.3364 67.4022 35.4075 67.42L35.3897 67.4022Z" fill="black"/>
<path d="M30.6584 72.8448C34.4468 74.4279 38.3775 75.7087 42.237 77.1139C44.1045 77.7899 45.9898 78.4658 47.8573 79.1596C48.8177 79.5153 49.7959 79.7999 50.7742 80.1023C51.8057 80.4225 53.0152 81.0095 54.1179 81.0451C55.2206 81.0807 56.2344 80.5293 56.5545 79.4264C56.8569 78.4125 56.4123 77.2918 55.4163 76.9183C54.4203 76.5447 53.193 76.5625 52.0903 76.4558C50.9876 76.3491 50.0272 76.2068 48.9778 76.1C46.8969 75.8866 44.8515 75.6553 42.7883 75.3351C38.6976 74.6948 34.6958 73.663 30.694 72.7203C30.6051 72.7025 30.5695 72.8448 30.6406 72.8804L30.6584 72.8448Z" fill="black"/>
<path d="M33.7175 79.3558C35.4072 81.6861 37.5948 83.7495 39.8536 85.5283C42.1124 87.3071 44.5669 89.0681 47.0569 90.7046C48.124 91.4162 49.6002 91.1849 50.3295 89.9753C51.0053 88.8725 50.6318 87.3249 49.4046 86.8802C46.6478 85.9196 43.8199 85.0125 41.1876 83.8029C39.907 83.2159 38.662 82.5577 37.417 81.8817C36.1186 81.1702 34.927 80.2097 33.7887 79.2847C33.7531 79.2491 33.6997 79.3025 33.7353 79.338L33.7175 79.3558Z" fill="black"/>
<path d="M101.25 84.354C102.086 82.8598 102.638 81.2055 102.869 79.4267C103.651 73.4499 100.841 68.1313 96.8928 64.1112C97.9955 60.8915 98.0666 57.3339 97.5686 54.0075C97.373 49.8629 95.8434 46.7144 93.051 44.064C90.899 41.6982 88.1422 39.7949 85.3676 38.7276C85.2431 38.6742 85.1186 38.6564 84.9941 38.6387C80.7077 36.2906 76.2079 34.6363 70.8188 35.3479C67.8308 35.7392 64.078 37.1267 62.6373 40.0795C59.4892 36.5219 58.1019 32.5729 57.515 27.5389C56.3411 17.6665 56.6257 6.31775 46.2922 1.58612C38.3419 -2.06043 23.3485 0.269795 24.967 11.832C25.8918 18.5026 27.3147 25.1019 28.3107 31.7547C28.8265 35.1344 27.7416 36.931 25.4294 39.5814C23.9532 41.2891 22.2279 42.7655 20.645 44.3664C19.7379 43.1924 18.404 42.5164 16.91 42.2852C8.88859 41.9294 5.52708 47.1769 5.52708 47.1769C5.52708 47.1769 4.01529 49.4182 2.82364 52.6201C1.08063 57.2806 0.796054 62.5458 0.81384 67.2418C0.81384 71.5466 0.724911 76.5628 1.38299 81.2766C1.93435 85.2256 3.16157 88.2318 3.30386 88.6053V88.6409C4.15757 90.7755 6.48752 94.8133 12.3924 97.108C15.665 98.2108 19.2222 98.1042 21.8189 95.8629C30.7296 104.864 44.229 108.955 56.6969 111.232C63.4377 112.459 70.2852 113.135 77.1861 113.473C77.8975 113.544 78.6267 113.58 79.3382 113.598C83.0554 113.669 86.5592 112.797 89.6362 110.502C93.3178 107.745 96.1813 103.085 96.8928 98.62C97.2841 96.1652 97.2129 93.1235 96.0391 90.9711C95.8256 90.562 95.5588 90.1884 95.292 89.8327C99.6851 87.2712 101.215 84.3006 101.215 84.3006L101.25 84.354ZM17.7815 91.4692C17.0167 92.91 11.841 90.2418 11.1474 89.6548C9.45775 88.2318 8.5151 86.0438 7.92816 83.9448C6.5053 78.8041 6.39858 73.0408 6.30966 67.6688C6.22073 63.0617 6.36302 57.9921 8.6396 53.7051C10.347 50.4677 13.9398 47.2125 17.4258 48.2798C8.42617 57.6897 11.93 75.9936 12.8015 79.5334C13.8508 83.7314 15.5938 87.6625 17.9771 91.1668C17.906 91.2735 17.8526 91.3803 17.7815 91.487V91.4692ZM82.2195 107.016C82.0416 107.087 82.095 107.069 82.2195 107.016V107.016ZM88.8358 101.395C88.8358 101.395 88.818 101.448 88.8002 101.466C88.7291 101.608 88.6402 101.733 88.5512 101.875C88.2667 102.338 87.9465 102.8 87.6086 103.245C87.4663 103.441 87.3062 103.636 87.1462 103.814C87.0928 103.885 87.0217 103.939 86.9505 104.01C86.9861 103.974 87.0217 103.956 87.075 103.903C86.6304 104.259 86.2391 104.721 85.7944 105.077C85.5632 105.273 85.3142 105.451 85.083 105.611C85.0474 105.628 84.9941 105.664 84.9229 105.7C84.3716 106.038 83.8202 106.322 83.2333 106.589C82.9843 106.696 82.7353 106.802 82.4863 106.891C82.3262 106.909 82.0772 107.034 81.9527 107.069C81.3658 107.229 80.6188 107.461 79.9785 107.461C79.9073 107.461 79.8362 107.461 79.7828 107.461C79.4982 107.461 79.2137 107.461 78.9291 107.461C78.5023 107.461 78.0754 107.461 77.6485 107.461C77.5952 107.461 77.524 107.461 77.4707 107.461C60.1829 106.625 42.4504 103.654 28.8798 93.9417C21.2497 88.4808 10.4538 66.6726 22.7971 49.9874C25.8918 45.8072 31.3521 43.7972 33.9488 39.1545C36.7412 34.1738 34.7492 28.4817 33.9132 23.4121C33.433 20.5304 32.9528 17.6487 32.4726 14.7671C32.2591 13.433 31.9924 12.1167 31.8145 10.7825C31.5655 8.89701 31.6189 8.29221 33.4152 7.33166C37.4704 5.14373 43.0373 6.01534 46.2566 8.77249C53.6377 15.105 50.0805 27.9658 53.7978 36.2728C58.0842 45.8606 67.1549 49.7206 77.5596 50.112C77.6307 50.112 77.6663 50.023 77.5952 50.0052C73.789 48.5288 70.3208 46.5721 67.1549 44.1352C68.0086 43.1746 68.7912 42.4809 70.4453 42.1073C72.5084 41.6271 74.6961 41.7871 76.6703 42.2852C80.512 43.228 84.2471 45.825 87.3596 48.1197C90.3654 50.3254 91.4325 53.1715 91.8416 56.7113C91.9483 59.7886 91.3792 62.9727 89.5828 65.2674C86.2924 69.4831 79.3026 69.7856 74.536 69.8211C69.4137 69.8389 64.1491 68.9851 59.2402 67.8822C59.1691 67.8822 59.1157 67.9889 59.1691 68.0245C64.576 71.7778 70.7476 73.4499 77.5062 73.6811C82.7886 73.859 88.7291 73.7167 92.9265 70.1947C94.7941 72.9874 96.4481 76.0292 95.9857 79.569C95.3276 84.6386 90.8278 86.115 86.4169 87.3246C77.0794 89.886 66.7814 90.8288 57.7284 88.0717C57.4972 88.0005 57.3549 88.3207 57.5684 88.4097C61.4812 90.1707 65.4653 91.5582 69.5382 92.4298C69.8228 92.4831 70.1073 92.5542 70.4097 92.6076C76.3857 93.7816 82.6997 94.2441 88.8536 92.5899C88.9247 92.6966 89.0137 92.7855 89.0848 92.8922C89.1915 93.0167 89.2804 93.1591 89.3872 93.3014C89.3872 93.3192 89.565 93.586 89.6362 93.6749C89.6895 93.7816 89.7251 93.8884 89.7429 93.8884C89.8496 94.1374 89.9385 94.3864 90.0452 94.6177C90.0452 94.6532 90.063 94.6711 90.0808 94.7066C90.0808 94.7066 90.0808 94.7422 90.0808 94.76C90.0986 94.9912 90.1875 95.2403 90.2053 95.4715C90.2231 95.6672 90.2409 95.8628 90.2587 96.0585C90.2587 96.1119 90.2587 96.1653 90.2765 96.2008C90.2765 96.2364 90.2765 96.272 90.2765 96.3254C90.2409 96.9835 90.2231 97.6595 90.1164 98.3176C90.1164 98.3532 90.1164 98.371 90.1164 98.4065C90.0452 98.6378 89.9741 98.8691 89.9029 99.1003C89.6362 99.883 89.2982 100.648 88.907 101.395H88.8358ZM90.0275 98.4243C89.8318 99.0647 89.9385 98.8335 90.0275 98.4243V98.4243Z" fill="black"/>
<path d="M86.9519 104.01C86.4683 104.384 86.7012 104.241 86.9519 104.01V104.01Z" fill="black"/>
</svg>
