<svg width="150" height="120" viewBox="0 0 150 120" fill="none" xmlns="http://www.w3.org/2000/svg">
<path d="M9.29237 58.8731C9.66785 58.7009 2.8946 17.2259 17.8077 8.60201C32.7208 -0.0219149 46.7436 14.3053 51.247 18.722C55.7504 23.1387 65.0725 56.4513 65.9169 63.6119C66.7612 70.7724 64.7217 91.0988 62.1405 95.2855C59.5592 99.4721 51.7333 108.396 50.8678 108.341C50.0024 108.285 41.0973 102.346 39.964 101.986C38.8307 101.626 24.2633 87.9224 22.5411 85.9268C20.8189 83.9311 9.29935 58.8735 9.29935 58.8735L9.29237 58.8731Z" fill="white"/>
<path d="M89.6981 48.3958C89.5891 47.8001 104.961 9.39931 121.186 9.82314C137.411 10.247 148.307 32.9027 142.995 61.0859C137.684 89.269 126.418 113.692 111.489 113.604C96.5598 113.515 92.5548 101.218 92.1776 100.325C91.8003 99.4318 89.7055 48.3892 89.7055 48.3892L89.6981 48.3958Z" fill="white"/>
<path d="M24.0844 2.96351C13.6655 4.78326 8.78133 14.4989 6.95409 23.9761C4.66576 35.8345 4.53528 47.9225 5.72861 59.9131C7.01864 72.8 9.62473 87.1309 16.8585 98.1493C20.8357 104.214 26.9786 109.185 33.936 111.18C40.4282 113.544 47.6214 113.067 53.881 109.004C62.8973 103.155 66.7672 92.8631 67.8415 82.5597C69.0847 70.6062 67.6631 58.1314 64.6289 46.5413C59.8627 28.3014 48.0057 -1.22111 24.0774 2.96306L24.0844 2.96351ZM20.467 39.5882C20.467 39.5882 20.5181 39.5564 20.5474 39.5372C25.0627 38.5233 30.7747 38.5182 33.0879 43.32C35.0493 47.3775 33.1243 52.0407 29.7124 54.6462C25.9615 57.5103 19.8346 57.9724 17.4285 53.1996C16.023 50.4183 15.4559 44.509 17.7055 41.4505C18.5103 40.7031 19.4201 40.0676 20.4605 39.5807L20.467 39.5882ZM58.3784 97.5603C56.7143 100.341 54.5448 102.697 52.0608 104.493C55.3461 99.8187 55.62 93.1434 54.6304 86.8285C54.1122 83.5434 53.4177 80.2751 52.6299 77.0428C52.2034 75.2773 51.9156 72.771 50.7428 71.2801C49.3113 69.4502 46.3839 69.1994 44.2962 68.7501C42.0214 68.2678 39.7264 67.8824 37.4114 67.6988C38.9223 66.324 40.5263 65.0252 42.1638 63.8617C43.4706 62.9363 45.8587 62.1995 46.6443 60.6589C47.3428 59.2741 46.3373 57.3594 45.8822 56.0407C45.0081 53.4966 44.1847 50.9279 43.2534 48.4012C41.6346 44.0293 39.763 39.445 36.2545 36.2345C33.0902 33.3404 29.2346 32.7006 25.0786 33.0298C17.182 33.6587 11.6536 38.9949 9.44253 46.2609C9.48699 43.6006 9.61566 40.9386 9.8211 38.2817C10.4728 29.7593 11.1299 18.42 17.3972 11.8346C24.3331 4.54931 35.8662 7.53863 42.4706 13.6179C49.5512 20.1412 53.7912 29.8673 56.9688 38.7824C60.3476 48.2781 62.445 58.3013 63.0189 68.367C63.5681 78.0526 63.5129 88.968 58.3793 97.5463L58.3784 97.5603Z" fill="black"/>
<path d="M124.921 7.63792C114.555 5.80269 106.628 13.1296 101.172 21.0565C94.4709 30.7958 89.4572 41.5474 85.7054 52.7303C81.5389 65.1341 78.0884 79.3779 80.3314 92.4871C81.4619 99.1194 84.8699 105.645 89.9639 110.142C95.1818 115.439 102.49 117.975 110.287 116.597C120.871 114.724 128.584 106.466 133.619 97.4604C139.516 86.9267 143.262 75.1757 145.243 63.2976C147.129 52.0231 147.998 39.3517 144.944 28.1878C142.298 18.5219 135.26 9.47137 124.921 7.64491L124.921 7.63792ZM107.628 39.7201C107.712 39.7255 107.783 39.7021 107.861 39.693C111.845 40.5162 116.526 42.3793 117.528 46.7536C118.634 51.5832 115.042 55.7961 110.587 57.0732C106.324 58.2996 100.283 56.882 99.4446 51.8103C98.8446 48.1625 101.121 41.8399 104.946 40.1158C105.803 39.8694 106.695 39.7234 107.622 39.7057L107.628 39.7201ZM134.886 82.614C131.564 91.4767 127.209 101.03 119.657 107.098C116.709 109.467 113.261 111.097 109.702 111.842C115.087 108.635 118.003 101.743 119.69 95.1164C120.541 91.786 121.262 88.4121 121.851 85.0228C122.141 83.3384 122.611 81.5815 121.703 80.0094C120.624 78.1461 118.143 76.7255 116.455 75.5099C114.847 74.3556 113.191 73.2892 111.472 72.338C113.655 71.63 115.934 71.0543 118.124 70.6762C119.556 70.4316 121.673 70.7426 122.887 69.7341C124.094 68.7253 123.964 66.3902 124.1 65.0253C124.364 62.337 124.698 59.6462 124.891 56.9534C125.51 48.1836 124.536 39.6552 115.507 35.9784C107.878 32.875 100.29 35.2408 94.9945 41.2086C96.0066 39.087 97.0802 36.9903 98.2082 34.9181C102.273 27.4837 107.271 17.9645 115.123 13.8777C124.063 9.22281 133.697 15.4824 137.823 23.5963C142.217 32.239 142.086 42.9112 141.446 52.3454C140.747 62.6939 138.523 72.9025 134.886 82.614Z" fill="black"/>
</svg>
