<svg width="34" height="34" viewBox="0 0 34 34" fill="none" xmlns="http://www.w3.org/2000/svg">
<g clip-path="url(#clip0_37_652)">
<g clip-path="url(#clip1_37_652)">
<path d="M19.408 8.66441L19.4081 8.66447L19.4133 8.65583C20.7677 6.39997 24.2481 6.40641 25.6555 8.55685L32.9805 20.3248C33.6888 21.5235 33.5627 22.7304 32.9631 23.644C32.3546 24.5713 31.2477 25.2096 29.9731 25.1999L29.9731 25.1999L29.9693 25.1999L14.5191 25.1999C13.2414 25.1999 12.2385 24.5824 11.7085 23.7472C11.1814 22.9164 11.1118 21.8605 11.7173 20.908L11.7173 20.9081L11.7187 20.9058L19.408 8.66441Z" fill="white" stroke="black"/>
<path d="M22.4047 21.2575L22.4047 21.2575L22.4084 21.2634C23.3052 22.661 24.1183 23.9247 25.2332 24.817C25.4151 24.9626 25.6042 25.0977 25.8018 25.222L19.4383 25.222L4.08538 25.222C1.17337 25.2011 -0.295042 22.4253 0.974014 20.3735C0.97419 20.3732 0.974366 20.3729 0.974542 20.3727L8.20899 8.79604L8.21434 8.78748L8.21934 8.77871C9.61431 6.33198 12.9718 6.47444 14.3906 8.4128L20.5897 18.3848L20.5897 18.3849L20.593 18.39L21.0144 18.1209L20.593 18.39L20.593 18.39L20.5931 18.3902L20.5936 18.391L20.5956 18.3942L20.6035 18.4065L20.6338 18.4539L20.7451 18.6283C20.839 18.7756 20.9688 18.9792 21.112 19.2041C21.3983 19.654 21.7374 20.188 21.9514 20.5289C21.9516 20.5293 21.9518 20.5296 21.952 20.53L22.4047 21.2575Z" fill="white" stroke="black"/>
</g>
</g>
<defs>
<clipPath id="clip0_37_652">
<rect width="34" height="34" fill="white"/>
</clipPath>
<clipPath id="clip1_37_652">
<rect width="34" height="20" fill="white" transform="translate(0 6)"/>
</clipPath>
</defs>
</svg>
