<svg width="336" height="208" viewBox="0 0 336 208" fill="none" xmlns="http://www.w3.org/2000/svg">
<g clip-path="url(#clip0_91_8940)">
<path d="M197.439 -116.78C186.771 -102.836 169.949 -82.1084 160.893 -69.9809C151.836 -57.8514 160.752 -65.7549 154.519 -56.7639C155.857 -27.3182 159.302 77.8259 160.441 107.53C152.825 108.485 145.317 109.316 137.739 110.23C136.715 76.6233 132.829 -31.7927 131.847 -65.4066C132.417 -67.5598 133.647 -70.6677 133.788 -72.1891C140.215 -81.1469 139.383 -79.5398 147.095 -90.3458C154.807 -101.152 167.823 -119.629 176.611 -132.054C183.857 -127.448 191.04 -122.448 197.44 -116.782L197.439 -116.78Z" fill="#32303D"/>
<path d="M154.148 108.241C153.106 79.3049 148.566 -25.6101 147.738 -54.1522C147.488 -62.7717 148.641 -66.1082 153.575 -73.062C165.066 -89.2564 178.314 -106.163 190.156 -122.557C192.83 -120.757 195.188 -119.001 197.749 -117.054C184.431 -99.9672 171.143 -81.6091 157.787 -65.0693C157.605 -51.1053 155.337 -72.7098 155.547 -52.1098C155.758 -31.5079 159.915 82.4927 160.364 106.713C158.375 108.793 156.275 107.621 154.144 108.241L154.148 108.241Z" fill="#1A1A1E"/>
<path d="M162.063 104.422C162.997 96.254 162.262 87.9589 162.003 79.7702C161.701 70.2551 161.392 60.7895 161.095 51.289C160.827 42.7554 157.733 -40.5772 157.492 -49.1262C157.35 -54.2046 157.298 -58.9184 159.573 -63.6017C160.835 -66.1993 162.761 -68.4711 164.441 -70.8207C166.274 -73.3873 168.273 -75.8752 170.192 -78.383C178.934 -89.811 187.987 -101.127 196.597 -112.604C198.293 -114.867 195.1 -117.668 193.319 -115.428C185.242 -105.267 177.434 -94.8177 169.453 -84.5498C165.571 -79.555 161.65 -74.5478 158.066 -69.3272C156.378 -66.87 154.891 -64.3255 154.007 -61.4653C153.177 -58.7784 153.061 -55.9669 153.106 -53.1719C153.393 -35.1099 157.059 57.7799 157.656 75.8377C157.826 80.9402 157.967 86.0489 158.171 91.1354C158.348 95.5481 158.485 99.9546 159.263 104.281C159.529 105.763 161.857 106.18 162.059 104.419L162.063 104.422Z" fill="black"/>
<path d="M138.831 108.702C139.815 104.088 139.43 99.2963 139.301 94.643C139.156 89.3526 138.992 84.1481 138.856 78.9039C138.568 67.9302 138.251 56.9627 137.982 45.9912C137.733 35.8296 134.749 -49.1685 134.605 -59.3386C134.57 -61.8056 134.329 -64.333 134.626 -66.7891C134.973 -69.6644 136.18 -72.0999 137.739 -74.4961C141.425 -80.1625 145.382 -85.6704 149.297 -91.1655C158.088 -103.505 167.41 -115.561 176.428 -127.665C178.215 -130.063 174.816 -133.039 172.967 -130.653C164.542 -119.793 156.303 -108.712 148.194 -97.5903C144.192 -92.0995 140.294 -86.5174 136.466 -80.8922C134.643 -78.2156 132.632 -75.5464 131.367 -72.5484C130.157 -69.6845 129.877 -66.7526 129.908 -63.6768C130.011 -53.6254 133.302 31.2409 133.614 41.2792C133.961 52.4603 134.248 63.6312 134.577 74.8213C134.755 80.8304 134.939 86.7864 135.115 92.8426C135.268 98.1605 135.061 103.707 136.515 108.869C136.873 110.136 138.587 109.854 138.832 108.7L138.831 108.702Z" fill="black"/>
<path d="M133.894 96.5525C133.459 98.8319 132.833 103.191 132.322 105.679C130.616 110.653 128.131 111.09 126.51 117.08C124.886 123.072 121.981 135.699 121.025 141.54C120.07 147.381 121.427 147.747 120.902 152.094C120.376 156.441 126.209 168.199 128.201 172.567C130.192 176.935 134.891 180.245 139.76 180.59C142.069 184.776 141.9 185.818 144.607 190.68C147.314 195.543 152.786 202.345 160.449 200.951C168.117 199.556 166.451 186.415 165.09 181.919C163.729 177.423 164.945 178.907 163.986 175.459C164.621 176.211 165.178 176.369 165.666 177.066C168.583 176.173 169.371 178.449 172.728 176.551C176.088 174.654 178.164 171.748 180.592 166.003C183.021 160.257 186.596 147.976 186.93 140.361C187.262 132.748 182.314 119.06 179.48 112.17C176.645 105.279 172.075 100.865 168.165 95.0099C167.177 93.3727 167.427 91.048 166.273 89.4261C165.119 87.8042 164.984 87.477 162.419 86.2297C159.855 84.9823 155.91 84.817 151.355 85.1122C146.8 85.4074 138.937 88.5964 134.84 91.9518C134.287 93.8838 134.323 94.2792 133.887 96.5569L133.894 96.5525ZM162.625 141.704C166.118 142.212 165.657 146.798 165.433 149.423C165.297 151.025 164.999 152.429 164.532 153.917C163.874 156.027 162.774 158.025 162.354 160.202C162.276 160.608 162.165 160.858 161.943 161.18C162.061 162.258 162.293 163.313 162.164 164.417C162.035 165.52 160.876 166.224 159.835 166.037C158.599 165.816 158.181 164.824 158.169 163.702C158.156 162.581 157.893 161.551 157.707 160.475C157.487 159.209 157.377 158.028 157.346 156.74C157.284 154.198 157.314 151.835 157.712 149.222C158.125 146.51 158.898 141.157 162.627 141.699L162.625 141.704Z" fill="white"/>
<path d="M160.602 169.475C159.982 167.438 159.386 165.426 158.928 163.35C158.47 161.274 157.967 159.222 157.855 157.09C157.738 154.866 157.784 152.635 157.795 150.412C157.8 149.314 157.865 148.274 158.136 147.201C158.408 146.125 159.047 145.084 159.414 144.048C159.67 143.323 158.925 142.442 158.203 143.045C155.417 145.37 154.777 149.161 154.608 152.56C154.498 154.723 154.605 156.513 154.626 158.531C154.648 160.674 154.443 162.61 154.748 164.719C155.893 172.664 158.776 180.277 159.243 188.344C159.362 190.398 159.199 192.464 158.79 194.497C158.608 195.406 158.198 196.333 157.709 197.099C157.222 197.867 156.376 198.36 155.883 199.074C155.012 200.338 155.535 201.868 157.032 202.221C159.151 202.721 161.008 201.353 162.237 199.774C163.644 197.965 164.351 195.913 164.69 193.716C165.329 189.58 164.902 185.522 164.088 181.487C163.252 177.33 161.825 173.488 160.6 169.473L160.602 169.475Z" fill="#C9C9C9"/>
<path d="M134.113 95.3593C133.928 96.7002 135.228 98.1263 136.673 97.548C136.873 97.4681 137.103 97.3687 137.305 97.3C131.023 102.798 128.797 110.965 126.566 118.689C125.764 121.466 124.994 124.131 124.3 126.891C123.607 129.654 122.914 132.307 122.596 135.131C120.83 140.278 120.381 145.247 121.031 150.643C121.091 151.136 121.711 151.249 121.944 150.808C122.244 150.239 122.493 149.586 122.763 148.995C122.95 147.35 123.372 145.849 123.973 144.306C124.708 142.425 125.371 140.597 126.147 138.695C127.932 134.332 129.949 130.298 133.525 127.122C135.073 125.748 136.895 124.886 138.412 123.496C139.765 122.257 140.938 120.911 142.08 119.467C144.453 116.466 146.306 113.395 148.568 110.21C152.597 104.54 157.98 98.9869 165.484 102.324C170.889 104.727 173.997 110.042 176.951 114.867C178.876 118.014 180.175 121.272 181.326 124.727C182.091 126.863 182.808 128.982 183.079 131.246C183.392 133.856 183.244 136.404 182.911 139.009C182.598 141.465 182.379 143.813 181.746 146.261C180.472 151.184 178.526 155.494 174.739 159.053C173.216 160.483 171.333 161.168 169.268 160.698C168.406 160.575 168.006 160.159 167.543 159.469C167.344 159.171 167.153 158.873 167.025 158.542C167.001 158.483 166.957 158.418 166.942 158.381C166.93 158.343 166.948 158.337 166.945 158.317C166.55 156.73 166.748 155.17 167.174 153.631C167.741 151.589 168.258 149.662 168.507 147.568C168.249 145.277 167.574 143.361 165.961 141.661C165.023 140.672 163.885 140.11 162.503 140.321C161.213 140.517 160.217 141.164 159.678 142.37C159.496 142.775 160.028 143.172 160.363 142.814C161.808 141.284 163.571 142.318 164.44 143.857C165.209 145.221 165.007 146.607 164.77 148.021C164.244 151.134 163.224 154.045 162.856 157.174C162.783 157.803 162.737 158.473 162.687 159.112C161.658 161.988 161.597 164.609 162.579 167.503C162.486 167.612 162.359 167.733 162.303 167.877C161.341 170.347 162.375 172.854 164.528 174.245C167.017 175.852 169.678 176.009 172.327 174.902C174.975 173.797 176.538 171.724 178.192 169.506C178.318 169.338 178.402 169.128 178.532 168.971C178.777 168.675 179.061 168.399 179.282 168.09C181.02 165.619 182.21 162.934 183.167 160.097C184.124 157.261 184.941 154.594 185.663 151.67C187.098 145.879 188.448 139.946 187.388 133.965C186.834 130.829 186.103 127.934 185.179 124.873C184.318 122.024 183.404 119.087 181.849 116.494C180.861 113.888 179.956 111.292 178.515 108.891C176.929 106.244 174.886 104.168 172.41 102.363C172.544 101.156 172.4 100.279 171.415 99.3858C169.5 97.6485 167.043 96.4996 164.735 95.2898C164.441 95.1369 164.126 94.997 163.86 94.8268C166.811 94.3865 168.293 91.1419 165.954 88.9148C163.615 86.6877 160.392 86.1 157.229 85.5187C154.404 84.9985 151.517 84.5096 148.578 84.8944C145.415 85.3068 142.499 86.4411 139.673 88.1072C136.847 89.7733 134.587 91.8822 134.107 95.3579L134.113 95.3593ZM149.381 92.0854C151.238 91.7087 152.854 91.9712 154.669 92.2439C153.175 92.2796 151.717 92.4364 150.245 92.6788C148.451 92.9734 146.661 93.2997 144.893 93.7068C146.318 93.0812 147.878 92.3922 149.379 92.0874L149.381 92.0854Z" fill="#C9C9C9"/>
<path d="M134.787 156.784C135.838 164.965 136.371 173.199 138.731 181.142C139.898 185.077 141.43 188.779 143.529 192.359C145.625 195.938 148.105 199.262 151.785 201.416C154.923 203.256 158.753 203.724 162.085 202.199C165.729 200.527 167.442 197.382 167.635 193.479C168.05 185.185 164.741 177.655 161.938 170.037C160.344 165.705 158.792 161.429 158.228 156.822C157.691 152.454 158.237 148.221 159.003 143.923C159.102 143.36 158.37 143.016 158.04 143.472C156.002 146.288 155.322 149.489 155.33 152.899C155.341 156.649 155.89 160.183 156.65 163.788C158.241 171.33 161.809 178.045 163.378 185.67C164.051 188.948 164.807 193.126 163.153 196.294C161.694 199.092 158.336 199.753 155.511 198.962C151.81 197.923 149.349 195.022 147.332 191.98C145.185 188.742 143.718 185.352 142.371 181.796C139.275 173.623 137.143 165.189 134.851 156.778C134.84 156.742 134.782 156.748 134.785 156.786L134.787 156.784Z" fill="black"/>
<path d="M182.342 119.219C182.728 121.793 183.241 124.316 183.666 126.875C184.092 129.435 184.423 131.942 184.708 134.541C185.219 139.21 185.519 143.829 184.556 148.482C183.529 153.459 182.14 157.909 180.167 162.728C178.434 166.962 176.296 171.525 172.138 174.025C170.606 174.947 168.557 175.042 166.976 174.249C165.199 173.359 164.671 171.467 164.316 169.642C163.877 167.391 163.588 165.191 163.731 162.886C163.874 160.581 164.531 158.449 165.13 156.168C166.234 151.975 167.497 147.832 166.294 143.502C165.732 141.477 164.156 139.996 162.015 140.073C159.875 140.149 158.239 141.511 157.279 143.444C155.086 147.867 154.878 152.727 155.41 157.54C155.722 160.364 156.406 162.844 157.224 165.491C158.042 168.137 158.872 170.822 160.187 173.248C160.923 174.608 162.628 173.427 162.365 172.143C161.863 169.696 160.815 167.403 160.144 164.972C159.5 162.644 158.893 160.396 158.598 157.937C158.069 153.541 158.293 149.34 159.963 145.168C160.305 144.312 160.872 143.401 161.79 143.173C163.031 142.866 163.515 144.127 163.683 145.139C164.054 147.371 163.757 149.53 163.145 151.658C161.879 156.067 159.877 160.082 159.619 164.706C159.498 166.908 159.891 169.207 160.424 171.326C160.957 173.445 161.731 175.567 163.522 176.914C167.071 179.579 171.468 179.327 175 176.815C179.127 173.882 181 169.462 182.648 164.936C184.364 160.219 185.28 155.495 186.576 150.712C187.26 148.189 187.898 145.694 188.284 143.092C188.657 140.575 188.111 138.001 187.509 135.576C186.826 132.836 185.887 130.274 185.118 127.596C184.302 124.76 183.424 121.976 182.407 119.212C182.395 119.177 182.335 119.178 182.342 119.219Z" fill="black"/>
<path d="M139.571 179.431C135.233 178.712 132.314 176.283 130.322 172.484C127.977 168.017 126.488 163.402 125.101 158.675C123.712 153.947 122.677 149.457 122.939 144.545C123.207 139.523 124.117 134.61 124.949 129.658C125.885 124.089 126.953 118.528 128.263 113.03C128.292 112.906 128.105 112.848 128.055 112.964C127.553 114.151 126.95 115.296 126.487 116.501C125.963 117.873 125.525 119.27 125.022 120.654C124.112 123.154 123.314 125.656 122.649 128.243C121.275 133.579 119.944 138.881 119.269 144.387C118.611 149.744 119.997 154.783 121.499 159.917C123 165.05 124.762 170.054 127.27 174.796C128.601 177.313 130.424 179.326 132.785 180.901C133.77 181.558 134.905 181.993 136.039 182.213C137.329 182.463 138.533 182.403 139.779 181.989C141.025 181.576 140.917 179.655 139.573 179.433L139.571 179.431Z" fill="black"/>
<path d="M121.044 143.773C122.416 139.194 123.586 134.617 124.76 129.97C125.911 125.415 127.105 120.907 128.765 116.468C130.423 112.028 132.055 107.545 134.443 103.375C136.704 99.4271 140.047 96.8066 144.21 95.0723C146.494 94.1203 148.81 93.6541 151.202 93.3358C153.593 93.0175 155.91 92.8124 158.297 92.6541C158.387 92.6468 158.398 92.507 158.306 92.5012C156.154 92.3495 154.119 91.9216 151.93 91.9738C149.742 92.024 147.511 91.9856 145.283 92.3904C140.648 93.2329 136.379 94.9719 133.323 98.7019C130.021 102.733 128.512 107.627 126.815 112.427C125.119 117.227 123.762 122.025 122.547 126.932C121.861 129.707 121.293 132.491 120.941 135.314C120.59 138.137 120.687 140.932 120.777 143.755C120.783 143.924 121.002 143.908 121.043 143.769L121.044 143.773Z" fill="black"/>
<path d="M185.45 150.924C188.718 145.042 188.881 138.13 187.634 131.723C186.223 124.472 184.174 117.749 181.117 111.087C178.006 104.306 173.816 97.917 167.405 93.8763C164.111 91.7993 160.511 91.2006 156.717 90.8053C153.121 90.4318 149.575 90.2926 145.988 91.0715C142.315 91.8704 139.248 93.5052 136.396 96.1125C133.772 98.5099 131.703 101.603 131.12 105.209C131.016 105.854 131.886 106.42 132.329 105.786C134.021 103.36 135.319 100.682 137.584 98.6708C139.849 96.6592 142.444 95.0717 145.387 94.2526C148.554 93.3705 151.775 93.3855 155.017 93.7181C158.426 94.0674 161.705 94.5041 164.705 96.3136C170.551 99.8419 174.464 105.62 177.322 111.665C180.181 117.71 182.019 123.933 183.562 130.364C184.351 133.656 184.867 136.981 185.253 140.317C185.662 143.857 185.343 147.287 185.047 150.801C185.026 151.054 185.326 151.143 185.45 150.924Z" fill="black"/>
<path d="M131.226 106.836C132.363 104.81 133.827 102.931 135.339 101.203C136.778 99.5564 138.323 98.2357 140.179 97.1416C142.151 95.9799 144.148 94.9253 146.295 94.1665C148.239 93.4804 150.322 93.3935 152.236 92.6442C152.611 92.4975 152.765 91.9818 152.397 91.7353C150.432 90.4246 148.099 90.5598 145.92 91.0939C143.128 91.7768 140.672 92.8816 138.263 94.2982C135.983 95.6424 134.153 97.3185 132.74 99.502C131.255 101.798 131.071 104.138 130.929 106.777C130.919 106.943 131.15 106.966 131.228 106.83L131.226 106.836Z" fill="black"/>
<path d="M135.876 99.8075C135.869 99.0606 135.492 98.3058 135.449 97.5599C135.406 96.8139 135.383 96.0814 135.619 95.3506C136.072 93.9393 136.739 92.6705 137.908 91.6879C140.796 89.2712 144.287 87.9968 147.926 87.2907C151.652 86.5683 155.176 86.5176 158.898 86.9769C160.709 87.2011 162.342 87.7008 163.707 88.9771C164.985 90.1721 165.305 91.8705 164.802 93.4868C164.116 95.6981 167.138 97.2374 168.041 95.0048C169.464 91.4813 168.342 87.8003 165.166 85.5672C161.993 83.3321 158.028 83.1215 154.217 83.1708C150.406 83.2202 146.834 83.7086 143.119 84.8302C139.404 85.9518 135.996 87.4112 133.561 90.8076C131.472 93.7197 130.335 98.2625 133.061 101.208C134.149 102.384 135.889 101.23 135.878 99.8092L135.876 99.8075Z" fill="black"/>
<path d="M129.019 124.639C128.2 128.563 127.116 132.434 126.21 136.322C125.304 140.209 124.76 144.214 124.383 148.138C124.259 149.44 126.157 149.808 126.323 148.506C126.827 144.548 127.331 140.572 127.715 136.591C128.099 132.611 128.462 128.615 129.084 124.66C129.09 124.616 129.027 124.597 129.017 124.641L129.019 124.639Z" fill="black"/>
<path d="M133.198 129.892C132.286 134.665 131.083 139.51 130.623 144.295C130.439 146.206 133.228 146.328 133.147 144.433C132.942 139.593 132.66 134.76 133.269 129.914C133.275 129.871 133.208 129.852 133.2 129.894L133.198 129.892Z" fill="black"/>
</g>
<defs>
<clipPath id="clip0_91_8940">
<rect width="208.359" height="272.587" fill="white" transform="translate(158.675 207.628) rotate(-139.601)"/>
</clipPath>
</defs>
</svg>
