<svg width="96" height="96" viewBox="0 0 96 96" fill="none" xmlns="http://www.w3.org/2000/svg">
<circle cx="48" cy="48" r="46.5" fill="#32303D" stroke="white" stroke-width="3"/>
<path d="M44.2789 53.904C44.1295 53.904 43.9909 53.8507 43.8629 53.744C43.7349 53.616 43.6709 53.4773 43.6709 53.328C43.6709 53.2853 43.6709 53.2427 43.6709 53.2C43.6709 53.1573 43.6815 53.1147 43.7029 53.072C43.8949 52.4747 44.1829 51.92 44.5669 51.408C44.9509 50.8747 45.3775 50.384 45.8469 49.936C46.3162 49.4667 46.7642 49.04 47.1909 48.656C47.6175 48.2507 47.9695 47.8773 48.2469 47.536C48.5242 47.1733 48.6629 46.8427 48.6629 46.544C48.6629 46.3307 48.6095 46.1493 48.5029 46C48.4175 45.8507 48.2895 45.7333 48.1189 45.648C47.9695 45.5627 47.7882 45.52 47.5749 45.52C46.9349 45.52 46.4975 45.648 46.2629 45.904C46.0495 46.16 45.8682 46.4267 45.7189 46.704C45.6122 46.9173 45.4842 47.1093 45.3349 47.28C45.1855 47.4293 44.9295 47.504 44.5669 47.504H38.6149C38.4015 47.504 38.2095 47.4187 38.0389 47.248C37.8895 47.056 37.8149 46.8107 37.8149 46.512C37.8362 45.7013 38.0495 44.88 38.4549 44.048C38.8815 43.1947 39.5109 42.4053 40.3429 41.68C41.1962 40.9547 42.2629 40.3787 43.5429 39.952C44.8442 39.504 46.3802 39.28 48.1509 39.28C50.0069 39.28 51.5215 39.4933 52.6949 39.92C53.8682 40.3253 54.7749 40.8587 55.4149 41.52C56.0549 42.16 56.5029 42.8213 56.7589 43.504C57.0149 44.1653 57.1429 44.752 57.1429 45.264C57.1429 45.9467 57.0362 46.576 56.8229 47.152C56.6309 47.728 56.3642 48.2613 56.0229 48.752C55.6815 49.2213 55.3082 49.68 54.9029 50.128C54.4975 50.5547 54.0922 50.9707 53.6869 51.376C53.3029 51.76 52.9509 52.144 52.6309 52.528C52.5669 52.6133 52.5029 52.688 52.4389 52.752C52.3749 52.816 52.3215 52.8907 52.2789 52.976C52.0655 53.296 51.8842 53.5307 51.7349 53.68C51.6069 53.8293 51.4042 53.904 51.1269 53.904H44.2789ZM44.5989 62C44.3642 62 44.1615 61.9147 43.9909 61.744C43.8202 61.5733 43.7349 61.3707 43.7349 61.136V56.048C43.7349 55.8133 43.8202 55.6107 43.9909 55.44C44.1615 55.2693 44.3642 55.184 44.5989 55.184H50.4549C50.6895 55.184 50.8922 55.2693 51.0629 55.44C51.2335 55.6107 51.3189 55.8133 51.3189 56.048V61.136C51.3189 61.3707 51.2335 61.5733 51.0629 61.744C50.8922 61.9147 50.6895 62 50.4549 62H44.5989Z" fill="white"/>
</svg>
