<svg width="106" height="56" viewBox="0 0 106 56" fill="none" xmlns="http://www.w3.org/2000/svg">
<path d="M105.248 30.409C99.1651 33.4207 93.3318 36.83 87.6195 40.3828C81.9448 43.9468 76.5299 47.8753 71.2359 51.9474L73.5538 52.8141C72.7679 46.365 71.6242 39.8817 70.0364 33.5183C68.4583 27.1219 66.5405 20.7684 64.3206 14.4692L63.5163 12.2186L61.4195 13.5015C50.2055 20.3104 38.9817 27.1523 27.3315 33.3647L29.9843 34.6181C28.3609 23.8246 27.3319 12.9557 27.5181 2.1236L27.5356 0.547804L25.9743 1.12704C21.64 2.78873 17.389 4.58292 13.0726 6.3218C8.79385 8.07181 4.4775 9.81069 0.216705 11.6379C4.68016 10.2301 9.1534 8.78921 13.5891 7.33722C18.0248 5.88523 22.498 4.44438 26.8781 2.90405L25.3343 1.90749C24.6859 12.7822 24.8933 23.8029 26.5332 34.8169L26.9112 37.2645L29.1861 36.0703C40.9867 29.9024 52.6483 23.5137 63.6874 16.3296L60.7864 15.3619C63.083 21.5402 65.04 27.7615 66.685 34.07C68.2924 40.3674 69.73 46.6862 70.8278 53.0482L71.2434 55.5069L73.1082 53.9037C78.0935 49.6323 83.3206 45.6482 88.6506 41.7304C93.9806 37.8127 99.5622 34.1493 105.209 30.5411L105.248 30.409Z" fill="#FFC900"/>
</svg>
