<svg width="87" height="40" viewBox="0 0 87 40" fill="none" xmlns="http://www.w3.org/2000/svg">
<path d="M86.6566 28.4105L73.2291 39.3514L70.4678 22.2524L86.6566 28.4105ZM80.6432 30.8726C79.2349 31.0836 77.8621 31.2819 76.5238 31.468L76.1106 28.4966C77.4381 28.312 78.8005 28.1152 80.1988 27.9057L80.6432 30.8726ZM72.3997 32.0169C70.9682 32.1984 69.5794 32.3648 68.2318 32.5164L67.8963 29.5353C69.2292 29.3853 70.6041 29.2206 72.0223 29.0407L72.3997 32.0169ZM64.1588 32.9423C62.6928 33.0833 61.2802 33.2051 59.9189 33.3084L59.6918 30.317C61.032 30.2153 62.4245 30.0953 63.8717 29.9561L64.1588 32.9423ZM55.7402 33.5766C54.2903 33.6514 52.9053 33.7026 51.5819 33.7312L51.5171 30.7319C52.8085 30.704 54.1634 30.654 55.5855 30.5806L55.7402 33.5766ZM47.4055 33.7443C45.9103 33.7189 44.5052 33.6596 43.184 33.5684L43.3906 30.5755C44.6554 30.6628 46.0083 30.7201 47.4565 30.7447L47.4055 33.7443ZM38.9184 33.1256C37.366 32.9032 35.9525 32.6247 34.6627 32.294L35.4077 29.388C36.5799 29.6885 37.8857 29.947 39.3438 30.1559L38.9184 33.1256ZM30.5353 30.8887C29.023 30.2187 27.7449 29.4438 26.6527 28.5788L28.5153 26.227C29.3946 26.9234 30.452 27.5706 31.7504 28.1458L30.5353 30.8887ZM23.5245 25.225C22.6506 23.9569 21.9925 22.627 21.4304 21.3062L24.1908 20.1314C24.7086 21.3481 25.2761 22.4798 25.9948 23.5227L23.5245 25.225ZM19.905 17.3902C19.4201 16.1335 18.9191 14.9259 18.2979 13.7659L20.9426 12.3497C21.6518 13.6741 22.2053 15.0178 22.7039 16.3104L19.905 17.3902ZM16.1486 10.6413C15.3771 9.77174 14.452 8.93851 13.3113 8.15969L15.0029 5.68208C16.3477 6.60022 17.4581 7.59701 18.3926 8.65019L16.1486 10.6413ZM9.9244 6.31506C8.83159 5.83989 7.60133 5.39808 6.21106 4.99845L7.03986 2.1152C8.54236 2.5471 9.89656 3.03163 11.1207 3.56389L9.9244 6.31506ZM2.32155 4.07929C1.66537 3.95336 0.982155 3.83509 0.270592 3.72496L0.72941 0.760259C1.47494 0.875637 2.19376 1.00002 2.88699 1.13306L2.32155 4.07929Z" fill="black"/>
</svg>
