<svg width="81" height="36" viewBox="0 0 81 36" fill="none" xmlns="http://www.w3.org/2000/svg">
<path d="M-2.74667e-05 11.2424L13.4314 0.306377L16.1866 17.4063L-2.74667e-05 11.2424ZM5.67823 8.83944C6.99829 8.64471 8.28545 8.46261 9.54057 8.2928L9.94279 11.2657C8.69999 11.4339 7.42471 11.6143 6.11606 11.8073L5.67823 8.83944ZM13.4716 7.78813C14.8098 7.626 16.1087 7.47899 17.3693 7.34659L17.6826 10.3302C16.4385 10.4608 15.1556 10.6061 13.8324 10.7664L13.4716 7.78813ZM21.2802 6.97171C22.6532 6.85338 23.9764 6.75409 25.2519 6.67307L25.442 9.66704C24.1903 9.74655 22.8896 9.84413 21.5378 9.96063L21.2802 6.97171ZM29.1479 6.47615C30.5323 6.42535 31.8537 6.39873 33.1153 6.39506L33.124 9.39504C31.8985 9.39861 30.6109 9.42449 29.2578 9.47413L29.1479 6.47615ZM37.122 6.46698C38.5382 6.52467 39.8672 6.61626 41.1149 6.73958L40.8198 9.72503C39.6347 9.6079 38.3636 9.52005 36.9999 9.46449L37.122 6.46698ZM45.1004 7.28661C46.5406 7.54711 47.8491 7.8614 49.0392 8.22514L48.1622 11.0941C47.0975 10.7687 45.9046 10.4808 44.5664 10.2387L45.1004 7.28661ZM52.9501 9.80103C54.3472 10.5331 55.5049 11.3671 56.4669 12.2846L54.3963 14.4555C53.6509 13.7445 52.7254 13.0702 51.5577 12.4583L52.9501 9.80103ZM59.0934 15.788C59.7804 17.1053 60.2276 18.4603 60.5633 19.7734L57.6567 20.5164C57.3555 19.3381 56.9783 18.2202 56.4334 17.1751L59.0934 15.788ZM61.3882 23.6865C61.6503 25.0024 61.9175 26.1727 62.3206 27.2184L59.5214 28.2976C59.0187 26.9936 58.7114 25.6053 58.446 24.2724L61.3882 23.6865ZM64.0577 29.9237C64.723 30.5487 65.6138 31.1046 66.8596 31.5329L65.8843 34.3699C64.2863 33.8205 63.0143 33.0597 62.0036 32.1101L64.0577 29.9237ZM70.3776 32.2599C71.4532 32.373 72.6734 32.4257 74.0596 32.4071L74.1 35.4068C72.616 35.4268 71.2757 35.3709 70.0638 35.2434L70.3776 32.2599ZM77.8495 32.2082C78.4841 32.1536 79.1441 32.0876 79.8307 32.0096L80.1694 34.9904C79.4574 35.0713 78.7701 35.1401 78.1067 35.1972L77.8495 32.2082Z" fill="black"/>
</svg>
