<svg width="34" height="34" viewBox="0 0 34 34" fill="none" xmlns="http://www.w3.org/2000/svg">
<path d="M20.2347 7.95611L20.7337 7.78975C21.8982 7.42006 22.8779 8.39974 22.8779 9.23153V10.47C22.8779 12.2814 21.9167 13.6493 20.3271 14.1484L13.6173 16.2741V13.5014L18.7374 11.8933C19.6247 11.5975 20.2347 10.7657 20.2347 9.82303V7.95611Z" fill="white"/>
<path d="M19.5322 4.01894L10.0313 7.01341L7.40651 5.07255L16.4269 2.22596C17.8871 1.76385 19.4583 2.02263 20.7152 2.8914L21.8982 3.76016C21.1034 3.68623 20.2901 3.76016 19.5322 4.01894Z" fill="white"/>
<path d="M20.2347 7.95611L20.7337 7.78975C21.8982 7.42006 22.8779 8.39974 22.8779 9.23153V10.47C22.8779 12.2814 21.9167 13.6493 20.3271 14.1484L13.6173 16.2741V13.5014L18.7374 11.8933C19.6247 11.5975 20.2347 10.7657 20.2347 9.82303V7.95611Z" stroke="black"/>
<path d="M19.5322 4.01894L10.0313 7.01341L7.40651 5.07255L16.4269 2.22596C17.8871 1.76385 19.4583 2.02263 20.7152 2.8914L21.8982 3.76016C21.1034 3.68623 20.2901 3.76016 19.5322 4.01894Z" stroke="black"/>
<path d="M24.5046 15.2206C24.5046 15.2206 26.1867 13.7049 26.1867 10.4331V9.04679C26.1867 6.88412 23.7098 3.39058 19.7356 4.64752L10.3086 7.6235V25.0912L12.9519 24.2594V19.9526L21.4547 17.2723C22.6192 16.8842 23.8761 17.5311 24.2458 18.6956C24.3198 18.9174 24.3567 19.1577 24.3567 19.398V21.0986C24.3567 22.8361 22.8225 25.2945 20.4196 26.0524L7.38809 30.1744L10.0314 32.1153L21.7689 28.4184C24.2458 27.6236 27 25.4979 27 20.9877V19.2502C27 16.5145 24.5046 15.2391 24.5046 15.2206ZM20.5305 14.8139L12.9519 17.1984V9.56436L20.5305 7.17988C22.1201 6.6808 23.5434 7.95622 23.5434 9.25012V10.4886C23.5434 12.6512 22.3604 14.2224 20.5305 14.8139Z" fill="white" stroke="black"/>
<path d="M23.7099 21.117V19.4165C23.7099 18.5477 23.0075 17.8453 22.1387 17.8453C21.9723 17.8453 21.806 17.8638 21.6581 17.9192L21.0666 18.1041V20.4516C21.0666 21.6161 20.3272 22.6328 19.2182 22.9655L9.66175 25.9784V7.53104L7 5.59018V29.5829L20.2348 25.4054C22.305 24.7769 23.7099 22.6697 23.7099 21.117Z" fill="white" stroke="black"/>
</svg>
