<svg width="35" height="34" viewBox="0 0 35 34" fill="none" xmlns="http://www.w3.org/2000/svg">
<path d="M11.9003 12H3.20225C3.14861 12 3.09716 12.0213 3.05925 12.0593C3.02129 12.0972 3 12.1486 3 12.2023V20.9004C3 20.954 3.02129 21.0055 3.05925 21.0434C3.09716 21.0813 3.14861 21.1026 3.20225 21.1026H11.9003C11.954 21.1026 12.0055 21.0813 12.0434 21.0434C12.0813 21.0055 12.1026 20.954 12.1026 20.9004V12.2023C12.1026 12.1486 12.0813 12.0972 12.0434 12.0593C12.0055 12.0213 11.954 12 11.9003 12ZM9.06841 17.8662C9.06841 17.9198 9.04711 17.9712 9.00916 18.0092C8.97124 18.0471 8.9198 18.0685 8.86615 18.0685H6.23648C6.18284 18.0685 6.13139 18.0471 6.09343 18.0092C6.05552 17.9712 6.03422 17.9198 6.03422 17.8662V15.2365C6.03422 15.1828 6.05552 15.1314 6.09343 15.0935C6.13139 15.0555 6.18284 15.0342 6.23648 15.0342H8.86615C8.9198 15.0342 8.97124 15.0555 9.00916 15.0935C9.04711 15.1314 9.06841 15.1828 9.06841 15.2365V17.8662Z" fill="white"/>
<path d="M30.1107 15.0347H27.4811C27.3694 15.0347 27.2788 15.1252 27.2788 15.2369V17.8666C27.2788 17.9783 27.3694 18.0689 27.4811 18.0689H30.1107C30.2225 18.0689 30.313 17.9783 30.313 17.8666V15.2369C30.313 15.1252 30.2225 15.0347 30.1107 15.0347Z" fill="white"/>
<path d="M27.0753 12.0002H24.4457C24.334 12.0002 24.2434 12.0908 24.2434 12.2025V14.8322C24.2434 14.9439 24.334 15.0345 24.4457 15.0345H27.0753C27.1871 15.0345 27.2776 14.9439 27.2776 14.8322V12.2025C27.2776 12.0908 27.1871 12.0002 27.0753 12.0002Z" fill="white"/>
<path d="M33.1437 12.0002H30.5141C30.4024 12.0002 30.3118 12.0908 30.3118 12.2025V14.8322C30.3118 14.9439 30.4024 15.0345 30.5141 15.0345H33.1437C33.2555 15.0345 33.346 14.9439 33.346 14.8322V12.2025C33.346 12.0908 33.2555 12.0002 33.1437 12.0002Z" fill="white"/>
<path d="M27.0753 18.0686H24.4457C24.334 18.0686 24.2434 18.1591 24.2434 18.2709V20.9005C24.2434 21.0122 24.334 21.1028 24.4457 21.1028H27.0753C27.1871 21.1028 27.2776 21.0122 27.2776 20.9005V18.2709C27.2776 18.1591 27.1871 18.0686 27.0753 18.0686Z" fill="white"/>
<path d="M33.1437 18.0686H30.5141C30.4024 18.0686 30.3118 18.1591 30.3118 18.2709V20.9005C30.3118 21.0122 30.4024 21.1028 30.5141 21.1028H33.1437C33.2555 21.1028 33.346 21.0122 33.346 20.9005V18.2709C33.346 18.1591 33.2555 18.0686 33.1437 18.0686Z" fill="white"/>
<path d="M22.5202 12.0002H19.8905C19.7788 12.0002 19.6882 12.0908 19.6882 12.2025V14.8322C19.6882 14.9439 19.7788 15.0345 19.8905 15.0345H22.5202C22.6319 15.0345 22.7225 14.9439 22.7225 14.8322V12.2025C22.7225 12.0908 22.6319 12.0002 22.5202 12.0002Z" fill="white"/>
<path d="M22.5202 18.0686H19.8905C19.7788 18.0686 19.6882 18.1591 19.6882 18.2709V20.9005C19.6882 21.0122 19.7788 21.1028 19.8905 21.1028H22.5202C22.6319 21.1028 22.7225 21.0122 22.7225 20.9005V18.2709C22.7225 18.1591 22.6319 18.0686 22.5202 18.0686Z" fill="white"/>
<path d="M19.6881 15.2342C19.6881 15.1806 19.6667 15.1291 19.6288 15.0912C19.5909 15.0532 19.5394 15.0319 19.4858 15.0319H16.6539V12.2023C16.6539 12.1486 16.6325 12.0972 16.5946 12.0593C16.5566 12.0213 16.5052 12 16.4516 12H13.8219C13.7682 12 13.7168 12.0213 13.6789 12.0593C13.6409 12.0972 13.6196 12.1486 13.6196 12.2023V20.8958C13.6196 20.9495 13.6409 21.0009 13.6789 21.0388C13.7168 21.0768 13.7682 21.0981 13.8219 21.0981H16.4516C16.5052 21.0981 16.5566 21.0768 16.5946 21.0388C16.6325 21.0009 16.6539 20.9495 16.6539 20.8958V18.0662H19.4858C19.5394 18.0662 19.5909 18.0448 19.6288 18.0069C19.6667 17.969 19.6881 17.9175 19.6881 17.8639V15.2342Z" fill="white"/>
</svg>
