<svg width="125" height="38" viewBox="0 0 125 38" fill="none" xmlns="http://www.w3.org/2000/svg">
<g clip-path="url(#clip0_91_8870)">
<mask id="mask0_91_8870" style="mask-type:luminance" maskUnits="userSpaceOnUse" x="0" y="0" width="125" height="38">
<path d="M0 0H125V38H0V0Z" fill="white"/>
</mask>
<g mask="url(#mask0_91_8870)">
<path d="M48.9953 19.0878C49.9358 18.5653 50.6883 17.9145 51.2368 17.1474C51.8602 16.2802 52.1899 15.2436 52.1798 14.1834C52.1798 12.1385 51.3982 10.5413 49.8582 9.43814C48.3363 8.34564 46.2429 7.79346 43.6337 7.79346H34.1992V31.4853H44.0111C46.7587 31.4853 48.9589 30.8606 50.5499 29.6268C52.1531 28.3823 52.9674 26.6403 52.9674 24.447C52.9674 23.111 52.5839 21.9627 51.8303 21.0329C51.1543 20.2016 50.2016 19.5485 48.9953 19.0878ZM39.3048 12.0637H43.2235C44.4528 12.0637 45.38 12.2965 45.9832 12.756C46.5778 13.2073 46.8691 13.8034 46.8691 14.5729C46.8691 15.3448 46.5778 15.9694 45.9832 16.4242C45.38 16.8826 44.4528 17.1153 43.2235 17.1153H39.3048V12.0637ZM46.6822 26.4123C46.0026 26.9455 44.965 27.215 43.5997 27.215H39.3048V21.4176H43.6009C44.965 21.4176 46.0038 21.6789 46.6858 22.1895C47.3618 22.7001 47.6895 23.3735 47.6895 24.251C47.6895 25.1749 47.3606 25.8815 46.6822 26.4123ZM59.8667 13.769H54.7259V31.4841H59.8655L59.8667 13.769ZM110.632 16.4349C109.81 15.4802 108.772 14.7244 107.602 14.2261C106.406 13.7072 105.06 13.4436 103.605 13.4436C101.821 13.4436 100.211 13.8402 98.8193 14.6216C97.4428 15.3882 96.3058 16.5073 95.5305 17.8587C94.7405 19.2243 94.3412 20.8061 94.3412 22.5624C94.3412 24.3199 94.7295 26.0061 95.4941 27.392C96.2412 28.7612 97.3798 29.8877 98.7708 30.6338C100.175 31.3926 101.824 31.7774 103.674 31.7774C105.943 31.7774 107.869 31.2193 109.402 30.1161C110.876 29.0556 111.89 27.5606 112.443 25.6867H107.268C106.997 26.3244 106.613 26.8671 106.063 27.2495C105.414 27.7007 104.575 27.9287 103.571 27.9287C102.699 27.9287 101.952 27.7221 101.35 27.3136C100.747 26.9039 100.285 26.3006 99.982 25.5157C99.7882 25 99.6582 24.4633 99.5948 23.9173H112.533L112.558 23.7606C112.789 22.332 112.731 20.9783 112.384 19.7373C112.052 18.5249 111.454 17.3976 110.632 16.4337V16.4349ZM99.6773 20.6386C99.7559 20.2716 99.8634 19.9111 99.9989 19.5604C100.314 18.7648 100.77 18.1532 101.353 17.7447C101.935 17.3362 102.658 17.1308 103.503 17.1308C104.562 17.1308 105.432 17.4668 106.088 18.1283C106.71 18.7576 107.062 19.6174 107.137 20.6375L99.6773 20.6386ZM59.9735 7.79346H54.6191V12.0637H59.9735V7.79346ZM88.1191 15.7794C87.5396 15.0872 86.8155 14.5244 85.9953 14.1288C85.0366 13.674 83.914 13.4436 82.6591 13.4436C81.1239 13.4436 79.7465 13.8153 78.5693 14.5444C77.3922 15.2747 76.4577 16.3055 75.7963 17.607C75.1349 18.9061 74.7999 20.4308 74.7999 22.1408C74.7999 23.8508 75.1519 25.2865 75.8485 26.594C76.5463 27.9061 77.5135 28.9511 78.7235 29.7016C79.9346 30.4533 81.3169 30.8357 82.8315 30.8357C83.9747 30.8357 85.0196 30.5935 85.9346 30.1149C86.64 29.7513 87.2568 29.2429 87.7429 28.6246V30.5531C87.7429 31.7489 87.4225 32.6668 86.7914 33.2784C86.1579 33.89 85.1943 34.1987 83.9273 34.1987C82.8351 34.1987 81.9771 33.9565 81.3764 33.4779C80.8849 33.086 80.4553 32.573 80.3557 31.4853H75.3994C75.4456 33.0076 75.9019 34.0325 76.5475 34.9314C77.2696 35.9372 78.2866 36.7245 79.573 37.2684C80.8448 37.8051 82.323 38.0783 83.9613 38.0783C86.7138 38.0783 88.9043 37.4014 90.4723 36.0678C92.0499 34.7271 92.8485 32.8497 92.8485 30.489V13.769H88.1203L88.1191 15.7794ZM87.215 24.4945C86.9171 25.1222 86.4421 25.6537 85.846 26.0263C85.2635 26.3826 84.5596 26.5655 83.7562 26.5655C82.5912 26.5655 81.6871 26.1771 80.9892 25.3803C80.2926 24.5859 79.9395 23.4958 79.9395 22.1396C79.9395 20.7835 80.2914 19.6934 80.988 18.899C81.6786 18.1128 82.6094 17.7138 83.755 17.7138C84.9019 17.7138 85.914 18.1176 86.6264 18.9168C87.3448 19.7231 87.7089 20.818 87.7089 22.1705C87.7089 23.0481 87.5426 23.8283 87.215 24.4933V24.4945ZM125.003 18.0071V13.7701H121.293V7.79346H116.187V13.7701H113.018V18.0071H116.187V24.9421C116.187 28.798 116.964 31.6313 121.801 31.5435L124.839 31.4841V27.5143H123.331C121.181 27.5143 121.301 26.2876 121.301 24.0088L121.293 18.0083L125.003 18.0071ZM73.5511 18.0071V13.7701H69.8412V7.79346H64.7356V13.7701H61.5657V18.0071H64.7332V24.9421C64.7332 28.798 65.5099 31.6313 70.3485 31.5435L73.3849 31.4841V27.5143H71.8812C69.7307 27.5143 69.8497 26.2876 69.8497 24.0088L69.8412 18.0083L73.5511 18.0071ZM12.8157 12.0637H20.5257L28.4128 19.7314C28.9261 20.2301 28.9286 21.0424 28.4176 21.5435L18.3024 31.4912H10.3618L12.7635 29.2065L21.579 20.6351L12.8752 12.0625" fill="#718CAB"/>
<path d="M15.9831 20.615H8.27559L0.387242 12.9473C0.265171 12.8287 0.1682 12.6877 0.101879 12.5324C0.0355576 12.3771 0.00118781 12.2106 0.000736917 12.0422C0.000286023 11.8739 0.0337628 11.7072 0.0992513 11.5515C0.16474 11.3959 0.260954 11.2544 0.382387 11.1352L10.4977 1.1875H18.4394L16.0389 3.47225L7.22219 12.0436L15.9273 20.615" fill="#718CAB"/>
</g>
</g>
<defs>
<clipPath id="clip0_91_8870">
<rect width="125" height="38" fill="white"/>
</clipPath>
</defs>
</svg>
