<svg width="169" height="26" viewBox="0 0 169 26" fill="none" xmlns="http://www.w3.org/2000/svg">
<g clip-path="url(#clip0_91_8877)">
<path d="M40.0137 18.0817L31.2332 3.36005C29.3169 0.294192 24.5975 0.266572 22.7384 3.49817L13.5287 18.7999C11.8126 21.6172 13.9291 25.1249 17.3899 25.1249H35.8951C39.356 25.1526 41.9588 21.5067 40.0137 18.0817Z" fill="#718CAB"/>
<path d="M26.9138 19.4976L26.9138 19.4977L26.9174 19.5035C27.9936 21.2538 28.9575 22.8153 30.2762 23.9168C30.6067 24.1929 30.9575 24.4387 31.335 24.6523H31.1187H23.2819H4.89276C1.37335 24.6261 -0.507798 21.0838 1.08763 18.3925C1.08777 18.3923 1.08791 18.392 1.08804 18.3918L9.75326 3.92056L9.75834 3.91208L9.76307 3.9034C11.4774 0.76533 15.5778 0.958312 17.3127 3.43771L24.74 15.9068L24.74 15.9068L24.7431 15.9119L25.1696 15.6509L24.7431 15.9119L24.7431 15.912L24.7433 15.9122L24.7439 15.9132L24.7463 15.9171L24.7557 15.9325L24.7919 15.9918L24.9253 16.2099C25.0378 16.3941 25.1933 16.6486 25.3648 16.9298C25.7079 17.4923 26.1144 18.1605 26.371 18.5871C26.3711 18.5873 26.3712 18.5875 26.3714 18.5877L26.9138 19.4976Z" fill="#718CAB" stroke="white"/>
<path d="M154.327 7.37687C155.614 6.21681 157.873 5.66439 161.163 5.66439H168.857V1.43848H159.761C157.587 1.43848 155.757 1.65945 154.327 2.10137C152.925 2.5433 151.695 3.2338 150.637 4.20052C149.522 5.2501 148.635 6.54824 148.006 8.09499C147.377 9.66934 147.062 11.3818 147.062 13.1771C147.062 14.8896 147.377 16.5468 148.006 18.066C148.635 19.5851 149.522 20.9109 150.637 21.9604C151.667 22.9271 152.897 23.6177 154.27 24.0596C155.671 24.5015 157.53 24.7225 159.761 24.7225H168.857V20.5518H161.163C159.418 20.5518 158.217 20.4966 157.53 20.3584C156.815 20.2203 156.157 19.9994 155.614 19.6679C154.527 19.005 153.698 18.1488 153.154 17.0716C152.639 16.022 152.382 14.6963 152.382 13.1495C152.382 10.498 153.04 8.53692 154.327 7.37687Z" fill="#718CAB"/>
<path d="M87.3704 24.7774H108.822V20.6896H92.6044V14.8617H106.762V10.9948H92.6044V5.58125H108.822V1.46582H87.3704V24.7774Z" fill="#718CAB"/>
<path d="M114.17 1.46582L124.21 13.1216L114.17 24.7774H120.663L128.585 15.5522V10.7186L120.663 1.46582H114.17Z" fill="#718CAB"/>
<path d="M138.539 1.46582L130.616 10.7186V15.5522L138.539 24.7774H145.031L134.963 13.1216L145.031 1.46582H138.539Z" fill="#718CAB"/>
<path d="M66.3484 12.9559L56.7095 1.46582H51.7329V24.7774H56.967V9.22715L65.3187 18.8943H67.3493L75.701 9.14431V24.7774H80.935V1.46582H76.0157L66.3484 12.9559Z" fill="#718CAB"/>
</g>
<defs>
<clipPath id="clip0_91_8877">
<rect width="169" height="25" fill="white" transform="translate(0 0.5)"/>
</clipPath>
</defs>
</svg>
