<svg width="109" height="38" viewBox="0 0 109 38" fill="none" xmlns="http://www.w3.org/2000/svg">
<path d="M77.8572 29.0104V0.833496H83.7892V29.0104H77.8572Z" fill="#718CAB"/>
<path d="M12.414 37.1666H0V8.98975H11.9107C17.706 8.98975 21.0764 12.0774 21.0764 16.9103C21.0764 20.0427 18.9108 22.0564 17.4162 22.7277C19.2006 23.5182 21.5034 25.2933 21.5034 29.0671C21.5034 34.3176 17.706 37.1666 12.414 37.1666ZM11.4685 13.8972H5.81049V20.3858H11.4685C13.9238 20.3858 15.2964 19.0732 15.2964 17.134C15.2964 15.1949 13.9238 13.8972 11.4685 13.8972ZM11.8345 25.3231H5.79524V32.2442H11.8345C14.4576 32.2442 15.7082 30.6631 15.7082 28.7538C15.7082 26.8445 14.4576 25.3231 11.8345 25.3231Z" fill="#718CAB"/>
<path d="M38.3204 25.6065V37.1666H32.8923V25.6065L24.4695 8.98975H30.4015L35.6279 20.341L40.7824 8.98975H46.7144L38.3204 25.6065Z" fill="#718CAB"/>
<path d="M63.1493 37.1666H51.1633V8.98975H62.6634C68.2588 8.98975 71.5129 12.0774 71.5129 16.9103C71.5129 20.0427 69.422 22.0564 67.979 22.7277C69.7018 23.5182 71.9252 25.2933 71.9252 29.0671C71.9105 34.3176 68.2588 37.1666 63.1493 37.1666ZM62.2216 13.8972H56.7587V20.3858H62.2216C64.5923 20.3858 65.9175 19.0732 65.9175 17.134C65.9175 15.1949 64.5923 13.8972 62.2216 13.8972ZM62.575 25.3231H56.744V32.2442H62.575C65.1077 32.2442 66.3151 30.6631 66.3151 28.7538C66.3151 26.8445 65.1224 25.3231 62.575 25.3231Z" fill="#718CAB"/>
<path d="M101.709 13.8972V37.1666H96.2557V13.8972H88.9795V8.98975H109V13.8972H101.709Z" fill="#718CAB"/>
</svg>
