<svg width="118" height="34" viewBox="0 0 118 34" fill="none" xmlns="http://www.w3.org/2000/svg">
<path fill-rule="evenodd" clip-rule="evenodd" d="M63.666 10.8765H67.8653V25.4508H63.666V10.8765Z" fill="#718CAB"/>
<path d="M60.9603 16.8233C60.5074 15.9956 59.8601 15.2882 59.0793 14.7647C60.0446 13.6738 60.6139 12.225 60.5444 10.639C60.4024 7.49379 57.7051 5.06592 54.5479 5.06592H45.7944V25.4496H55.8099C59.0452 25.4496 61.6687 22.8363 61.6687 19.6091C61.6687 18.6003 61.4132 17.6524 60.9603 16.8233ZM55.1583 21.9903H49.9923V16.9874H55.1285C56.4771 16.9874 57.6185 18.0556 57.6185 19.4902C57.6185 20.9065 56.48 21.9903 55.1583 21.9903ZM54.0609 13.5281H49.9923V8.52662H54.0297C55.3798 8.52662 56.5211 9.59342 56.5211 11.0281C56.5183 12.4429 55.3797 13.5281 54.0609 13.5281Z" fill="#718CAB"/>
<path d="M117.541 5.66992H112.71L108.937 11.6986L105.165 5.66992H100.332L106.522 15.5597L100.332 25.4508H105.165L108.937 19.4222L112.71 25.4508H117.541L111.353 15.5597L117.541 5.66992Z" fill="#718CAB"/>
<path d="M82.841 17.3441V25.4497H78.6431V16.6182C78.6431 15.3336 77.5798 14.2965 76.2795 14.3333C75.0273 14.3715 74.0606 15.4623 74.0606 16.713V25.4469H69.8613V10.8726H74.0606V11.5672C75.0061 11.1216 76.0594 10.8726 77.1738 10.8726C77.7317 10.8726 78.2755 10.9348 78.7979 11.0537C81.1246 11.5814 82.7686 13.6527 82.8282 16.0297C82.8367 16.4569 82.841 16.8984 82.841 17.3441Z" fill="#718CAB"/>
<path fill-rule="evenodd" clip-rule="evenodd" d="M63.666 5.06592H67.8653V9.25102H63.666V5.06592Z" fill="#718CAB"/>
<path d="M99.2077 10.8769H91.9662C91.9421 10.8769 91.9194 10.874 91.8938 10.874C87.8564 10.874 84.5827 14.1381 84.5827 18.1633C84.5827 22.1687 87.8237 25.4172 91.8313 25.4469C91.8498 25.4512 91.8711 25.4512 91.8938 25.4512C93.4525 25.4512 95.0085 25.9067 95.0085 27.2579C95.0085 28.6289 93.5988 29.7933 91.8938 29.7933C90.1746 29.7933 88.7806 28.4039 88.7806 26.6906H84.5813C84.5813 30.7144 87.8564 33.9784 91.8924 33.9784C95.9326 33.9784 99.2035 30.7144 99.2035 26.6906C99.2035 26.6906 99.2844 24.5131 97.4318 22.92C98.5391 21.6452 99.2049 19.9856 99.2049 18.1633C99.2049 16.7584 98.8074 15.4482 98.116 14.3361H99.2077V10.8769ZM91.8938 21.266C90.1746 21.266 88.7806 19.8767 88.7806 18.1633C88.7806 16.4499 90.1746 15.0605 91.8938 15.0605C93.613 15.0605 95.0085 16.4499 95.0085 18.1633C95.0085 19.8767 93.613 21.266 91.8938 21.266Z" fill="#718CAB"/>
<path d="M38.9049 0.0219727C34.4132 0.0219727 29.9726 1.15385 26.0601 3.29733C23.9647 4.44477 22.0298 5.86811 20.3106 7.53055C19.906 7.91963 19.5099 8.3271 19.1309 8.74307C17.8632 10.1353 16.7388 11.6633 15.7948 13.2833C15.4597 13.8648 15.0878 14.4322 14.6903 14.974C14.6378 15.0448 14.5881 15.1155 14.5313 15.1848C11.0546 19.7704 5.75801 22.3991 0 22.3991V30.8712C4.4917 30.8712 8.93229 29.7393 12.8448 27.5973C14.9359 26.4527 16.8708 25.0265 18.5943 23.3641C18.9989 22.9736 19.3949 22.5661 19.7754 22.1515C21.0445 20.7579 22.1646 19.2327 23.1087 17.6113L23.1711 17.5066C23.4906 16.9605 23.8426 16.4285 24.2132 15.922C24.2657 15.8527 24.3182 15.7805 24.3736 15.7069C27.8488 11.1228 33.1469 8.49264 38.9049 8.49264V0.0219727Z" fill="#718CAB"/>
<path d="M38.9049 22.4021C33.1469 22.4021 27.8488 19.7719 24.3707 15.1864C24.3196 15.1171 24.2657 15.0478 24.2132 14.9728C23.8171 14.4351 23.4451 13.8664 23.1101 13.2835C22.166 11.6649 21.0431 10.1383 19.774 8.74463C19.3949 8.3315 18.9989 7.92402 18.5943 7.53353C16.8751 5.87109 14.9416 4.44634 12.8448 3.30032C8.93229 1.15824 4.4917 0.0263672 0 0.0263672V8.49845C5.75801 8.49845 11.0561 11.1272 14.5341 15.7127C14.5881 15.7821 14.6392 15.8542 14.6917 15.9235C15.0651 16.4315 15.4171 16.9649 15.7323 17.5053L15.799 17.6157C16.7417 19.2329 17.8632 20.7581 19.1309 22.1531C19.5085 22.5662 19.906 22.9737 20.3106 23.3642C22.0326 25.0267 23.9676 26.4528 26.0601 27.5974C29.9726 29.7395 34.4132 30.8714 38.9049 30.8714V22.4021Z" fill="#718CAB"/>
</svg>
