<svg width="140" height="50" viewBox="0 0 140 50" fill="none" xmlns="http://www.w3.org/2000/svg">
<path fill-rule="evenodd" clip-rule="evenodd" d="M111.564 34.6292H115.161V20.604H111.564V34.6292Z" fill="#718CAB"/>
<path fill-rule="evenodd" clip-rule="evenodd" d="M111.564 19.0008H115.161V15.3555H111.564V19.0008Z" fill="#718CAB"/>
<path fill-rule="evenodd" clip-rule="evenodd" d="M106.071 34.6278H109.668V30.9824H106.071V34.6278Z" fill="#718CAB"/>
<path fill-rule="evenodd" clip-rule="evenodd" d="M80.6336 32.7251C80.8436 33.2896 81.1633 33.7313 81.544 34.0765C81.9294 34.4266 82.3819 34.6995 82.9178 34.8546C83.463 35.0094 84.0638 35.07 84.7001 35.07C85.3573 35.07 85.9442 35.0008 86.4446 34.8639C86.9095 34.7374 87.355 34.5583 87.7689 34.3311V31.755C87.1094 32.0438 86.4932 32.1486 85.7905 32.1819C85.0484 32.2168 84.609 32.0018 84.243 31.6492C83.8607 31.2795 83.6568 30.7975 83.6568 29.9889V22.1976H87.7689V19.0008H83.6568V15.3555H80.3147V19.0008H78.3115V22.1976H80.3147V30.5637C80.3147 31.4279 80.4212 32.1548 80.6336 32.7251Z" fill="#718CAB"/>
<path fill-rule="evenodd" clip-rule="evenodd" d="M58.9563 23.7434H50.0007V27.513H55.0296C54.7668 28.5898 54.2479 29.5551 53.5038 30.3261C52.3807 31.4892 50.8239 32.1297 49.1196 32.1297C45.5824 32.1297 42.7049 29.2131 42.7049 25.6282C42.7049 22.0431 45.5824 19.1264 49.1196 19.1264C51.0141 19.1264 52.7556 19.948 53.9629 21.3655L56.8423 18.9808C54.9332 16.7135 52.1007 15.3569 49.1196 15.3569C43.5317 15.3569 38.9858 19.9646 38.9858 25.6282C38.9858 31.2917 43.5317 35.8992 49.1196 35.8992C51.8323 35.8992 54.3332 34.9084 56.1616 33.0148C57.696 31.4255 58.713 29.2081 58.9085 26.9869C59.0039 25.9032 59.0123 24.8274 58.9563 23.7434Z" fill="#718CAB"/>
<path fill-rule="evenodd" clip-rule="evenodd" d="M96.9584 21.909C99.0218 21.909 100.781 23.2236 101.469 25.0713H92.4479C93.1351 23.2236 94.895 21.909 96.9584 21.909ZM105.03 28.0508C105.091 27.6411 105.125 27.2216 105.125 26.7947C105.125 22.2244 101.468 18.5195 96.9584 18.5195C92.4502 18.5195 88.7937 22.2244 88.7937 26.7947C88.7937 31.365 92.4502 35.0696 96.9584 35.0696C100.052 35.0696 102.743 33.326 104.129 30.7561L101.112 29.2725C100.274 30.7131 98.7276 31.6802 96.9584 31.6802C94.7228 31.6802 92.8432 30.1375 92.298 28.0452H101.618C101.618 28.047 101.617 28.0488 101.617 28.0508H105.03Z" fill="#718CAB"/>
<path fill-rule="evenodd" clip-rule="evenodd" d="M68.3209 31.6806C65.6587 31.6806 63.5003 29.4931 63.5003 26.7946C63.5003 24.096 65.6587 21.9085 68.3209 21.9085C70.9834 21.9085 73.1416 24.096 73.1416 26.7946C73.1416 29.4931 70.9834 31.6806 68.3209 31.6806ZM68.3206 18.5337C63.8122 18.5337 60.1575 22.2382 60.1575 26.8077C60.1575 31.3772 63.8122 35.0817 68.3206 35.0817C72.8291 35.0817 76.4837 31.3772 76.4837 26.8077C76.4837 22.2382 72.8291 18.5337 68.3206 18.5337Z" fill="#718CAB"/>
<mask id="mask0_91_8903" style="mask-type:alpha" maskUnits="userSpaceOnUse" x="6" y="10" width="128" height="30">
<path d="M6.71875 39.6553H133.363V10.2666H6.71875V39.6553Z" fill="white"/>
</mask>
<g mask="url(#mask0_91_8903)">
<path fill-rule="evenodd" clip-rule="evenodd" d="M73.1416 34.6287H76.4835V18.9878H73.1416V34.6287Z" fill="#718CAB"/>
<path fill-rule="evenodd" clip-rule="evenodd" d="M125.198 31.6801C122.535 31.6801 120.377 29.4929 120.377 26.7945C120.377 24.0963 122.535 21.909 125.198 21.909C127.86 21.909 130.018 24.0963 130.018 26.7945C130.018 29.4929 127.86 31.6801 125.198 31.6801ZM125.198 18.5195C120.689 18.5195 117.032 22.2242 117.032 26.7945C117.032 31.3648 120.689 35.0696 125.198 35.0696C129.707 35.0696 133.363 31.3648 133.363 26.7945C133.363 22.2242 129.707 18.5195 125.198 18.5195Z" fill="#718CAB"/>
<path fill-rule="evenodd" clip-rule="evenodd" d="M21.2163 33.0427C16.8124 33.0427 13.2426 29.4243 13.2426 24.9609C13.2426 20.4972 16.8124 16.879 21.2163 16.879V10.2666C13.2094 10.2666 6.71875 16.8454 6.71875 24.9609C6.71875 33.0764 13.2094 39.6552 21.2163 39.6552C29.2231 39.6552 35.7137 33.0764 35.7137 24.9609H29.1899C29.1899 29.4243 25.6199 33.0427 21.2163 33.0427Z" fill="#718CAB"/>
<path fill-rule="evenodd" clip-rule="evenodd" d="M21.2153 24.9603H29.189V16.8784H21.2153V24.9603Z" fill="#718CAB"/>
</g>
</svg>
