<svg width="105" height="32" viewBox="0 0 105 32" fill="none" xmlns="http://www.w3.org/2000/svg">
<g clip-path="url(#clip0_91_8919)">
<path d="M3.63184 25.1665C4.98377 27.047 6.71793 28.6204 8.7206 29.7837C10.7233 30.9469 12.9492 31.6737 15.2525 31.9164C14.0675 30.1332 12.345 28.4927 10.1946 27.2437C8.04428 25.9947 5.76701 25.3124 3.63184 25.1665Z" fill="#718CAB"/>
<path d="M13.0841 22.2704C8.94127 19.8635 4.45724 19.2501 1.24878 20.3337C1.55852 21.3574 1.96701 22.3486 2.4685 23.2933C5.2561 23.2287 8.29968 23.9858 11.1317 25.6307C13.9638 27.2756 16.1299 29.5458 17.4554 31.9999C18.525 31.9671 19.589 31.8308 20.6324 31.5931C19.9837 28.2697 17.226 24.6778 13.0841 22.2704Z" fill="#718CAB"/>
<path d="M32.8261 12.5009C32.2994 10.3584 31.3463 8.34403 30.0238 6.57804C28.7013 4.81205 27.0365 3.33067 25.1288 2.22235C23.2211 1.11403 21.1096 0.401503 18.9205 0.127309C16.7313 -0.146885 14.5093 0.0228793 12.3872 0.626465C15.9324 1.06033 19.8676 2.39122 23.7268 4.63324C27.5861 6.87525 30.6942 9.63411 32.8261 12.5009Z" fill="#718CAB"/>
<path d="M27.6682 20.3581C25.8535 17.3444 22.7449 14.4586 18.9154 12.234C15.086 10.0093 11.0402 8.7386 7.52643 8.65454C4.43512 8.58132 2.11501 9.47997 1.16267 11.1195C1.15725 11.1292 1.14965 11.1384 1.14369 11.1482C1.058 11.4557 0.984241 11.7637 0.916992 12.0729C2.2468 11.5479 3.78757 11.2556 5.50081 11.223C9.31071 11.1515 13.5745 12.3701 17.5092 14.656C21.4438 16.942 24.617 20.0436 26.4414 23.3876C27.2593 24.8942 27.7696 26.3775 27.9719 27.7946C28.2073 27.5842 28.4383 27.3667 28.6623 27.1406C28.6683 27.1303 28.6721 27.1194 28.678 27.1086C29.6304 25.4675 29.2621 23.0074 27.6682 20.3581Z" fill="#718CAB"/>
<path d="M16.0019 17.2485C10.1376 13.8416 3.65728 13.3079 0.541016 15.6855C0.547137 16.4297 0.604032 17.1726 0.711308 17.9091C1.62801 17.6312 2.57279 17.4562 3.5282 17.3874C7.01053 17.1254 10.8497 18.0957 14.3337 20.1207C17.8176 22.1458 20.564 25.0018 22.0619 28.1543C22.476 29.018 22.7918 29.9254 23.0034 30.8595C23.6965 30.5878 24.3704 30.2694 25.0204 29.9066C25.5421 26.0213 21.8678 20.656 16.0019 17.2485Z" fill="#718CAB"/>
<path d="M30.6845 15.3143C28.8493 12.3038 25.7135 9.40992 21.8569 7.17062C18.0004 4.93132 13.9388 3.64056 10.4137 3.53697C7.7264 3.45942 5.64492 4.11076 4.56567 5.34132C9.04698 4.58205 14.9579 5.85817 20.6871 9.18648C26.4164 12.5148 30.4546 17.0183 32.0133 21.287C32.5475 19.7408 32.0827 17.61 30.6845 15.3143Z" fill="#718CAB"/>
<path d="M47.2055 9.909H49.9413V19.0368C49.9413 19.8806 49.7516 20.6135 49.3724 21.2357C48.9974 21.8579 48.4754 22.3373 47.8063 22.6739C47.1373 23.0106 46.3596 23.1789 45.4732 23.1789C44.6849 23.1789 43.969 23.0404 43.3255 22.7634C42.6863 22.4821 42.1792 22.056 41.8042 21.485C41.4292 20.9097 41.2438 20.1874 41.2481 19.3181H44.0031C44.0116 19.6633 44.0819 19.9594 44.214 20.2066C44.3504 20.4495 44.5357 20.637 44.7701 20.7691C45.0087 20.8969 45.29 20.9608 45.6139 20.9608C45.9548 20.9608 46.2424 20.8884 46.4768 20.7435C46.7154 20.5944 46.8965 20.377 47.0201 20.0915C47.1437 19.806 47.2055 19.4544 47.2055 19.0368V9.909ZM58.4747 18.8195V13.1817H61.1977V22.9999H58.5833V21.2165H58.481C58.2595 21.7918 57.8908 22.2542 57.3752 22.6036C56.8639 22.953 56.2396 23.1277 55.5024 23.1277C54.8461 23.1277 54.2687 22.9786 53.7701 22.6803C53.2715 22.382 52.8816 21.958 52.6004 21.4083C52.3234 20.8586 52.1828 20.2002 52.1785 19.4331V13.1817H54.9015V18.9473C54.9058 19.5269 55.0613 19.985 55.3681 20.3216C55.6749 20.6583 56.0862 20.8266 56.6018 20.8266C56.9299 20.8266 57.2367 20.752 57.5222 20.6029C57.8078 20.4495 58.0379 20.2236 58.2126 19.9253C58.3916 19.627 58.4789 19.2584 58.4747 18.8195ZM63.3758 26.6817V13.1817H66.0604V14.8309H66.1819C66.3012 14.5667 66.4738 14.2982 66.6996 14.0255C66.9297 13.7485 67.228 13.5184 67.5945 13.3351C67.9652 13.1476 68.4255 13.0539 68.9752 13.0539C69.6911 13.0539 70.3516 13.2414 70.9567 13.6164C71.5618 13.9871 72.0455 14.5475 72.4077 15.2975C72.7699 16.0432 72.951 16.9786 72.951 18.1036C72.951 19.1988 72.7742 20.1235 72.4205 20.8777C72.0711 21.6277 71.5938 22.1966 70.9887 22.5844C70.3878 22.9679 69.7145 23.1597 68.9688 23.1597C68.4404 23.1597 67.9908 23.0723 67.6201 22.8976C67.2536 22.7229 66.9532 22.5035 66.7188 22.2392C66.4844 21.9708 66.3054 21.7002 66.1819 21.4275H66.0988V26.6817H63.3758ZM66.0412 18.0908C66.0412 18.6746 66.1222 19.1838 66.2841 19.6185C66.4461 20.0532 66.6804 20.3919 66.9873 20.6348C67.2941 20.8735 67.6669 20.9928 68.1059 20.9928C68.5491 20.9928 68.9241 20.8713 69.2309 20.6285C69.5377 20.3813 69.7699 20.0404 69.9276 19.6057C70.0895 19.1668 70.1705 18.6618 70.1705 18.0908C70.1705 17.524 70.0917 17.0255 69.934 16.5951C69.7763 16.1647 69.5441 15.828 69.2373 15.5851C68.9304 15.3422 68.5533 15.2208 68.1059 15.2208C67.6627 15.2208 67.2877 15.338 66.9809 15.5723C66.6783 15.8067 66.4461 16.1391 66.2841 16.5695C66.1222 16.9999 66.0412 17.507 66.0412 18.0908ZM74.7664 22.9999V13.1817H77.4894V22.9999H74.7664ZM76.1343 11.9161C75.7294 11.9161 75.3821 11.7819 75.0924 11.5134C74.8069 11.2407 74.6641 10.9147 74.6641 10.5354C74.6641 10.1604 74.8069 9.83869 75.0924 9.57022C75.3821 9.2975 75.7294 9.16113 76.1343 9.16113C76.5391 9.16113 76.8843 9.2975 77.1698 9.57022C77.4596 9.83869 77.6044 10.1604 77.6044 10.5354C77.6044 10.9147 77.4596 11.2407 77.1698 11.5134C76.8843 11.7819 76.5391 11.9161 76.1343 11.9161ZM84.893 13.1817V15.2272H78.9803V13.1817H84.893ZM80.3227 10.8294H83.0457V19.9829C83.0457 20.2343 83.084 20.4303 83.1607 20.5709C83.2374 20.7073 83.344 20.8032 83.4803 20.8586C83.621 20.914 83.7829 20.9417 83.9661 20.9417C84.094 20.9417 84.2218 20.931 84.3497 20.9097C84.4775 20.8841 84.5755 20.865 84.6437 20.8522L85.072 22.8785C84.9356 22.9211 84.7438 22.9701 84.4967 23.0255C84.2495 23.0851 83.9491 23.1214 83.5954 23.1341C82.9391 23.1597 82.3639 23.0723 81.8695 22.8721C81.3795 22.6718 80.9981 22.3607 80.7254 21.9388C80.4526 21.5169 80.3184 20.9843 80.3227 20.3408V10.8294ZM91.0357 23.1917C90.0258 23.1917 89.1565 22.9871 88.4278 22.578C87.7033 22.1647 87.1451 21.5809 86.7531 20.8266C86.361 20.0681 86.165 19.1711 86.165 18.1356C86.165 17.1256 86.361 16.2392 86.7531 15.4765C87.1451 14.7137 87.697 14.1192 88.4086 13.6931C89.1245 13.2669 89.964 13.0539 90.9271 13.0539C91.5748 13.0539 92.1778 13.1583 92.736 13.3671C93.2985 13.5716 93.7886 13.8806 94.2062 14.2939C94.6281 14.7073 94.9562 15.2272 95.1906 15.8536C95.4249 16.4758 95.5421 17.2044 95.5421 18.0397V18.7875H87.2516V17.1H92.9789C92.9789 16.708 92.8937 16.3607 92.7232 16.0581C92.5528 15.7556 92.3163 15.5191 92.0137 15.3486C91.7154 15.1739 91.3681 15.0865 90.9718 15.0865C90.5585 15.0865 90.192 15.1824 89.8724 15.3742C89.557 15.5617 89.3099 15.8152 89.1309 16.1348C88.9519 16.4502 88.8603 16.8017 88.856 17.1895V18.7939C88.856 19.2797 88.9455 19.6995 89.1245 20.0532C89.3078 20.4069 89.5656 20.6796 89.8979 20.8714C90.2303 21.0631 90.6245 21.159 91.0805 21.159C91.383 21.159 91.66 21.1164 91.9114 21.0312C92.1629 20.9459 92.3781 20.8181 92.557 20.6476C92.736 20.4772 92.8724 20.2684 92.9661 20.0212L95.4846 20.1874C95.3568 20.7925 95.0947 21.3209 94.6984 21.7726C94.3063 22.2201 93.7992 22.5695 93.1771 22.8209C92.5592 23.0681 91.8454 23.1917 91.0357 23.1917ZM97.3191 22.9999V13.1817H99.959V14.8948H100.061C100.24 14.2854 100.541 13.8252 100.963 13.5141C101.384 13.1988 101.87 13.0411 102.42 13.0411C102.556 13.0411 102.703 13.0496 102.861 13.0667C103.019 13.0837 103.157 13.1071 103.277 13.137V15.5532C103.149 15.5148 102.972 15.4807 102.746 15.4509C102.52 15.4211 102.313 15.4062 102.126 15.4062C101.725 15.4062 101.367 15.4935 101.052 15.6682C100.741 15.8387 100.494 16.0773 100.311 16.3841C100.132 16.691 100.042 17.0446 100.042 17.4452V22.9999H97.3191Z" fill="#718CAB"/>
</g>
<defs>
<clipPath id="clip0_91_8919">
<rect width="104" height="32" fill="white" transform="translate(0.541016)"/>
</clipPath>
</defs>
</svg>
