<svg width="186" height="40" viewBox="0 0 186 40" fill="none" xmlns="http://www.w3.org/2000/svg">
<path fill-rule="evenodd" clip-rule="evenodd" d="M55.6492 28L53.2091 23.6725H49.6422V28H47.541V15.0002H53.87C54.641 14.9916 55.4035 15.208 56.0643 15.6148C56.7252 16.0215 57.2674 16.6014 57.6318 17.3025C57.9961 18.0035 58.1571 18.7911 58.1147 19.5787C58.0723 20.3663 57.8181 21.1366 57.3776 21.7857C56.9201 22.4781 56.2762 23.0147 55.5221 23.335L58.1147 28H55.6492ZM53.8615 17.2073H49.6422V21.5261H53.87C54.1496 21.5261 54.4207 21.4655 54.6749 21.353C54.929 21.2405 55.1578 21.076 55.3442 20.8683C55.6322 20.5654 55.8356 20.1846 55.9118 19.7605C55.9881 19.345 55.9457 18.9123 55.7932 18.5142C55.6322 18.1247 55.3696 17.7871 55.0222 17.5448C54.6749 17.3025 54.2766 17.1726 53.8615 17.1726V17.2073ZM76.3644 15.0002L70.0185 28H72.3739L76.356 19.8557L80.3296 28H82.6849L76.3644 15.0002ZM103.07 15.0002H100.384L96.7747 19.7951L93.1823 15.0002H90.4881L95.7749 21.9329V28H97.8761V21.829L103.07 15.0002ZM113.838 15.0002H118.049C119.727 15.0089 121.328 15.7013 122.506 16.9217C123.692 18.1333 124.361 19.7864 124.37 21.5001C124.361 23.2225 123.692 24.8669 122.506 26.0873C121.319 27.3076 119.718 27.9913 118.041 28H113.83V15.0002H113.838ZM118.049 25.793C119.167 25.793 120.235 25.3343 121.023 24.5207C121.811 23.7071 122.26 22.608 122.26 21.4655C122.243 20.3231 121.802 19.2239 121.014 18.419C120.227 17.614 119.159 17.1467 118.049 17.138H115.923V25.793H118.049ZM138.425 15.0002H136.324V28H138.425V15.0002ZM160.911 22.5733C160.92 23.2917 160.793 24.0014 160.522 24.6592C160.259 25.317 159.861 25.9142 159.353 26.4075C158.615 27.1691 157.675 27.6798 156.65 27.8875C155.625 28.0952 154.566 27.9913 153.6 27.5759C152.634 27.1691 151.812 26.4681 151.236 25.5766C150.66 24.6852 150.355 23.6379 150.355 22.5647V15.0002H152.456V22.5647C152.456 23.4302 152.786 24.2524 153.388 24.8583C153.981 25.4641 154.786 25.8103 155.625 25.8103C156.463 25.8103 157.268 25.4641 157.861 24.8583C158.454 24.2524 158.785 23.4215 158.785 22.5647V15.0002H160.903V22.5733H160.911ZM174.95 28V20.2278L179.187 24.564L183.406 20.2278V28H185.541V15.0002L179.187 21.5001L172.858 15.0002V28H174.95Z" fill="#718CAB"/>
<path d="M32.8971 15.0942V28.8138L17.607 37.6243L2.31073 28.8138V11.1927L17.6132 2.3699L29.3638 9.14676L31.1397 8.12685L17.6132 0.330078L0.541016 10.1667V29.8337L17.6132 39.6703L34.6853 29.8337V14.0743L32.8971 15.0942Z" fill="#718CAB"/>
<path d="M13.4752 28.9072H10.9329V20.2507H19.4156C20.2159 20.2445 20.9853 19.9154 21.5517 19.3317C22.118 18.7542 22.432 17.9717 22.4381 17.1582C22.4443 16.7546 22.3642 16.3572 22.2103 15.9846C22.0564 15.612 21.8287 15.2767 21.5455 14.9972C21.2685 14.7116 20.9361 14.4818 20.5729 14.3266C20.2097 14.1713 19.8157 14.0906 19.4156 14.0968H10.9329V11.4639H19.4218C20.9053 11.4701 22.3335 12.0786 23.38 13.1405C24.4326 14.2086 25.0236 15.6493 25.0359 17.1582C25.042 18.3133 24.6973 19.4372 24.0448 20.3811C23.4415 21.2815 22.592 21.9895 21.6009 22.4117C20.616 22.7284 19.5941 22.8837 18.5661 22.8775H13.4752V28.9072Z" fill="#718CAB"/>
<path d="M25.036 28.5361H22.1034L19.8401 24.6174C20.7345 24.5633 21.6167 24.383 22.4624 24.0825L25.036 28.5361Z" fill="#718CAB"/>
<path d="M30.9741 12.3392L32.8298 13.3198L34.6855 12.3392V10.261L32.8298 9.2373L30.9741 10.261V12.3392Z" fill="#718CAB"/>
</svg>
