<svg width="67" height="52" viewBox="0 0 67 52" fill="none" xmlns="http://www.w3.org/2000/svg">
<g filter="url(#filter0_i_1289_2411)">
<rect width="66" height="52" rx="9.6" transform="matrix(-1 0 0 1 66.5 0)" fill="#F8F8F8"/>
</g>
<rect x="-0.4" y="0.4" width="65.2" height="51.2" rx="9.2" transform="matrix(-1 0 0 1 65.7 0)" stroke="black" stroke-width="0.8"/>
<path d="M20.1464 25.6464C19.9512 25.8417 19.9512 26.1583 20.1464 26.3536L23.3284 29.5355C23.5237 29.7308 23.8403 29.7308 24.0355 29.5355C24.2308 29.3403 24.2308 29.0237 24.0355 28.8284L21.2071 26L24.0355 23.1716C24.2308 22.9763 24.2308 22.6597 24.0355 22.4645C23.8403 22.2692 23.5237 22.2692 23.3284 22.4645L20.1464 25.6464ZM46.5 25.5L20.5 25.5V26.5L46.5 26.5V25.5Z" fill="black"/>
<defs>
<filter id="filter0_i_1289_2411" x="0.5" y="0" width="66" height="52" filterUnits="userSpaceOnUse" color-interpolation-filters="sRGB">
<feFlood flood-opacity="0" result="BackgroundImageFix"/>
<feBlend mode="normal" in="SourceGraphic" in2="BackgroundImageFix" result="shape"/>
<feColorMatrix in="SourceAlpha" type="matrix" values="0 0 0 0 0 0 0 0 0 0 0 0 0 0 0 0 0 0 127 0" result="hardAlpha"/>
<feOffset dy="-3.2"/>
<feComposite in2="hardAlpha" operator="arithmetic" k2="-1" k3="1"/>
<feColorMatrix type="matrix" values="0 0 0 0 0.770133 0 0 0 0 0.770058 0 0 0 0 0.76977 0 0 0 1 0"/>
<feBlend mode="normal" in2="shape" result="effect1_innerShadow_1289_2411"/>
</filter>
</defs>
</svg>
