<svg width="67" height="52" viewBox="0 0 67 52" fill="none" xmlns="http://www.w3.org/2000/svg">
<g filter="url(#filter0_i_1289_2408)">
<rect x="0.5" width="66" height="52" rx="9.6" fill="#F8F8F8"/>
</g>
<rect x="0.9" y="0.4" width="65.2" height="51.2" rx="9.2" stroke="black" stroke-width="0.8"/>
<path d="M46.8536 25.6464C47.0488 25.8417 47.0488 26.1583 46.8536 26.3536L43.6716 29.5355C43.4763 29.7308 43.1597 29.7308 42.9645 29.5355C42.7692 29.3403 42.7692 29.0237 42.9645 28.8284L45.7929 26L42.9645 23.1716C42.7692 22.9763 42.7692 22.6597 42.9645 22.4645C43.1597 22.2692 43.4763 22.2692 43.6716 22.4645L46.8536 25.6464ZM20.5 25.5L46.5 25.5V26.5L20.5 26.5V25.5Z" fill="black"/>
<defs>
<filter id="filter0_i_1289_2408" x="0.5" y="0" width="66" height="52" filterUnits="userSpaceOnUse" color-interpolation-filters="sRGB">
<feFlood flood-opacity="0" result="BackgroundImageFix"/>
<feBlend mode="normal" in="SourceGraphic" in2="BackgroundImageFix" result="shape"/>
<feColorMatrix in="SourceAlpha" type="matrix" values="0 0 0 0 0 0 0 0 0 0 0 0 0 0 0 0 0 0 127 0" result="hardAlpha"/>
<feOffset dy="-3.2"/>
<feComposite in2="hardAlpha" operator="arithmetic" k2="-1" k3="1"/>
<feColorMatrix type="matrix" values="0 0 0 0 0.770133 0 0 0 0 0.770058 0 0 0 0 0.76977 0 0 0 1 0"/>
<feBlend mode="normal" in2="shape" result="effect1_innerShadow_1289_2408"/>
</filter>
</defs>
</svg>
