<svg width="210" height="154" viewBox="0 0 210 154" fill="none" xmlns="http://www.w3.org/2000/svg">
<path d="M197.58 104.782C197.114 98.2802 115.893 104.389 115.893 104.389L126.167 135.357C126.167 135.357 198.999 124.558 197.58 104.782Z" fill="#040404" stroke="#040404" stroke-width="2" stroke-linecap="round" stroke-linejoin="round"/>
<path d="M175.498 132.375C175.498 132.375 141.267 149.77 134.131 148.196C115.871 144.168 66.1044 118.646 66.1044 118.646C66.1044 118.646 56.4929 105.984 40.2734 108.945C40.7084 108.189 66.5601 74.6011 82.1892 49.7727C96.2129 27.4602 110.547 5.81037 114.742 3.46005C123.66 -1.58226 149.159 40.5992 149.159 40.5992C149.159 40.5992 159.164 28.0297 168.475 31.6224C173.913 33.7346 175.394 67.5605 175.684 95.4537C175.891 115.437 175.498 132.375 175.498 132.375Z" fill="#39805B"/>
<path d="M175.695 95.464C104.24 129.176 82.4484 50.6941 82.1895 49.783C96.2132 27.4602 110.548 5.81037 114.742 3.46005C123.66 -1.58226 149.159 40.5992 149.159 40.5992C149.159 40.5992 159.165 28.0297 168.476 31.6224C173.913 33.7346 175.394 67.5605 175.684 95.4537L175.695 95.464Z" fill="#469C6E"/>
<path d="M117.054 15.636C125.972 10.9354 147.059 42.6284 147.059 42.6284C147.059 42.6284 147.815 41.8001 149.089 40.4748C147.546 37.9382 123.383 -1.41668 114.745 3.45996C105.827 8.49192 40.2656 108.965 40.2656 108.965C42.9999 108.468 45.5375 108.417 47.8782 108.665C61.1355 87.4708 109.721 19.498 117.054 15.636Z" fill="white"/>
<path d="M40.2643 108.965C40.2643 108.965 105.826 8.49192 114.743 3.44961C123.661 -1.58234 149.16 40.5991 149.16 40.5991C149.16 40.5991 159.155 28.0192 168.477 31.6327C177.798 35.2462 175.489 132.375 175.489 132.375C175.489 132.375 141.258 149.77 134.132 148.206C115.862 144.179 66.1056 118.656 66.1056 118.656C66.1056 118.656 56.4734 105.994 40.2539 108.955L40.2643 108.965Z" stroke="#040404" stroke-width="6" stroke-linecap="round" stroke-linejoin="round"/>
<path d="M149.171 40.5991C149.171 40.5991 141.144 51.8641 126.25 43.55" stroke="#040404" stroke-width="6" stroke-linecap="round" stroke-linejoin="round"/>
<path d="M148.457 39.4501C148.457 39.4501 147.214 39.5743 143.309 38.7046C139.208 37.7935 135.034 31.9229 131.699 35.7538C128.177 39.8125 131.595 44.1404 138.441 45.652C144.128 46.9048 148.861 41.4794 148.457 39.4501Z" fill="#040404"/>
<path d="M156.918 126.629C156.918 126.629 162.356 82.1904 192.371 47.3291C192.371 47.3291 195.499 57.8796 196.421 64.0402C197.342 70.2007 191.532 78.6494 191.532 78.6494C191.532 78.6494 196.576 82.4803 194.898 88.3406C193.22 94.1905 169.543 107.319 164.893 122.601L156.918 126.619V126.629Z" fill="white"/>
<path d="M156.918 126.629C156.918 126.629 162.356 82.1904 192.371 47.3291C192.371 47.3291 195.499 57.8796 196.421 64.0402C197.342 70.2007 191.532 78.6494 191.532 78.6494C191.532 78.6494 196.576 82.4803 194.898 88.3406C193.22 94.1905 169.543 107.319 164.893 122.601L156.918 126.619V126.629Z" stroke="#040404" stroke-width="4" stroke-linecap="round" stroke-linejoin="round"/>
<path d="M191.533 78.6597C191.533 78.6597 187.773 83.4742 184.873 84.4267" stroke="#040404" stroke-width="2" stroke-linecap="round" stroke-linejoin="round"/>
<path d="M203.185 128.927C203.185 128.927 201.507 129.031 198.286 129.58C193.5 130.429 169.047 136.434 157.758 140.534C142.967 145.908 137.478 149.739 131.026 149.2C130.342 149.159 129.648 149.045 128.923 148.89H128.871C127.722 148.62 126.52 148.237 125.205 147.689C115.262 143.63 66.3963 119.247 53.2012 104.72C53.9262 105.062 69.7313 112.579 87.4112 119.226C87.4112 119.226 87.4319 119.226 87.463 119.257C100.534 124.154 114.64 128.575 124.397 129.207C125.391 129.269 126.365 129.311 127.359 129.331C149.679 129.756 188.374 114.453 197.602 104.793C197.602 104.793 214.215 119.04 203.205 128.938L203.185 128.927Z" fill="#39805B"/>
<path d="M131.026 149.2C131.026 149.2 130.28 149.076 128.923 148.89H128.871C127.722 148.62 126.52 148.237 125.205 147.689C115.262 143.63 66.3963 119.247 53.2012 104.72C53.9262 105.062 69.7313 112.579 87.4112 119.226C87.4112 119.226 87.4319 119.226 87.463 119.257C100.534 124.154 114.64 128.575 124.397 129.207C125.391 129.269 126.365 129.311 127.359 129.331C127.359 129.331 145.899 144.5 131.036 149.211L131.026 149.2Z" fill="#469C6E"/>
<path d="M203.193 128.928C203.193 128.928 201.516 129.032 198.294 129.58C204.001 118.668 197.601 110.809 197.601 110.809C193.717 115.945 153.013 136.114 132.35 134.861C112.257 133.65 88.6837 119.983 87.4512 119.258C100.522 124.155 114.629 128.576 124.385 129.208C147.668 130.74 187.958 114.878 197.59 104.793C197.59 104.793 214.203 119.04 203.193 128.939V128.928Z" fill="white"/>
<path d="M53.1699 104.689C53.1699 104.689 101.124 127.675 124.397 129.197C147.669 130.719 187.959 114.857 197.591 104.783C197.591 104.783 214.204 119.019 203.195 128.917C203.195 128.917 176.659 133.649 157.757 140.524C138.855 147.399 135.148 151.748 125.205 147.689C115.262 143.63 66.3133 119.206 53.1699 104.7V104.689Z" stroke="#040404" stroke-width="5" stroke-linecap="round" stroke-linejoin="round"/>
<path d="M136.679 148.558C136.679 148.558 116.638 149.915 70.0925 113.2C52.1951 99.0877 40.4914 64.6199 29.1917 60.7993C3.29855 52.0297 -7.80442 83.4017 12.6304 109.462H34.8882C41.1232 114.246 85.3073 165.456 136.69 148.569L136.679 148.558Z" fill="#39805B"/>
<path d="M25.5132 64.5373C36.8129 68.3682 48.9931 102.225 66.414 116.938C111.354 154.895 132.825 149.501 136.108 148.734C136.294 148.672 136.491 148.621 136.678 148.558C136.678 148.558 116.636 149.915 70.0908 113.2C52.1935 99.0879 40.4898 64.6201 29.19 60.7995C18.957 57.331 11.0545 60.1472 6.47656 66.4113C11.1477 62.9324 17.6417 61.866 25.5132 64.5373Z" fill="white"/>
<path d="M136.679 148.558C136.679 148.558 116.638 149.915 70.0925 113.2C52.1951 99.0877 40.4914 64.6199 29.1917 60.7993C3.29855 52.0297 -7.80442 83.4017 12.6304 109.462H34.8882C41.1232 114.246 85.3073 165.456 136.69 148.569L136.679 148.558Z" stroke="#040404" stroke-width="4" stroke-linecap="round" stroke-linejoin="round"/>
<path d="M14.6907 101.014C14.6907 101.014 8.47632 88.2371 14.991 86.9842C21.5057 85.7211 19.6 98.1767 34.8873 109.462" stroke="#040404" stroke-width="4" stroke-linecap="round" stroke-linejoin="round"/>
</svg>
