<svg width="32" height="33" viewBox="0 0 32 33" fill="none" xmlns="http://www.w3.org/2000/svg">
<path d="M12.8508 20.1481L13.091 20.4119L13.0674 20.5112L12.6885 20.486L12.2806 26.6353L12.2453 27.1684H12.7795C13.1655 27.1684 13.4706 27.0763 13.7341 26.9176C13.9572 26.7833 14.1395 26.6049 14.2867 26.4609C14.2996 26.4482 14.3123 26.4358 14.3247 26.4237L14.3261 26.4224L16.8925 23.9045L22.5232 28.1007L22.55 28.1207L22.5792 28.1369C23.1874 28.4748 23.8409 28.6316 24.4224 28.3675C25.0054 28.1028 25.3277 27.5008 25.4782 26.7727C25.4783 26.7726 25.4783 26.7724 25.4784 26.7722L29.3979 8.13525C29.6203 7.2267 29.4772 6.43089 28.9714 5.93757C28.4592 5.43806 27.7155 5.38574 27.0513 5.68354L4.03275 14.6391L4.03273 14.6391L4.02625 14.6417C3.60045 14.8143 3.25068 15.0155 2.99383 15.2446C2.73995 15.4711 2.53937 15.7602 2.50504 16.1044C2.4689 16.4669 2.62743 16.7782 2.86693 17.0067C3.09764 17.2268 3.41577 17.3866 3.77674 17.4985C3.77709 17.4986 3.77745 17.4987 3.7778 17.4988L9.68853 19.3591L9.91068 19.4291L10.1071 19.304L22.3061 11.5385L12.8508 20.1481Z" fill="white" stroke="black"/>
</svg>
