<svg width="32" height="33" viewBox="0 0 32 33" fill="none" xmlns="http://www.w3.org/2000/svg">
<g clip-path="url(#clip0_1162_277)">
<path d="M28.2033 9.99984C27.305 10.4082 26.3366 10.6765 25.3333 10.8048C26.36 10.1865 27.1533 9.2065 27.5266 8.02817C26.5583 8.6115 25.485 9.01984 24.3533 9.25317C23.4316 8.24984 22.1366 7.6665 20.6666 7.6665C17.925 7.6665 15.685 9.9065 15.685 12.6715C15.685 13.0682 15.7316 13.4532 15.8133 13.8148C11.66 13.6048 7.96163 11.6098 5.49996 8.58817C5.0683 9.32317 4.8233 10.1865 4.8233 11.0965C4.8233 12.8348 5.6983 14.3748 7.05163 15.2498C6.2233 15.2498 5.4533 15.0165 4.77663 14.6665V14.7015C4.77663 17.1282 6.5033 19.1582 8.78996 19.6132C8.05594 19.8149 7.28501 19.8429 6.5383 19.6948C6.85517 20.6894 7.47576 21.5596 8.31282 22.1833C9.14988 22.8069 10.1613 23.1525 11.205 23.1715C9.43591 24.5721 7.24298 25.3291 4.98663 25.3182C4.58996 25.3182 4.1933 25.2948 3.79663 25.2482C6.0133 26.6715 8.64996 27.4998 11.4733 27.4998C20.6666 27.4998 25.7183 19.8698 25.7183 13.2548C25.7183 13.0332 25.7183 12.8232 25.7066 12.6015C26.6866 11.9015 27.5266 11.0148 28.2033 9.99984Z" fill="white"/>
<path fill-rule="evenodd" clip-rule="evenodd" d="M30.9784 7.64028L29.0354 10.5548C28.3959 11.5141 27.6188 12.3745 26.7182 13.091C26.7183 13.1433 26.7183 13.1946 26.7183 13.2449V13.2551C26.7183 20.3009 21.3331 28.5001 11.4733 28.5001C8.45179 28.5001 5.62855 27.6131 3.25635 26.0899L3.9135 24.2553C4.27165 24.2975 4.62931 24.3185 4.98666 24.3185H4.99152C6.25893 24.3246 7.5041 24.0614 8.64804 23.556C8.32206 23.3954 8.00976 23.2048 7.71541 22.9855C6.71072 22.237 5.96585 21.1925 5.58552 19.9987L5.09563 18.4611C4.27035 17.431 3.77666 16.123 3.77666 14.7018V13.0237L4.21845 13.2522C3.96242 12.5819 3.82332 11.8541 3.82332 11.0968C3.82332 10.0069 4.11679 8.96902 4.63771 8.08206L5.36643 6.84127L6.27528 7.95687C8.32891 10.4777 11.3071 12.2291 14.6851 12.7041C14.685 12.6933 14.685 12.6826 14.685 12.6718C14.685 9.35757 17.3697 6.66681 20.6667 6.66681C22.1983 6.66681 23.5899 7.20382 24.6607 8.15488C25.4992 7.93468 26.29 7.60604 27.0106 7.1719L29.2802 5.80469L28.48 8.33052C28.4221 8.51319 28.3558 8.69185 28.2817 8.86608L30.9784 7.64028ZM15.6868 12.8063C15.6856 12.7616 15.685 12.7168 15.685 12.6718C15.685 9.90681 17.925 7.66681 20.6667 7.66681C22.1367 7.66681 23.4317 8.25015 24.3533 9.25348C24.9493 9.13059 25.5291 8.95917 26.086 8.7392C26.5864 8.5415 27.0683 8.3046 27.5267 8.02848C27.3606 8.55246 27.1116 9.03723 26.7959 9.46841C26.7745 9.49761 26.7528 9.52656 26.7308 9.55526C26.3474 10.0559 25.8725 10.4804 25.3333 10.8051C25.718 10.7559 26.0975 10.6862 26.4699 10.5958C26.785 10.5194 27.095 10.4282 27.3987 10.3223C27.6723 10.2269 27.9408 10.1195 28.2033 10.0001C27.8459 10.5363 27.4429 11.0366 26.9978 11.4925C26.6002 11.8998 26.169 12.2716 25.7067 12.6018C25.7183 12.8235 25.7183 13.0335 25.7183 13.2551C25.7183 19.8701 20.6667 27.5001 11.4733 27.5001C9.4375 27.5001 7.49874 27.0695 5.74452 26.2956C5.48786 26.1823 5.23514 26.0618 4.98666 25.9341C4.98566 25.9336 4.98467 25.9331 4.98367 25.9326C4.57624 25.7232 4.18016 25.4947 3.79666 25.2485C4.19332 25.2951 4.58999 25.3185 4.98666 25.3185C5.30035 25.32 5.61281 25.3067 5.92309 25.2789C7.34164 25.1516 8.71432 24.7211 9.94857 24.0192C10.3861 23.7704 10.8063 23.4874 11.205 23.1718C10.7251 23.1631 10.252 23.0853 9.79958 22.9431C9.26806 22.7762 8.76501 22.5204 8.31284 22.1836C7.79452 21.7974 7.35921 21.3167 7.02761 20.7705C6.83896 20.4597 6.68388 20.1278 6.56618 19.7799C6.55665 19.7518 6.54736 19.7235 6.53832 19.6951C6.90227 19.7673 7.27197 19.7977 7.64035 19.7864C8.02777 19.7747 8.41373 19.7169 8.78999 19.6135C8.05557 19.4673 7.37892 19.1587 6.79868 18.7267C5.85924 18.0272 5.17255 17.0042 4.90265 15.8233C4.82022 15.4626 4.77666 15.0872 4.77666 14.7018V14.6668C4.79947 14.6786 4.82239 14.6903 4.84542 14.7018C4.93497 14.7467 5.0261 14.7894 5.11874 14.8299C5.33575 14.9246 5.56102 15.0065 5.79354 15.0722C6.19322 15.1851 6.61431 15.2501 7.05166 15.2501C6.54304 14.9213 6.10199 14.4985 5.74955 14.0066C5.16422 13.1896 4.82332 12.1818 4.82332 11.0968C4.82332 10.5798 4.90241 10.0779 5.04987 9.60595C5.16197 9.24725 5.31357 8.9059 5.49999 8.58848C5.72501 8.86468 5.96035 9.13231 6.20543 9.39077C8.41617 11.7222 11.4191 13.3086 14.776 13.7248C15.1182 13.7672 15.4642 13.7975 15.8133 13.8151C15.7409 13.4945 15.696 13.1555 15.6868 12.8063Z" fill="black"/>
</g>
<defs>
<clipPath id="clip0_1162_277">
<rect width="28" height="28" fill="white" transform="translate(2 3)"/>
</clipPath>
</defs>
</svg>
