<svg width="64" height="64" viewBox="0 0 64 64" fill="none" xmlns="http://www.w3.org/2000/svg">
<g filter="url(#filter0_d_91_10240)">
<path d="M50.6667 8H13.3333C10.4 8 8 10.4 8 13.3333V50.6667C8 53.6 10.4 56 13.3333 56H50.6667C53.6 56 56 53.6 56 50.6667V13.3333C56 10.4 53.6 8 50.6667 8ZM24 45.3333H18.6667V26.6667H24V45.3333ZM34.6667 45.3333H29.3333V18.6667H34.6667V45.3333ZM45.3333 45.3333H40V34.6667H45.3333V45.3333Z" fill="#57BB7A"/>
<path d="M24 46.3333H25V45.3333V26.6667V25.6667H24H18.6667H17.6667V26.6667V45.3333V46.3333H18.6667H24ZM34.6667 46.3333H35.6667V45.3333V18.6667V17.6667H34.6667H29.3333H28.3333V18.6667V45.3333V46.3333H29.3333H34.6667ZM45.3333 46.3333H46.3333V45.3333V34.6667V33.6667H45.3333H40H39V34.6667V45.3333V46.3333H40H45.3333ZM13.3333 9H50.6667C53.0477 9 55 10.9523 55 13.3333V50.6667C55 53.0477 53.0477 55 50.6667 55H13.3333C10.9523 55 9 53.0477 9 50.6667V13.3333C9 10.9523 10.9523 9 13.3333 9Z" stroke="#13612E" stroke-width="2"/>
</g>
<defs>
<filter id="filter0_d_91_10240" x="8" y="8" width="50" height="50" filterUnits="userSpaceOnUse" color-interpolation-filters="sRGB">
<feFlood flood-opacity="0" result="BackgroundImageFix"/>
<feColorMatrix in="SourceAlpha" type="matrix" values="0 0 0 0 0 0 0 0 0 0 0 0 0 0 0 0 0 0 127 0" result="hardAlpha"/>
<feOffset dx="2" dy="2"/>
<feComposite in2="hardAlpha" operator="out"/>
<feColorMatrix type="matrix" values="0 0 0 0 0.0745098 0 0 0 0 0.380392 0 0 0 0 0.180392 0 0 0 0.25 0"/>
<feBlend mode="normal" in2="BackgroundImageFix" result="effect1_dropShadow_91_10240"/>
<feBlend mode="normal" in="SourceGraphic" in2="effect1_dropShadow_91_10240" result="shape"/>
</filter>
</defs>
</svg>
