<svg width="62" height="62" viewBox="0 0 62 62" fill="none" xmlns="http://www.w3.org/2000/svg">
<g filter="url(#filter0_d_91_10238)">
<path fill-rule="evenodd" clip-rule="evenodd" d="M22.3201 12.2374C25.0411 10.9808 28.0029 10.3312 31.0001 10.3334C34.6315 10.3328 38.1989 11.2891 41.3431 13.1059C44.4874 14.9226 47.0974 17.5358 48.9104 20.6823H47.0038C45.3247 20.6823 43.9633 21.3281 43.9633 23.0073C43.9633 23.8598 43.9633 28.2773 38.7294 28.1946C33.6351 28.1946 33.6351 23.7203 33.6351 23.0073C33.6351 19.3157 31.602 18.7448 29.1091 18.0395C28.1429 17.7683 27.1096 17.4764 26.0969 16.9778C23.5033 15.6939 22.6146 13.9217 22.3201 12.2374ZM15.5001 10.3334C12.4987 12.5934 10.0208 15.4749 8.23577 18.7809C6.21598 22.5367 5.16137 26.7357 5.16677 31.0001C5.16677 44.6634 15.7739 55.8492 29.2021 56.7714L29.3416 56.7818C30.335 56.8453 31.3312 56.8513 32.3253 56.7999H32.3305C33.6327 56.7343 34.9281 56.5702 36.2055 56.309C38.2214 55.8945 40.1805 55.2406 42.0413 54.3612C47.8793 51.5921 52.4735 46.7437 54.9243 40.7651C56.1939 37.6665 56.8425 34.3487 56.8334 31.0001C56.8356 28.8216 56.5622 26.6516 56.0197 24.5418C54.5876 18.9954 51.3527 14.0823 46.8237 10.575C42.2947 7.06779 36.7284 5.16532 31.0001 5.16677C25.4093 5.15929 19.9682 6.97298 15.5001 10.3334ZM50.0444 39.042C49.4162 38.8514 48.7634 38.7539 48.1069 38.7527H47.5464C45.2139 38.7527 42.9769 39.6791 41.3274 41.3281C39.6778 42.9772 38.7508 45.2139 38.7501 47.5464V50.1659C43.8396 48.0988 47.9013 44.0999 50.0444 39.042ZM31.2946 51.6668H31.0001C27.3595 51.6672 23.7833 50.7059 20.6336 48.8801C17.4839 47.0544 14.8723 44.429 13.0632 41.2697C11.2542 38.1103 10.3118 34.5292 10.3314 30.8886C10.351 27.248 11.332 23.6772 13.1751 20.5376C15.6293 21.9352 16.846 24.5082 17.9155 26.7764C18.4554 27.9156 18.9566 28.9799 19.5611 29.7782C20.9561 31.6175 22.3072 32.4106 23.6712 33.2089C25.0145 33.9968 26.3759 34.7924 27.8045 36.6085C31.5245 41.3231 31.4703 47.8874 31.292 51.6642L31.2946 51.6668Z" fill="#BF8DFF"/>
<path d="M40.8428 13.9717C43.3201 15.4031 45.4489 17.354 47.0872 19.6823H47.0038C46.0611 19.6823 45.0749 19.8595 44.2945 20.3862C43.4562 20.9519 42.9633 21.8508 42.9633 23.0073C42.9633 23.4253 42.9535 24.5142 42.4309 25.4731C42.18 25.9336 41.8138 26.3572 41.2633 26.6682C40.7101 26.9807 39.9112 27.2131 38.7452 27.1947L38.7373 27.1946H38.7294C37.6056 27.1946 36.8351 26.9493 36.2994 26.6273C35.7641 26.3055 35.4041 25.8717 35.1565 25.4019C34.6428 24.4278 34.6351 23.3483 34.6351 23.0073C34.6351 20.9609 34.0601 19.5751 32.9521 18.6395C31.9667 17.8074 30.6549 17.4369 29.4948 17.1094C29.4568 17.0986 29.419 17.0879 29.3813 17.0773L29.3794 17.0767C28.405 16.8032 27.4578 16.533 26.54 16.0813C24.6651 15.153 23.8524 13.9839 23.4863 12.8189C25.8667 11.8372 28.4192 11.3315 30.9993 11.3334H31.0003C34.4559 11.3329 37.8507 12.2428 40.8428 13.9717ZM14.899 9.53424L14.8986 9.53458C11.7821 11.8812 9.20924 14.8731 7.35583 18.3058L7.35505 18.3073C5.25686 22.2089 4.16126 26.5708 4.16677 31.0007C4.1671 45.1921 15.1835 56.8097 29.1311 57.7689C29.1319 57.769 29.1328 57.769 29.1336 57.7691L29.2678 57.779L29.2677 57.7791L29.2778 57.7797C30.301 57.8451 31.327 57.8519 32.3509 57.7999H32.3557L32.3808 57.7986C33.7334 57.7305 35.0789 57.56 36.4058 57.2888L36.4069 57.2885C38.5009 56.858 40.5358 56.1788 42.4686 55.2653L42.4698 55.2647C48.5329 52.3889 53.3042 47.3535 55.8496 41.1444L55.8497 41.1442C57.1686 37.9251 57.8426 34.4783 57.8334 30.9994C57.8355 28.7372 57.5515 26.4837 56.9882 24.2928L56.9879 24.2918C55.5004 18.5307 52.1403 13.4274 47.436 9.7844C42.7318 6.14154 36.9504 4.16544 31.0006 4.16677C25.1929 4.15917 19.5406 6.04334 14.899 9.53424ZM11.3314 30.894C11.3482 27.786 12.1012 24.7314 13.5224 21.9786C15.1251 23.2592 16.0707 25.2086 17.011 27.2028L17.0119 27.2046C17.0278 27.2383 17.0439 27.2721 17.0599 27.306C17.5705 28.3839 18.1044 29.511 18.7639 30.3819L18.7643 30.3825C20.2827 32.3845 21.7776 33.2593 23.161 34.0689L23.1653 34.0714C24.4903 34.8486 25.7125 35.5665 27.0185 37.2268L27.0195 37.228C30.2046 41.2646 30.4516 46.8331 30.3314 50.6555C27.0988 50.5459 23.9394 49.6405 21.1351 48.015C18.1378 46.2776 15.6526 43.7792 13.931 40.7728C12.2095 37.7663 11.3127 34.3584 11.3314 30.894ZM47.5464 39.7527H48.105C48.2723 39.753 48.4393 39.7607 48.6055 39.7756C46.6904 43.6074 43.5805 46.71 39.7501 48.6182V47.5466C39.7501 47.5466 39.7501 47.5465 39.7501 47.5464C39.7508 45.4792 40.5724 43.4969 42.0344 42.0353C43.4964 40.5738 45.4791 39.7527 47.5464 39.7527Z" stroke="#7F50BB" stroke-width="2"/>
</g>
<defs>
<filter id="filter0_d_91_10238" x="3.16675" y="3.16675" width="57.6667" height="57.6677" filterUnits="userSpaceOnUse" color-interpolation-filters="sRGB">
<feFlood flood-opacity="0" result="BackgroundImageFix"/>
<feColorMatrix in="SourceAlpha" type="matrix" values="0 0 0 0 0 0 0 0 0 0 0 0 0 0 0 0 0 0 127 0" result="hardAlpha"/>
<feOffset dx="2" dy="2"/>
<feComposite in2="hardAlpha" operator="out"/>
<feColorMatrix type="matrix" values="0 0 0 0 0.498039 0 0 0 0 0.313726 0 0 0 0 0.733333 0 0 0 0.25 0"/>
<feBlend mode="normal" in2="BackgroundImageFix" result="effect1_dropShadow_91_10238"/>
<feBlend mode="normal" in="SourceGraphic" in2="effect1_dropShadow_91_10238" result="shape"/>
</filter>
</defs>
</svg>
