<svg width="231" height="93" viewBox="0 0 231 93" fill="none" xmlns="http://www.w3.org/2000/svg">
<path d="M134.857 57.1769V29H140.789V57.1769H134.857Z" fill="#FFAE43"/>
<path d="M69.414 65.3334H57V37.1565H68.9107C74.706 37.1565 78.0764 40.2442 78.0764 45.077C78.0764 48.2095 75.9108 50.2232 74.4162 50.8944C76.2006 51.685 78.5034 53.46 78.5034 57.2338C78.5034 62.4844 74.706 65.3334 69.414 65.3334ZM68.4685 42.064H62.8105V48.5525H68.4685C70.9238 48.5525 72.2964 47.2399 72.2964 45.3008C72.2964 43.3617 70.9238 42.064 68.4685 42.064ZM68.8345 53.4898H62.7952V60.411H68.8345C71.4576 60.411 72.7082 58.8299 72.7082 56.9206C72.7082 55.0113 71.4576 53.4898 68.8345 53.4898Z" fill="black"/>
<path d="M95.3201 53.7732V65.3334H89.8921V53.7732L81.4692 37.1565H87.4012L92.6277 48.5078L97.7822 37.1565H103.714L95.3201 53.7732Z" fill="black"/>
<path d="M120.149 65.3334H108.163V37.1565H119.663C125.259 37.1565 128.513 40.2442 128.513 45.077C128.513 48.2095 126.422 50.2232 124.979 50.8944C126.702 51.685 128.925 53.46 128.925 57.2338C128.91 62.4844 125.259 65.3334 120.149 65.3334ZM119.221 42.064H113.758V48.5525H119.221C121.592 48.5525 122.917 47.2399 122.917 45.3008C122.917 43.3617 121.592 42.064 119.221 42.064ZM119.575 53.4898H113.744V60.411H119.575C122.107 60.411 123.315 58.8299 123.315 56.9206C123.315 55.0113 122.122 53.4898 119.575 53.4898Z" fill="black"/>
<path d="M158.709 42.064V65.3334H153.256V42.064H145.979V37.1565H166V42.064H158.709Z" fill="black"/>
<g opacity="0.4" clip-path="url(#clip0_2006_5)">
<mask id="mask0_2006_5" style="mask-type:luminance" maskUnits="userSpaceOnUse" x="0" y="74" width="61" height="19">
<path d="M0 74H61V93H0V74Z" fill="white"/>
</mask>
<g mask="url(#mask0_2006_5)">
<path d="M23.9098 83.5439C24.3688 83.2826 24.736 82.9573 25.0036 82.5737C25.3078 82.1401 25.4688 81.6218 25.4638 81.0917C25.4638 80.0693 25.0824 79.2707 24.3309 78.7191C23.5882 78.1728 22.5666 77.8967 21.2933 77.8967H16.6893V89.7426H21.4775C22.8183 89.7426 23.892 89.4303 24.6684 88.8134C25.4508 88.1912 25.8482 87.3201 25.8482 86.2235C25.8482 85.5555 25.661 84.9814 25.2932 84.5164C24.9634 84.1008 24.4985 83.7743 23.9098 83.5439ZM19.1808 80.0319H21.0931C21.6931 80.0319 22.1455 80.1482 22.4399 80.378C22.7301 80.6036 22.8722 80.9017 22.8722 81.2864C22.8722 81.6724 22.7301 81.9847 22.4399 82.2121C22.1455 82.4413 21.6931 82.5577 21.0931 82.5577H19.1808V80.0319ZM22.781 87.2061C22.4493 87.4727 21.943 87.6075 21.2767 87.6075H19.1808V84.7088H21.2773C21.943 84.7088 22.4499 84.8394 22.7828 85.0948C23.1126 85.3501 23.2725 85.6867 23.2725 86.1255C23.2725 86.5874 23.112 86.9407 22.781 87.2061ZM29.215 80.8845H26.7063V89.742H29.2144L29.215 80.8845ZM53.9887 82.2174C53.5871 81.7401 53.0811 81.3622 52.5099 81.1131C51.926 80.8536 51.2692 80.7218 50.5591 80.7218C49.6885 80.7218 48.9032 80.9201 48.2239 81.3108C47.5522 81.6941 46.9973 82.2537 46.619 82.9294C46.2334 83.6122 46.0386 84.403 46.0386 85.2812C46.0386 86.1599 46.2281 87.0031 46.6012 87.696C46.9658 88.3806 47.5214 88.9439 48.2002 89.3169C48.8854 89.6963 49.6903 89.8887 50.5928 89.8887C51.7003 89.8887 52.6402 89.6096 53.3882 89.058C54.1077 88.5278 54.6023 87.7803 54.8723 86.8434H52.347C52.2144 87.1622 52.0272 87.4335 51.759 87.6247C51.4421 87.8504 51.0329 87.9644 50.5425 87.9644C50.1173 87.9644 49.7525 87.861 49.4587 87.6568C49.1644 87.4519 48.9393 87.1503 48.7913 86.7579C48.6967 86.5 48.6333 86.2317 48.6023 85.9587H54.9161L54.9286 85.8803C55.0411 85.166 55.0127 84.4891 54.8433 83.8687C54.6813 83.2624 54.3897 82.6988 53.9887 82.2169V82.2174ZM48.6426 84.3193C48.6809 84.1358 48.7334 83.9556 48.7996 83.7802C48.9535 83.3824 49.1756 83.0766 49.4605 82.8724C49.7442 82.6681 50.0971 82.5654 50.5093 82.5654C51.0264 82.5654 51.451 82.7334 51.7708 83.0641C52.0746 83.3788 52.2464 83.8087 52.2831 84.3187L48.6426 84.3193ZM29.2671 77.8967H26.6542V80.0319H29.2671V77.8967ZM43.0022 81.8897C42.7194 81.5436 42.366 81.2622 41.9658 81.0644C41.4979 80.837 40.9501 80.7218 40.3377 80.7218C39.5886 80.7218 38.9164 80.9076 38.3419 81.2722C37.7674 81.6374 37.3114 82.1527 36.9887 82.8035C36.6659 83.453 36.5024 84.2154 36.5024 85.0704C36.5024 85.9254 36.6742 86.6433 37.0141 87.297C37.3547 87.9531 37.8267 88.4756 38.4171 88.8508C39.0082 89.2267 39.6827 89.4179 40.4218 89.4179C40.9797 89.4179 41.4896 89.2967 41.9362 89.0574C42.2804 88.8756 42.5814 88.6215 42.8186 88.3123V89.2765C42.8186 89.8744 42.6623 90.3334 42.3543 90.6392C42.0451 90.945 41.5749 91.0994 40.9566 91.0994C40.4236 91.0994 40.0049 90.9782 39.7117 90.7389C39.4719 90.543 39.2622 90.2865 39.2137 89.7426H36.795C36.8175 90.5038 37.0402 91.0162 37.3553 91.4657C37.7076 91.9686 38.2039 92.3623 38.8317 92.6342C39.4523 92.9026 40.1737 93.0391 40.9732 93.0391C42.3164 93.0391 43.3854 92.7007 44.1505 92.0339C44.9204 91.3636 45.3101 90.4249 45.3101 89.2445V80.8845H43.0028L43.0022 81.8897ZM42.561 86.2472C42.4156 86.5611 42.1838 86.8269 41.8929 87.0132C41.6087 87.1913 41.2652 87.2827 40.8731 87.2827C40.3046 87.2827 39.8634 87.0886 39.5228 86.6902C39.1829 86.2929 39.0105 85.7479 39.0105 85.0698C39.0105 84.3918 39.1823 83.8467 39.5222 83.4495C39.8592 83.0564 40.3135 82.8569 40.8725 82.8569C41.4322 82.8569 41.9261 83.0588 42.2737 83.4584C42.6243 83.8615 42.802 84.409 42.802 85.0853C42.802 85.524 42.7209 85.9141 42.561 86.2466V86.2472ZM61.0013 83.0036V80.8851H59.1909V77.8967H56.6994V80.8851H55.153V83.0036H56.6994V86.4711C56.6994 88.399 57.0784 89.8157 59.439 89.7717L60.9214 89.742V87.7571H60.1858C59.1364 87.7571 59.195 87.1438 59.195 86.0044L59.1909 83.0042L61.0013 83.0036ZM35.893 83.0036V80.8851H34.0826V77.8967H31.591V80.8851H30.0441V83.0036H31.5899V86.4711C31.5899 88.399 31.9689 89.8157 34.3301 89.7717L35.8119 89.742V87.7571H35.0781C34.0287 87.7571 34.0867 87.1438 34.0867 86.0044L34.0826 83.0042L35.893 83.0036ZM6.25414 80.0319H10.0166L13.8655 83.8657C14.116 84.1151 14.1172 84.5212 13.8679 84.7718L8.93162 89.7456H5.05664L6.22867 88.6032L10.5307 84.3175L6.28316 80.0313" fill="#718CAB"/>
<path d="M7.79989 84.3075H4.03862L0.189105 80.4737C0.129534 80.4144 0.0822126 80.3439 0.0498478 80.2662C0.0174829 80.1886 0.000710511 80.1053 0.000490475 80.0211C0.000270439 79.937 0.0166071 79.8536 0.0485655 79.7758C0.0805238 79.6979 0.127476 79.6272 0.186736 79.5676L5.123 74.5938H8.99857L7.82713 75.7361L3.52456 80.0218L7.77265 84.3075" fill="#718CAB"/>
</g>
</g>
<g opacity="0.4" clip-path="url(#clip1_2006_5)">
<path d="M50.8886 8.43911L46.5244 1.3727C45.5719 -0.0989146 43.2261 -0.112172 42.3021 1.43899L37.7245 8.7838C36.8715 10.1361 37.9235 11.8198 39.6436 11.8198H48.8415C50.5617 11.8331 51.8554 10.0831 50.8886 8.43911Z" fill="#718CAB"/>
<path d="M44.1657 9.25865L44.1657 9.25867L44.1694 9.26453L44.1744 9.2724C44.6677 10.0473 45.137 10.7843 45.7615 11.3332H42.5725H33.4333C31.8421 11.3212 31.0873 9.81362 31.753 8.72819C31.7532 8.7279 31.7533 8.72762 31.7535 8.72733L36.0599 1.78208L36.0652 1.77354L36.0701 1.76479C36.8183 0.442233 38.6277 0.505618 39.3987 1.55832L43.0852 7.53497L43.0851 7.53498L43.0884 7.5401L43.5107 7.27248L43.0884 7.54011L43.0884 7.54013L43.0885 7.54025L43.0888 7.54072L43.0899 7.54259L43.0946 7.54997L43.1126 7.57839L43.1788 7.683L43.3972 8.02835C43.5676 8.29824 43.7691 8.61802 43.8961 8.82201C43.8963 8.82226 43.8964 8.8225 43.8966 8.82275L44.1657 9.25865Z" fill="#718CAB" stroke="white"/>
<path d="M107.707 3.30087C108.346 2.74404 109.469 2.47888 111.104 2.47888H114.929V0.450439H110.408C109.327 0.450439 108.417 0.556506 107.707 0.76863C107.01 0.980755 106.399 1.3122 105.873 1.77622C105.318 2.28002 104.878 2.90313 104.565 3.64556C104.252 4.40125 104.096 5.22324 104.096 6.085C104.096 6.90699 104.252 7.70245 104.565 8.43164C104.878 9.16082 105.318 9.79718 105.873 10.301C106.385 10.765 106.996 11.0964 107.678 11.3086C108.375 11.5207 109.299 11.6268 110.408 11.6268H114.929V9.62484H111.104C110.237 9.62484 109.64 9.59832 109.299 9.53202C108.943 9.46574 108.617 9.35968 108.346 9.20058C107.806 8.88239 107.394 8.4714 107.124 7.95435C106.868 7.45055 106.74 6.81418 106.74 6.07175C106.74 4.79899 107.067 3.85769 107.707 3.30087Z" fill="#718CAB"/>
<path d="M74.4268 11.6532H85.089V9.69105H77.0283V6.89365H84.0654V5.03756H77.0283V2.43903H85.089V0.463623H74.4268V11.6532Z" fill="#718CAB"/>
<path d="M87.7471 0.463623L92.737 6.05841L87.7471 11.6532H90.9742L94.9121 7.2251V4.90498L90.9742 0.463623H87.7471Z" fill="#718CAB"/>
<path d="M99.8593 0.463623L95.9214 4.90498V7.2251L99.8593 11.6532H103.086L98.0823 6.05841L103.086 0.463623H99.8593Z" fill="#718CAB"/>
<path d="M63.9779 5.97887L59.187 0.463623H56.7134V11.6532H59.3149V4.18906L63.4661 8.8293H64.4754L68.6265 4.1493V11.6532H71.228V0.463623H68.7829L63.9779 5.97887Z" fill="#718CAB"/>
</g>
<g opacity="0.4">
<path fill-rule="evenodd" clip-rule="evenodd" d="M194.748 8.58325H196.908V16.0798H194.748V8.58325Z" fill="#718CAB"/>
<path d="M193.356 11.6421C193.123 11.2163 192.79 10.8525 192.388 10.5832C192.885 10.0221 193.178 9.27689 193.142 8.46108C193.069 6.8433 191.682 5.59448 190.058 5.59448H185.555V16.0791H190.707C192.371 16.0791 193.72 14.735 193.72 13.075C193.72 12.5561 193.589 12.0685 193.356 11.6421ZM190.372 14.2998H187.714V11.7265H190.356C191.05 11.7265 191.637 12.2759 191.637 13.0139C191.637 13.7423 191.051 14.2998 190.372 14.2998ZM189.807 9.94714H187.714V7.37455H189.791C190.486 7.37455 191.073 7.92328 191.073 8.66121C191.071 9.38896 190.486 9.94714 189.807 9.94714Z" fill="#718CAB"/>
<path d="M222.459 5.90527H219.975L218.034 9.00621L216.094 5.90527H213.608L216.792 10.9922L213.608 16.0799H216.094L218.034 12.979L219.975 16.0799H222.459L219.277 10.9922L222.459 5.90527Z" fill="#718CAB"/>
<path d="M204.611 11.91V16.0793H202.452V11.5367C202.452 10.8759 201.905 10.3424 201.236 10.3614C200.592 10.381 200.095 10.9421 200.095 11.5854V16.0778H197.935V8.5813H200.095V8.93862C200.581 8.70938 201.123 8.5813 201.696 8.5813C201.983 8.5813 202.263 8.61332 202.531 8.67445C203.728 8.9459 204.574 10.0113 204.604 11.2339C204.609 11.4537 204.611 11.6808 204.611 11.91Z" fill="#718CAB"/>
<path fill-rule="evenodd" clip-rule="evenodd" d="M194.748 5.59448H196.908V7.74716H194.748V5.59448Z" fill="#718CAB"/>
<path d="M213.029 8.58324H209.304C209.292 8.58324 209.28 8.58179 209.267 8.58179C207.19 8.58179 205.507 10.2607 205.507 12.3311C205.507 14.3914 207.174 16.0623 209.235 16.0776C209.245 16.0798 209.255 16.0798 209.267 16.0798C210.069 16.0798 210.869 16.3141 210.869 17.0091C210.869 17.7143 210.144 18.3132 209.267 18.3132C208.383 18.3132 207.666 17.5986 207.666 16.7173H205.506C205.506 18.787 207.19 20.4659 209.266 20.4659C211.345 20.4659 213.027 18.787 213.027 16.7173C213.027 16.7173 213.069 15.5973 212.116 14.7778C212.685 14.1221 213.028 13.2685 213.028 12.3311C213.028 11.6085 212.823 10.9346 212.468 10.3626H213.029V8.58324ZM209.267 13.9271C208.383 13.9271 207.666 13.2124 207.666 12.3311C207.666 11.4498 208.383 10.7352 209.267 10.7352C210.151 10.7352 210.869 11.4498 210.869 12.3311C210.869 13.2124 210.151 13.9271 209.267 13.9271Z" fill="#718CAB"/>
<path d="M182.011 3C179.701 3 177.417 3.5822 175.404 4.68474C174.327 5.27494 173.331 6.00705 172.447 6.86216C172.239 7.06229 172.035 7.27188 171.84 7.48584C171.188 8.20194 170.61 8.98791 170.124 9.82118C169.952 10.1203 169.761 10.4121 169.556 10.6908C169.529 10.7272 169.504 10.7636 169.474 10.7993C167.686 13.1579 164.962 14.5101 162 14.5101V18.8678C164.31 18.8678 166.594 18.2856 168.607 17.1838C169.683 16.5951 170.678 15.8615 171.564 15.0064C171.772 14.8055 171.976 14.5959 172.172 14.3827C172.825 13.6659 173.401 12.8814 173.886 12.0474L173.918 11.9935C174.083 11.7126 174.264 11.439 174.454 11.1784C174.481 11.1428 174.508 11.1057 174.537 11.0678C176.324 8.70991 179.05 7.35703 182.011 7.35703V3Z" fill="#718CAB"/>
<path d="M182.011 14.5115C179.05 14.5115 176.324 13.1586 174.535 10.8C174.509 10.7644 174.481 10.7287 174.454 10.6901C174.251 10.4136 174.059 10.121 173.887 9.8212C173.401 8.98865 172.824 8.20341 172.171 7.48658C171.976 7.27408 171.772 7.06449 171.564 6.86363C170.68 6.00852 169.685 5.27568 168.607 4.68621C166.594 3.5844 164.31 3.0022 162 3.0022V7.35995C164.962 7.35995 167.687 8.71211 169.476 11.0707C169.504 11.1064 169.53 11.1435 169.557 11.1792C169.749 11.4404 169.93 11.7148 170.092 11.9928L170.126 12.0496C170.611 12.8814 171.188 13.6659 171.84 14.3834C172.035 14.596 172.239 14.8055 172.447 15.0064C173.333 15.8615 174.328 16.5951 175.404 17.1838C177.417 18.2856 179.701 18.8678 182.011 18.8678V14.5115Z" fill="#718CAB"/>
</g>
<g opacity="0.6">
<path fill-rule="evenodd" clip-rule="evenodd" d="M215.703 85.0072H217.67V77.7141H215.703V85.0072Z" fill="#718CAB"/>
<path fill-rule="evenodd" clip-rule="evenodd" d="M215.703 76.8805H217.67V74.9849H215.703V76.8805Z" fill="#718CAB"/>
<path fill-rule="evenodd" clip-rule="evenodd" d="M212.7 85.0064H214.667V83.1108H212.7V85.0064Z" fill="#718CAB"/>
<path fill-rule="evenodd" clip-rule="evenodd" d="M198.792 84.0171C198.906 84.3106 199.081 84.5403 199.289 84.7198C199.5 84.9019 199.748 85.0438 200.041 85.1244C200.339 85.2049 200.667 85.2364 201.015 85.2364C201.374 85.2364 201.695 85.2004 201.969 85.1292C202.223 85.0634 202.467 84.9703 202.693 84.8522V83.5126C202.332 83.6628 201.995 83.7173 201.611 83.7346C201.205 83.7528 200.965 83.6409 200.765 83.4576C200.556 83.2654 200.445 83.0147 200.445 82.5943V78.5427H202.693V76.8805H200.445V74.9849H198.617V76.8805H197.522V78.5427H198.617V82.8931C198.617 83.3425 198.675 83.7205 198.792 84.0171Z" fill="#718CAB"/>
<path fill-rule="evenodd" clip-rule="evenodd" d="M186.939 79.3465H182.043V81.3067H184.792C184.648 81.8667 184.365 82.3686 183.958 82.7696C183.344 83.3744 182.493 83.7075 181.561 83.7075C179.627 83.7075 178.053 82.1908 178.053 80.3266C178.053 78.4624 179.627 76.9457 181.561 76.9457C182.597 76.9457 183.549 77.373 184.209 78.11L185.783 76.87C184.739 75.691 183.191 74.9856 181.561 74.9856C178.506 74.9856 176.02 77.3816 176.02 80.3266C176.02 83.2716 178.506 85.6676 181.561 85.6676C183.044 85.6676 184.411 85.1524 185.411 84.1677C186.25 83.3413 186.806 82.1882 186.913 81.0332C186.965 80.4696 186.97 79.9102 186.939 79.3465Z" fill="#718CAB"/>
<path fill-rule="evenodd" clip-rule="evenodd" d="M207.718 78.3927C208.846 78.3927 209.808 79.0762 210.184 80.0371H205.251C205.627 79.0762 206.589 78.3927 207.718 78.3927ZM212.131 81.5864C212.164 81.3733 212.183 81.1552 212.183 80.9332C212.183 78.5567 210.183 76.6301 207.718 76.6301C205.253 76.6301 203.253 78.5567 203.253 80.9332C203.253 83.3098 205.253 85.2362 207.718 85.2362C209.409 85.2362 210.88 84.3295 211.638 82.9932L209.989 82.2217C209.53 82.9708 208.685 83.4737 207.718 83.4737C206.495 83.4737 205.468 82.6715 205.169 81.5835H210.265C210.265 81.5844 210.265 81.5854 210.265 81.5864H212.131Z" fill="#718CAB"/>
<path fill-rule="evenodd" clip-rule="evenodd" d="M192.06 83.4741C190.604 83.4741 189.424 82.3366 189.424 80.9334C189.424 79.5301 190.604 78.3926 192.06 78.3926C193.515 78.3926 194.695 79.5301 194.695 80.9334C194.695 82.3366 193.515 83.4741 192.06 83.4741ZM192.06 76.6377C189.594 76.6377 187.596 78.564 187.596 80.9402C187.596 83.3163 189.594 85.2427 192.06 85.2427C194.525 85.2427 196.523 83.3163 196.523 80.9402C196.523 78.564 194.525 76.6377 192.06 76.6377Z" fill="#718CAB"/>
<mask id="mask1_2006_5" style="mask-type:alpha" maskUnits="userSpaceOnUse" x="158" y="72" width="70" height="16">
<path d="M158.378 87.6208H227.622V72.3386H158.378V87.6208Z" fill="white"/>
</mask>
<g mask="url(#mask1_2006_5)">
<path fill-rule="evenodd" clip-rule="evenodd" d="M194.695 85.0068H196.523V76.8735H194.695V85.0068Z" fill="#718CAB"/>
<path fill-rule="evenodd" clip-rule="evenodd" d="M223.158 83.4736C221.702 83.4736 220.522 82.3363 220.522 80.9331C220.522 79.5301 221.702 78.3927 223.158 78.3927C224.613 78.3927 225.793 79.5301 225.793 80.9331C225.793 82.3363 224.613 83.4736 223.158 83.4736ZM223.158 76.6301C220.693 76.6301 218.693 78.5565 218.693 80.9331C218.693 83.3096 220.693 85.2362 223.158 85.2362C225.623 85.2362 227.623 83.3096 227.623 80.9331C227.623 78.5565 225.623 76.6301 223.158 76.6301Z" fill="#718CAB"/>
<path fill-rule="evenodd" clip-rule="evenodd" d="M166.305 84.1822C163.897 84.1822 161.945 82.3006 161.945 79.9796C161.945 77.6586 163.897 75.7771 166.305 75.7771V72.3386C161.927 72.3386 158.378 75.7596 158.378 79.9796C158.378 84.1997 161.927 87.6207 166.305 87.6207C170.682 87.6207 174.231 84.1997 174.231 79.9796H170.664C170.664 82.3006 168.712 84.1822 166.305 84.1822Z" fill="#718CAB"/>
<path fill-rule="evenodd" clip-rule="evenodd" d="M166.304 79.9794H170.664V75.7769H166.304V79.9794Z" fill="#718CAB"/>
</g>
</g>
<defs>
<clipPath id="clip0_2006_5">
<rect width="61" height="19" fill="white" transform="translate(0 74)"/>
</clipPath>
<clipPath id="clip1_2006_5">
<rect width="84" height="12" fill="white" transform="translate(31)"/>
</clipPath>
</defs>
</svg>
