<svg width="60" height="57" viewBox="0 0 60 57" fill="none" xmlns="http://www.w3.org/2000/svg">
<g filter="url(#filter0_d_91_10232)">
<mask id="path-1-outside-1_91_10232" maskUnits="userSpaceOnUse" x="1" y="2.00073" width="54" height="52" fill="black">
<rect fill="white" x="1" y="2.00073" width="54" height="52"/>
<path d="M6.081 16.0011H47.051L47.225 16.0061C48.7759 16.0643 50.244 16.7212 51.3208 17.8389C52.3977 18.9565 52.9995 20.448 53 22.0001V46C53 47.5913 52.3679 49.1175 51.2426 50.2427C50.1174 51.3679 48.5913 52 47 52H9C7.4087 52 5.88258 51.3679 4.75736 50.2427C3.63214 49.1175 3 47.5913 3 46V22.0001L3.003 21.7951L3.013 21.6151C2.94357 20.4852 3.19471 19.3586 3.73749 18.3652C4.28028 17.3718 5.09264 16.553 6.081 16.0011ZM37 30.0001C35.9391 30.0001 34.9217 30.4215 34.1716 31.1716C33.4214 31.9218 33 32.9392 33 34.0001C33 35.0609 33.4214 36.0783 34.1716 36.8285C34.9217 37.5786 35.9391 38 37 38C38.0609 38 39.0783 37.5786 39.8284 36.8285C40.5786 36.0783 41 35.0609 41 34.0001C41 32.9392 40.5786 31.9218 39.8284 31.1716C39.0783 30.4215 38.0609 30.0001 37 30.0001ZM46.847 8.45005C46.9826 8.95556 47.0516 9.47666 47.052 10.0001L47.051 13.0001H14.424L39.499 4.20505C41.0361 3.79335 42.6737 4.00908 44.0517 4.80479C45.4297 5.6005 46.4352 6.91101 46.847 8.44805"/>
</mask>
<path d="M6.081 16.0011H47.051L47.225 16.0061C48.7759 16.0643 50.244 16.7212 51.3208 17.8389C52.3977 18.9565 52.9995 20.448 53 22.0001V46C53 47.5913 52.3679 49.1175 51.2426 50.2427C50.1174 51.3679 48.5913 52 47 52H9C7.4087 52 5.88258 51.3679 4.75736 50.2427C3.63214 49.1175 3 47.5913 3 46V22.0001L3.003 21.7951L3.013 21.6151C2.94357 20.4852 3.19471 19.3586 3.73749 18.3652C4.28028 17.3718 5.09264 16.553 6.081 16.0011ZM37 30.0001C35.9391 30.0001 34.9217 30.4215 34.1716 31.1716C33.4214 31.9218 33 32.9392 33 34.0001C33 35.0609 33.4214 36.0783 34.1716 36.8285C34.9217 37.5786 35.9391 38 37 38C38.0609 38 39.0783 37.5786 39.8284 36.8285C40.5786 36.0783 41 35.0609 41 34.0001C41 32.9392 40.5786 31.9218 39.8284 31.1716C39.0783 30.4215 38.0609 30.0001 37 30.0001ZM46.847 8.45005C46.9826 8.95556 47.0516 9.47666 47.052 10.0001L47.051 13.0001H14.424L39.499 4.20505C41.0361 3.79335 42.6737 4.00908 44.0517 4.80479C45.4297 5.6005 46.4352 6.91101 46.847 8.44805" fill="#6EC7FC"/>
<path d="M6.081 16.0011V14.0011H5.56042L5.1059 14.2549L6.081 16.0011ZM47.051 16.0011L47.1085 14.0019L47.0797 14.0011H47.051V16.0011ZM47.225 16.0061L47.3 14.0075L47.2912 14.0071L47.2825 14.0069L47.225 16.0061ZM53 22.0001H55V21.9995L53 22.0001ZM53 46H55H53ZM47 52V54V52ZM9 52V54V52ZM3 46H1H3ZM3 22.0001L1.00021 21.9708L1 21.9854V22.0001H3ZM3.003 21.7951L1.00608 21.6841L1.00381 21.7249L1.00321 21.7658L3.003 21.7951ZM3.013 21.6151L5.00992 21.726L5.01641 21.6092L5.00923 21.4924L3.013 21.6151ZM47.052 10.0001L49.052 10.0007V9.99839L47.052 10.0001ZM47.051 13.0001V15.0001H49.0503L49.051 13.0007L47.051 13.0001ZM14.424 13.0001L13.762 11.1128L14.424 15.0001V13.0001ZM39.499 4.20505L38.9815 2.27315L38.9084 2.29273L38.837 2.31778L39.499 4.20505ZM6.081 18.0011H47.051V14.0011H6.081V18.0011ZM46.9935 18.0002L47.1675 18.0052L47.2825 14.0069L47.1085 14.0019L46.9935 18.0002ZM47.15 18.0046C48.184 18.0434 49.1627 18.4814 49.8806 19.2265L52.7611 16.4512C51.3253 14.961 49.3679 14.0851 47.3 14.0075L47.15 18.0046ZM49.8806 19.2265C50.5985 19.9716 50.9997 20.966 51 22.0006L55 21.9995C54.9994 19.9301 54.1969 17.9414 52.7611 16.4512L49.8806 19.2265ZM51 22.0001V46H55V22.0001H51ZM51 46C51 47.0609 50.5786 48.0783 49.8284 48.8285L52.6569 51.6569C54.1571 50.1566 55 48.1218 55 46H51ZM49.8284 48.8285C49.0783 49.5786 48.0609 50 47 50V54C49.1217 54 51.1566 53.1572 52.6569 51.6569L49.8284 48.8285ZM47 50H9V54H47V50ZM9 50C7.93913 50 6.92172 49.5786 6.17157 48.8285L3.34315 51.6569C4.84344 53.1572 6.87827 54 9 54V50ZM6.17157 48.8285C5.42143 48.0783 5 47.0609 5 46H1C1 48.1218 1.84285 50.1566 3.34315 51.6569L6.17157 48.8285ZM5 46V22.0001H1V46H5ZM4.99979 22.0293L5.00279 21.8243L1.00321 21.7658L1.00021 21.9708L4.99979 22.0293ZM4.99992 21.906L5.00992 21.726L1.01608 21.5041L1.00608 21.6841L4.99992 21.906ZM5.00923 21.4924C4.96291 20.7386 5.13046 19.987 5.49259 19.3242L1.9824 17.4063C1.25895 18.7303 0.924222 20.2318 1.01677 21.7377L5.00923 21.4924ZM5.49259 19.3242C5.8543 18.6622 6.39594 18.1159 7.0561 17.7472L5.1059 14.2549C3.78934 14.99 2.70626 16.0815 1.9824 17.4063L5.49259 19.3242ZM37 28.0001C35.4087 28.0001 33.8826 28.6322 32.7574 29.7574L35.5858 32.5858C35.9609 32.2108 36.4696 32.0001 37 32.0001V28.0001ZM32.7574 29.7574C31.6321 30.8826 31 32.4088 31 34.0001H35C35 33.4696 35.2107 32.9609 35.5858 32.5858L32.7574 29.7574ZM31 34.0001C31 35.5914 31.6321 37.1175 32.7574 38.2427L35.5858 35.4143C35.2107 35.0392 35 34.5305 35 34.0001H31ZM32.7574 38.2427C33.8826 39.3679 35.4087 40 37 40V36C36.4696 36 35.9609 35.7893 35.5858 35.4143L32.7574 38.2427ZM37 40C38.5913 40 40.1174 39.3679 41.2426 38.2427L38.4142 35.4143C38.0391 35.7893 37.5304 36 37 36V40ZM41.2426 38.2427C42.3679 37.1175 43 35.5914 43 34.0001H39C39 34.5305 38.7893 35.0392 38.4142 35.4143L41.2426 38.2427ZM43 34.0001C43 32.4088 42.3679 30.8826 41.2426 29.7574L38.4142 32.5858C38.7893 32.9609 39 33.4696 39 34.0001H43ZM41.2426 29.7574C40.1174 28.6322 38.5913 28.0001 37 28.0001V32.0001C37.5304 32.0001 38.0391 32.2108 38.4142 32.5858L41.2426 29.7574ZM44.9153 8.96838C45.0058 9.30539 45.0517 9.65278 45.052 10.0017L49.052 9.99839C49.0514 9.30053 48.9595 8.60574 48.7787 7.93172L44.9153 8.96838ZM45.052 9.99939L45.051 12.9994L49.051 13.0007L49.052 10.0007L45.052 9.99939ZM47.051 11.0001H14.424V15.0001H47.051V11.0001ZM15.086 14.8873L40.161 6.09233L38.837 2.31778L13.762 11.1128L15.086 14.8873ZM40.0165 6.13695C41.0412 5.86248 42.1329 6.0063 43.0516 6.53677L45.0518 3.0728C43.2145 2.01186 41.031 1.72421 38.9815 2.27315L40.0165 6.13695ZM43.0516 6.53677C43.9703 7.06725 44.6406 7.94093 44.9151 8.96562L48.7789 7.93049C48.2298 5.8811 46.8892 4.13375 45.0518 3.0728L43.0516 6.53677Z" fill="#3582B0" mask="url(#path-1-outside-1_91_10232)"/>
</g>
<defs>
<filter id="filter0_d_91_10232" x="1" y="2.00073" width="56" height="53.9993" filterUnits="userSpaceOnUse" color-interpolation-filters="sRGB">
<feFlood flood-opacity="0" result="BackgroundImageFix"/>
<feColorMatrix in="SourceAlpha" type="matrix" values="0 0 0 0 0 0 0 0 0 0 0 0 0 0 0 0 0 0 127 0" result="hardAlpha"/>
<feOffset dx="2" dy="2"/>
<feComposite in2="hardAlpha" operator="out"/>
<feColorMatrix type="matrix" values="0 0 0 0 0.207843 0 0 0 0 0.509804 0 0 0 0 0.690196 0 0 0 0.25 0"/>
<feBlend mode="normal" in2="BackgroundImageFix" result="effect1_dropShadow_91_10232"/>
<feBlend mode="normal" in="SourceGraphic" in2="effect1_dropShadow_91_10232" result="shape"/>
</filter>
</defs>
</svg>
