<svg width="83" height="29" viewBox="0 0 83 29" fill="none" xmlns="http://www.w3.org/2000/svg">
<path d="M69.478 22.6301C69.478 22.8462 68.9709 23.0208 67.9568 23.1538C66.9427 23.2868 65.9203 23.3533 64.8895 23.3533C63.8754 23.3533 63.2187 23.2951 62.9195 23.1787C62.6369 23.0624 62.4955 22.8795 62.4955 22.6301V6.59543C62.4955 6.16318 63.0359 5.85562 64.1165 5.67275C65.2137 5.48987 66.5936 5.39844 68.2561 5.39844C69.9185 5.39844 70.9909 5.40675 71.473 5.42337C71.9717 5.42337 72.5536 5.44831 73.2186 5.49819C73.8836 5.54806 74.4073 5.63119 74.7896 5.74756C75.1886 5.86393 75.6209 6.01356 76.0864 6.19643C76.5685 6.3793 76.9426 6.62037 77.2086 6.91961C77.4746 7.20224 77.7322 7.54305 77.9816 7.94204C78.4305 8.65691 78.6549 9.67934 78.6549 11.0093C78.6549 12.3227 78.4305 13.4366 77.9816 14.3509C77.5494 15.2487 76.9675 15.9303 76.236 16.3958C78.1479 19.4049 79.1038 21.3168 79.1038 22.1314C79.1038 22.946 77.4662 23.3533 74.1911 23.3533C73.2435 23.3533 72.5868 23.3117 72.2211 23.2286C71.8553 23.1455 71.6226 22.9626 71.5228 22.68L69.9019 17.5429L69.478 17.518V22.6301ZM69.478 13.6776H70.1264C71.0906 13.6776 71.5727 12.9295 71.5727 11.4333C71.5727 10.6685 71.4397 10.1282 71.1737 9.81234C70.9244 9.49647 70.6334 9.33853 70.3009 9.33853H69.478V13.6776Z" fill="#F9C42B"/>
<path d="M61.4771 23.3529H50.9037C50.0891 23.3529 49.5405 23.2948 49.2579 23.1784C48.9752 23.062 48.8339 22.8791 48.8339 22.6298V6.84445C48.8339 6.41221 49.0251 6.10464 49.4075 5.92177C49.8065 5.7389 50.513 5.64746 51.5272 5.64746H61.5519C61.9011 5.64746 62.0756 6.22933 62.0756 7.39307C62.0756 8.54019 62.0008 9.42131 61.8512 10.0364C61.7016 10.6349 61.5021 10.9342 61.2527 10.9342C60.1721 10.9342 58.3517 10.8261 55.7914 10.61V12.2808C58.2519 12.181 59.8562 12.1312 60.6043 12.1312C61.0532 12.1312 61.2776 12.6548 61.2776 13.7022C61.2776 14.7496 61.1862 15.5476 61.0033 16.0962C60.8371 16.6282 60.6043 16.8942 60.3051 16.8942L55.7914 16.7944V18.3904C58.6842 18.1743 60.6791 18.0662 61.7764 18.0662C62.1255 18.0662 62.3001 18.6481 62.3001 19.8119C62.3001 20.9756 62.2253 21.8567 62.0756 22.4552C61.926 23.0537 61.7265 23.3529 61.4771 23.3529Z" fill="#F9C42B"/>
<path d="M47.815 23.3529H37.2416C36.427 23.3529 35.8784 23.2948 35.5958 23.1784C35.3131 23.062 35.1718 22.8791 35.1718 22.6298V6.84445C35.1718 6.41221 35.363 6.10464 35.7454 5.92177C36.1444 5.7389 36.8509 5.64746 37.865 5.64746H47.8898C48.239 5.64746 48.4135 6.22933 48.4135 7.39307C48.4135 8.54019 48.3387 9.42131 48.1891 10.0364C48.0395 10.6349 47.84 10.9342 47.5906 10.9342C46.51 10.9342 44.6896 10.8261 42.1293 10.61V12.2808C44.5898 12.181 46.1941 12.1312 46.9422 12.1312C47.3911 12.1312 47.6155 12.6548 47.6155 13.7022C47.6155 14.7496 47.5241 15.5476 47.3412 16.0962C47.175 16.6282 46.9422 16.8942 46.643 16.8942L42.1293 16.7944V18.3904C45.0221 18.1743 47.017 18.0662 48.1143 18.0662C48.4634 18.0662 48.638 18.6481 48.638 19.8119C48.638 20.9756 48.5632 21.8567 48.4135 22.4552C48.2639 23.0537 48.0644 23.3529 47.815 23.3529Z" fill="#F9C42B"/>
<path d="M26.7036 23.3533H21.2423C20.4111 23.3533 19.8541 23.2951 19.5715 23.1787C19.2889 23.0624 19.1476 22.8795 19.1476 22.6301V6.59543C19.1476 5.79743 21.5499 5.39844 26.3545 5.39844C29.1142 5.39844 31.0177 5.66444 32.0651 6.19643C33.1291 6.74505 33.8107 7.4433 34.11 8.29116C34.2762 8.78991 34.3593 9.37178 34.3593 10.0368C34.3593 11.3335 34.1349 12.3061 33.686 12.9544C33.2538 13.6028 32.78 13.9686 32.2646 14.0517C33.046 14.2179 33.6943 14.6003 34.2097 15.1988C34.7251 15.7973 34.9828 16.8114 34.9828 18.2411C34.9828 19.9036 34.4757 21.1339 33.4616 21.9319C32.5805 22.6301 31.2339 23.0707 29.4218 23.2535C28.657 23.32 27.751 23.3533 26.7036 23.3533ZM26.7285 12.4806C27.5764 12.4806 28.0003 11.9154 28.0003 10.7849C28.0003 10.2197 27.884 9.80403 27.6512 9.53803C27.4351 9.25541 27.1857 9.11409 26.9031 9.11409H26.1051V12.4806H26.7285ZM26.1051 19.6376H26.7285C27.5764 19.6376 28.0003 19.0724 28.0003 17.9419C28.0003 17.3767 27.884 16.961 27.6512 16.695C27.4351 16.4124 27.1857 16.2711 26.9031 16.2711H26.1051V19.6376Z" fill="#F9C42B"/>
<path d="M9.00869 5.49784C9.00869 5.11547 9.32457 4.75804 9.95631 4.42554C10.5881 4.07642 11.4193 3.90186 12.45 3.90186C13.248 3.90186 13.7634 4.0681 13.9962 4.4006C14.1624 4.63335 14.2455 4.84947 14.2455 5.04897V5.79709C16.1241 5.99659 17.4292 6.34571 18.1607 6.84446C18.4599 7.04396 18.6096 7.23514 18.6096 7.41801C18.6096 8.28251 18.4017 9.2135 17.9861 10.211C17.5871 11.2085 17.1964 11.7072 16.8141 11.7072C16.7476 11.7072 16.5314 11.6324 16.1657 11.4828C15.0685 11.0007 14.1541 10.7596 13.4226 10.7596C12.7077 10.7596 12.2173 10.8261 11.9513 10.9591C11.7019 11.0921 11.5772 11.2999 11.5772 11.5825C11.5772 11.8485 11.7601 12.0564 12.1259 12.206C12.4916 12.3556 12.9405 12.4886 13.4725 12.605C14.0211 12.7047 14.6113 12.8793 15.243 13.1287C15.8914 13.378 16.4899 13.6773 17.0385 14.0264C17.5871 14.3755 18.0443 14.8992 18.4101 15.5975C18.7758 16.2791 18.9587 16.9773 18.9587 17.6922C18.9587 18.4071 18.8922 18.9972 18.7592 19.4627C18.6262 19.9282 18.3934 20.4104 18.0609 20.9091C17.7451 21.4078 17.2546 21.8567 16.5896 22.2557C15.9413 22.6381 15.1599 22.9207 14.2455 23.1036V23.5026C14.2455 23.885 13.9297 24.2424 13.2979 24.5749C12.6662 24.924 11.8349 25.0986 10.8042 25.0986C10.0062 25.0986 9.49081 24.9323 9.25807 24.5998C9.09182 24.3671 9.00869 24.1509 9.00869 23.9515V23.2033C7.92808 23.1036 6.98877 22.9456 6.19078 22.7295C4.66129 22.3139 3.89655 21.865 3.89655 21.3829C3.89655 20.4519 4.02954 19.4877 4.29554 18.4902C4.56154 17.4761 4.87741 16.969 5.24316 16.969C5.30966 16.969 5.99959 17.1934 7.31296 17.6423C8.62632 18.0912 9.6155 18.3156 10.2805 18.3156C10.9455 18.3156 11.3777 18.2491 11.5772 18.1161C11.7767 17.9665 11.8765 17.7587 11.8765 17.4927C11.8765 17.2267 11.6936 17.0023 11.3279 16.8194C10.9621 16.6199 10.5049 16.4619 9.95631 16.3456C9.40769 16.2292 8.80919 16.0463 8.16082 15.797C7.52908 15.5476 6.9389 15.2566 6.39028 14.9241C5.84166 14.5916 5.38447 14.1012 5.01872 13.4528C4.65298 12.8045 4.4701 12.048 4.4701 11.1835C4.4701 8.12457 5.98297 6.3374 9.00869 5.82203V5.49784Z" fill="#F9C42B"/>
<path fill-rule="evenodd" clip-rule="evenodd" d="M61.4713 26.7958L61.4358 26.7812C60.8608 26.5444 60.1195 26.1144 59.5182 25.3363C59.0449 24.7238 58.7692 24.038 58.6574 23.3528H61.4767C61.7005 23.3528 61.8841 23.1117 62.0276 22.6296C62.044 22.5746 62.0598 22.5164 62.0752 22.455C62.2248 21.8565 62.2996 20.9754 62.2996 19.8117C62.2996 18.6479 62.125 18.0661 61.7759 18.0661C61.079 18.0661 60.0201 18.1097 58.5989 18.1968V16.8563L60.3046 16.894C60.6039 16.894 60.8366 16.628 61.0029 16.096C61.1857 15.5474 61.2772 14.7494 61.2772 13.702C61.2772 12.6547 61.0527 12.131 60.6039 12.131C60.1933 12.131 59.525 12.146 58.5989 12.176V10.8232C59.7361 10.8971 60.6206 10.934 61.2522 10.934C61.5016 10.934 61.7011 10.6348 61.8507 10.0363C62.0004 9.42114 62.0752 8.54002 62.0752 7.3929C62.0752 7.08659 62.0631 6.8206 62.0389 6.59491C61.9712 5.96316 61.8087 5.64729 61.5515 5.64729H58.6975C59.0424 4.04161 60.2159 3.08479 60.9731 2.65378C61.8317 2.16499 62.7652 1.94902 63.4662 1.8304L63.4757 1.82878C64.8607 1.59797 66.4728 1.50146 68.2559 1.50146C69.8368 1.50146 70.9553 1.50872 71.5393 1.52652C72.1434 1.52862 72.8039 1.55918 73.5099 1.61213C74.29 1.67064 75.1283 1.7803 75.8997 2.01206C76.4194 2.16438 76.9515 2.35004 77.4922 2.56193C78.3749 2.89995 79.3076 3.43424 80.0792 4.28428C80.537 4.77614 80.9344 5.31501 81.2826 5.87151C82.2842 7.46793 82.5512 9.3324 82.5512 11.0088C82.5512 12.7459 82.2568 14.4767 81.4861 16.0533C81.3564 16.3219 81.2151 16.5845 81.062 16.8399C81.3693 17.3784 81.6402 17.8803 81.8718 18.3434C82.153 18.9058 82.4085 19.4748 82.6014 20.025C82.772 20.5114 83.0001 21.2731 83.0001 22.1309C83.0001 23.8739 82.0394 25.1073 81.1269 25.7883C80.3231 26.388 79.4424 26.6727 78.816 26.8285C77.5225 27.1503 75.9078 27.2492 74.191 27.2492C73.2613 27.2492 72.2003 27.2192 71.3574 27.0277C71.0022 26.9469 70.6273 26.8214 70.2567 26.6433C69.655 26.8376 69.0082 26.9452 68.4633 27.0167C67.2799 27.1719 66.0882 27.2492 64.8894 27.2492C64.3214 27.2492 63.7785 27.2335 63.2924 27.1904C62.8982 27.1555 62.1976 27.0783 61.5071 26.8097L61.4713 26.7958ZM67.6002 23.1972C67.7192 23.1835 67.838 23.1688 67.9567 23.1533C68.9708 23.0203 69.4778 22.8457 69.4778 22.6296V17.5175L69.9018 17.5424L71.5227 22.6795C71.6224 22.9621 71.8552 23.145 72.2209 23.2281C72.4605 23.2825 72.8248 23.3192 73.314 23.3379C73.5717 23.3478 73.864 23.3528 74.191 23.3528C77.4661 23.3528 79.1036 22.9455 79.1036 22.1309C79.1036 21.3165 78.1483 19.4056 76.2377 16.3981C76.2371 16.3972 76.2365 16.3962 76.2358 16.3953C76.9673 15.9298 77.5492 15.2482 77.9815 14.3504C78.4303 13.436 78.6548 12.3222 78.6548 11.0088C78.6548 9.67882 78.4303 8.65639 77.9815 7.94152C77.7321 7.54253 77.4744 7.20172 77.2084 6.91909C76.9424 6.61985 76.5683 6.37879 76.0862 6.19591C75.6207 6.01304 75.1885 5.86341 74.7895 5.74704C74.4071 5.63067 73.8834 5.54754 73.2184 5.49767C72.5534 5.44779 71.9716 5.42286 71.4728 5.42286C70.9907 5.40623 69.9184 5.39792 68.2559 5.39792C67.5928 5.39792 66.9747 5.41247 66.4015 5.44156C66.1171 5.456 65.8437 5.47402 65.5814 5.49562C65.0471 5.53962 64.5587 5.59849 64.1163 5.67223C63.0357 5.8551 62.4954 6.16266 62.4954 6.59491V22.6296C62.4954 22.879 62.6367 23.0618 62.9193 23.1782C63.2186 23.2946 63.8753 23.3528 64.8894 23.3528C65.7995 23.3528 66.7031 23.3009 67.6002 23.1972ZM69.4778 13.6143V13.6771H70.1262M70.1291 13.6771C70.2 13.677 70.2683 13.6728 70.3339 13.6646L70.1291 13.6771ZM70.3339 13.6646C71.1597 13.5613 71.5726 12.8174 71.5726 11.4327C71.5726 10.668 71.4396 10.1277 71.1736 9.81182C70.9242 9.49595 70.6333 9.33801 70.3008 9.33801H69.4778V13.6143" fill="black"/>
<path fill-rule="evenodd" clip-rule="evenodd" d="M47.7549 2.39288L47.7839 2.37961C49.0261 1.81023 50.5007 1.75098 51.527 1.75098H61.5518C62.8841 1.75098 63.9722 2.36672 64.6771 3.14994C65.2816 3.82159 65.5498 4.54132 65.6767 4.96419C65.7277 5.13435 65.7702 5.30647 65.8054 5.4784C65.183 5.52381 64.6201 5.58846 64.1166 5.67237C63.036 5.85524 62.4957 6.1628 62.4957 6.59505V22.6297C62.4957 22.8791 62.637 23.062 62.9196 23.1784C63.2189 23.2947 63.8756 23.3529 64.8897 23.3529C65.1341 23.3529 65.3781 23.3492 65.6216 23.3417C65.7052 23.3391 65.7887 23.3361 65.8722 23.3327C65.8667 23.3553 65.8612 23.3778 65.8556 23.4002C65.7384 23.8689 65.5189 24.595 65.0557 25.2898C64.577 26.0078 63.4215 27.2494 61.477 27.2494H50.9036C50.417 27.2494 49.9286 27.2326 49.4702 27.184C49.0727 27.1418 48.4292 27.0511 47.7741 26.7813C47.1992 26.5446 46.4578 26.1145 45.8566 25.3364C45.3833 24.7239 45.1076 24.0381 44.9958 23.3529H47.815C48.0389 23.3529 48.2225 23.1119 48.366 22.6297C48.3824 22.5747 48.3982 22.5165 48.4135 22.4552C48.5632 21.8567 48.638 20.9756 48.638 19.8118C48.638 18.6481 48.4634 18.0662 48.1143 18.0662C47.4174 18.0662 46.3584 18.1098 44.9373 18.197V16.8565L46.643 16.8942C46.9422 16.8942 47.175 16.6282 47.3412 16.0962C47.5241 15.5475 47.6155 14.7495 47.6155 13.7022C47.6155 12.6548 47.3911 12.1311 46.9422 12.1311C46.5317 12.1311 45.8634 12.1461 44.9373 12.1762V10.8234C46.0745 10.8972 46.959 10.9341 47.5906 10.9341C47.84 10.9341 48.0395 10.6349 48.1891 10.0364C48.3387 9.42128 48.4135 8.54016 48.4135 7.39304C48.4135 7.19297 48.4084 7.0101 48.3981 6.84442C48.3484 6.04643 48.179 5.64743 47.8899 5.64743H45.0775C45.1899 5.17987 45.3776 4.69953 45.668 4.2325C46.219 3.34605 46.9807 2.76315 47.7262 2.40662L47.7549 2.39288ZM62.295 20.3113C62.2983 20.151 62.2999 19.9845 62.2999 19.8118C62.2999 18.6481 62.1254 18.0662 61.7762 18.0662C61.3945 18.0662 60.904 18.0793 60.3049 18.1055C60.296 18.1058 60.2871 18.1062 60.2781 18.1066C60.0917 18.1148 59.8949 18.1243 59.6877 18.135C58.65 18.1887 57.3511 18.2739 55.7913 18.3904V16.7944L60.3049 16.8942C60.6042 16.8942 60.8369 16.6282 61.0032 16.0962C61.1135 15.7651 61.1906 15.3432 61.2343 14.8306C61.2412 14.7498 61.2473 14.6668 61.2526 14.5815C61.2606 14.4513 61.2666 14.3159 61.2708 14.1752C61.2753 14.0236 61.2775 13.8659 61.2775 13.7022C61.2775 13.5006 61.2692 13.3185 61.2526 13.1557C61.1828 12.4726 60.9667 12.1311 60.6042 12.1311C60.3774 12.1311 60.0719 12.1357 59.6877 12.1449C58.8047 12.166 57.5059 12.2112 55.7913 12.2808V10.61C57.3722 10.7434 58.671 10.8357 59.6877 10.8867C60.0241 10.9036 60.3296 10.916 60.6042 10.9238C60.8438 10.9307 61.0599 10.9341 61.2526 10.9341C61.5019 10.9341 61.7014 10.6349 61.851 10.0364C61.9494 9.63191 62.0155 9.11242 62.0492 8.4779C62.0667 8.14747 62.0755 7.78585 62.0755 7.39304C62.0755 6.2293 61.9009 5.64743 61.5518 5.64743H51.527C50.5129 5.64743 49.8063 5.73887 49.4073 5.92174C49.025 6.10461 48.8338 6.41217 48.8338 6.84442V22.6297C48.8338 22.8791 48.9751 23.062 49.2577 23.1784C49.5403 23.2947 50.0889 23.3529 50.9036 23.3529H61.477C61.7264 23.3529 61.9259 23.0537 62.0755 22.4552C62.2029 21.9455 62.2761 21.2309 62.295 20.3113Z" fill="black"/>
<path fill-rule="evenodd" clip-rule="evenodd" d="M33.8401 2.72729L33.8507 2.73273C35.1134 3.38384 36.3247 4.33045 37.1489 5.66514C36.5103 5.69989 36.0424 5.78537 35.7452 5.9216C35.3628 6.10448 35.1716 6.41204 35.1716 6.84428V22.6296C35.1716 22.879 35.3129 23.0618 35.5955 23.1782C35.8782 23.2946 36.4268 23.3528 37.2414 23.3528H37.4176C37.0064 23.9481 36.4972 24.4999 35.8761 24.9894C34.1535 26.352 31.9475 26.9144 29.8128 27.1298L29.786 27.1325L29.7591 27.1348C28.8502 27.2139 27.826 27.2492 26.7034 27.2492H21.2422C20.7493 27.2492 20.2566 27.2326 19.7961 27.1845C19.4004 27.1432 18.7491 27.0535 18.0878 26.7812C17.5128 26.5444 16.7715 26.1144 16.1702 25.3363C15.5794 24.5717 15.2965 23.6929 15.2561 22.8435C15.4584 22.7784 15.6524 22.7071 15.8381 22.6296C16.1059 22.5178 16.3565 22.3931 16.5898 22.2555C17.2548 21.8565 17.7452 21.4077 18.0611 20.9089C18.3936 20.4102 18.6263 19.9281 18.7593 19.4626C18.8923 18.9971 18.9588 18.4069 18.9588 17.692C18.9588 16.9771 18.776 16.2789 18.4102 15.5973C18.0445 14.899 17.5873 14.3753 17.0387 14.0262C16.4922 13.6785 15.8964 13.3803 15.251 13.1315V11.1218C15.5403 11.2215 15.8453 11.3418 16.1659 11.4826C16.5316 11.6322 16.7477 11.7071 16.8142 11.7071C17.1966 11.7071 17.5873 11.2083 17.9863 10.2108C18.4019 9.21333 18.6097 8.28233 18.6097 7.41784C18.6097 7.23497 18.4601 7.04378 18.1609 6.84428C18.0321 6.75653 17.8857 6.6734 17.7214 6.59491C17.1379 6.31601 16.3302 6.09559 15.2982 5.93366C15.5993 3.87831 17.2561 2.8847 17.8601 2.58372C18.6815 2.17447 19.5852 1.97386 20.3107 1.85337C21.8389 1.59955 23.9018 1.50146 26.3543 1.50146C29.1114 1.50146 31.8701 1.72663 33.8295 2.72192L33.8401 2.72729ZM33.4614 21.9314C34.4756 21.1334 34.9826 19.9031 34.9826 18.2406C34.9826 17.8359 34.962 17.4644 34.9207 17.1263C34.8161 16.27 34.579 15.6273 34.2096 15.1983C33.6942 14.5998 33.0458 14.2174 32.2645 14.0512C32.7798 13.968 33.2536 13.6023 33.6859 12.9539C34.0639 12.4079 34.2827 11.632 34.3424 10.6262C34.3536 10.4376 34.3592 10.241 34.3592 10.0363C34.3592 9.37126 34.2761 8.78939 34.1098 8.29065C33.8106 7.44278 33.129 6.74453 32.065 6.19591C31.2982 5.80644 30.0725 5.55953 28.3879 5.45519C27.9272 5.42666 27.4323 5.40878 26.9029 5.40158C26.724 5.39914 26.5411 5.39792 26.3543 5.39792C26.2705 5.39792 26.1873 5.39804 26.1049 5.39828C24.5432 5.40289 23.2444 5.45117 22.2085 5.54311C20.1678 5.72424 19.1474 6.07484 19.1474 6.59491V22.6296C19.1474 22.879 19.2887 23.0618 19.5714 23.1782C19.854 23.2946 20.4109 23.3528 21.2422 23.3528H26.7034C26.7118 23.3528 26.7201 23.3528 26.7284 23.3528C27.2623 23.3525 27.7593 23.3436 28.2195 23.3259C28.6529 23.3093 29.0536 23.285 29.4216 23.253C31.2337 23.0702 32.5803 22.6296 33.4614 21.9314ZM27.4351 9.31104C27.2732 9.1794 27.0958 9.11358 26.9029 9.11358H26.1049V12.4801H26.7284C26.7887 12.4801 26.8469 12.4773 26.9029 12.4715C27.0317 12.4584 27.149 12.4301 27.2551 12.3868C27.7518 12.1838 28.0002 11.6496 28.0002 10.7844C28.0002 10.2191 27.8838 9.80351 27.6511 9.53751C27.5824 9.44777 27.5104 9.37228 27.4351 9.31104ZM27.6511 16.6945C27.5293 16.5353 27.3969 16.4209 27.254 16.3514C27.1433 16.2975 27.0263 16.2706 26.9029 16.2706H26.1049V19.6371H26.7284C26.7887 19.6371 26.8469 19.6343 26.9029 19.6285C27.1085 19.6075 27.2852 19.548 27.433 19.45C27.8111 19.1992 28.0002 18.6964 28.0002 17.9414C28.0002 17.3761 27.8838 16.9605 27.6511 16.6945Z" fill="black"/>
<path fill-rule="evenodd" clip-rule="evenodd" d="M4.8381 13.0903C4.59271 12.5272 4.47001 11.8916 4.47001 11.1835C4.47001 8.12454 5.98288 6.33737 9.0086 5.822V5.49781C9.0086 5.11544 9.32447 4.75801 9.95622 4.42551C10.588 4.07639 11.4192 3.90182 12.45 3.90182C13.2479 3.90182 13.7633 4.06807 13.9961 4.40057C14.1623 4.63332 14.2454 4.84944 14.2454 5.04894V5.79706C16.124 5.99656 17.4291 6.34568 18.1606 6.84443C18.4598 7.04393 18.6095 7.23511 18.6095 7.41798C18.6095 8.25301 18.4156 9.15007 18.0278 10.1092C18.0141 10.143 18.0002 10.177 17.986 10.211C17.587 11.2085 17.1964 11.7072 16.814 11.7072C16.7475 11.7072 16.5314 11.6324 16.1656 11.4828C16.0868 11.4482 16.009 11.4148 15.9321 11.3827C15.927 11.3805 15.922 11.3784 15.9169 11.3763C15.7575 11.3099 15.6022 11.2489 15.4509 11.1933C14.8625 10.9768 14.3355 10.8413 13.8701 10.7869C13.848 10.7844 13.826 10.782 13.8042 10.7797C13.6719 10.7663 13.5446 10.7596 13.4225 10.7596C13.1513 10.7596 12.9123 10.7692 12.7057 10.7883C12.3678 10.8196 12.1163 10.8765 11.9512 10.9591C11.7018 11.0921 11.5771 11.2999 11.5771 11.5825C11.5771 11.8485 11.76 12.0563 12.1258 12.2059C12.2905 12.2734 12.4722 12.3374 12.6707 12.398C12.6896 12.4038 12.7086 12.4096 12.7278 12.4153C12.9406 12.4786 13.1722 12.5381 13.4225 12.5939C13.439 12.5976 13.4557 12.6013 13.4724 12.6049C13.9781 12.6969 14.5192 12.8524 15.0955 13.0715C15.1444 13.0901 15.1935 13.1091 15.2429 13.1286C15.3 13.1506 15.3567 13.1729 15.413 13.1956C15.4278 13.2016 15.4427 13.2077 15.4575 13.2137C15.938 13.4101 16.3902 13.6349 16.814 13.888C16.8897 13.9332 16.9645 13.9793 17.0384 14.0264C17.5216 14.3338 17.9338 14.7767 18.2751 15.3549C18.3214 15.4333 18.3663 15.5141 18.41 15.5974C18.7757 16.279 18.9586 16.9773 18.9586 17.6922C18.9586 18.407 18.8921 18.9972 18.7591 19.4627C18.6261 19.9282 18.3933 20.4103 18.0608 20.9091C17.745 21.4078 17.2545 21.8567 16.5895 22.2557C15.9412 22.6381 15.1598 22.9207 14.2454 23.1036V23.5025C14.2454 23.8849 13.9296 24.2424 13.2978 24.5749C12.6661 24.924 11.8348 25.0985 10.8041 25.0985C10.0061 25.0985 9.49072 24.9323 9.25797 24.5998C9.09173 24.367 9.0086 24.1509 9.0086 23.9514V23.2033C7.92799 23.1036 6.98868 22.9456 6.19069 22.7295C4.6612 22.3139 3.89645 21.865 3.89645 21.3829C3.89645 20.4519 4.02945 19.4876 4.29545 18.4901C4.31725 18.407 4.33939 18.3273 4.36186 18.251C4.58824 17.4823 4.84863 17.0593 5.14301 16.9819C5.17594 16.9733 5.20929 16.969 5.24307 16.969C5.30957 16.969 5.9995 17.1934 7.31287 17.6423C7.34821 17.6544 7.38332 17.6663 7.41819 17.678C7.42381 17.6799 7.42943 17.6818 7.43505 17.6837C7.63107 17.7496 7.81963 17.8104 8.00075 17.866C8.59942 18.0498 9.11671 18.1772 9.5526 18.2483C9.8276 18.2932 10.0702 18.3156 10.2804 18.3156C10.3615 18.3156 10.4391 18.3146 10.5133 18.3126C10.5366 18.312 10.5596 18.3113 10.5822 18.3105C11.078 18.2926 11.4096 18.2278 11.5771 18.1161C11.7766 17.9665 11.8764 17.7587 11.8764 17.4927C11.8764 17.2267 11.6935 17.0022 11.3278 16.8193C11.0868 16.6879 10.8062 16.5745 10.4859 16.4792C10.4295 16.4624 10.3718 16.4462 10.3129 16.4305C10.3021 16.4276 10.2913 16.4247 10.2804 16.4219C10.1761 16.3947 10.0681 16.3693 9.95622 16.3455C9.48465 16.2455 8.97623 16.0963 8.43096 15.8981C8.34187 15.8657 8.25179 15.8319 8.16073 15.7969C8.0967 15.7716 8.03309 15.7459 7.96991 15.7198C7.40977 15.4881 6.8832 15.2229 6.39018 14.9241C5.94857 14.6565 5.56619 14.2865 5.24307 13.8142C5.16478 13.6997 5.08997 13.5793 5.01863 13.4528C4.95247 13.3355 4.89229 13.2147 4.8381 13.0903ZM1.51022 15.1565C0.848239 13.8943 0.573558 12.5341 0.573558 11.1835C0.573558 9.01904 1.11635 6.82031 2.63069 5.0314C3.61002 3.8745 4.8261 3.08936 6.14054 2.58092C6.81736 1.738 7.65842 1.23454 8.10763 0.995372C9.50133 0.2357 11.0374 0.00537109 12.45 0.00537109C13.3791 0.00537109 15.7423 0.118764 17.1762 2.14907C17.2237 2.21592 17.2722 2.28718 17.3209 2.36271C18.4104 2.62796 19.4587 3.0183 20.3363 3.61198C20.6311 3.80905 21.5383 4.43798 22.0818 5.55482C20.1254 5.7391 19.1472 6.08584 19.1472 6.59505V22.6297C19.1472 22.8791 19.2885 23.062 19.5711 23.1784C19.8385 23.2885 20.3513 23.3465 21.1097 23.3524C20.4106 24.3184 19.5129 25.0457 18.5942 25.5969L18.5816 25.6045L18.5689 25.612C18.1374 25.8664 17.689 26.0846 17.2283 26.2709C16.5345 27.2037 15.6213 27.7521 15.1464 28.005C13.7527 28.7647 12.2167 28.995 10.8041 28.995C9.87496 28.995 7.5118 28.8816 6.07789 26.8513C6.03994 26.7979 6.00135 26.7417 5.96251 26.6827C5.69346 26.6242 5.42984 26.5603 5.17209 26.4904L5.16892 26.4896C4.28852 26.2504 3.32406 25.9266 2.49762 25.4415C1.91133 25.0974 0 23.8584 0 21.3829C0 20.081 0.185859 18.7812 0.528522 17.4938C0.697996 16.8492 0.962282 16.0312 1.42463 15.289C1.45001 15.2483 1.47853 15.2039 1.51022 15.1565Z" fill="black"/>
<path fill-rule="evenodd" clip-rule="evenodd" d="M34.0922 2.39288L34.1212 2.37961C35.3634 1.81023 36.838 1.75098 37.8643 1.75098H47.8891C49.2214 1.75098 50.3095 2.36672 51.0144 3.14994C51.6189 3.82159 51.8871 4.54132 52.014 4.96419C52.0818 5.19016 52.1344 5.41957 52.1751 5.64743H51.5262C50.5121 5.64743 49.8056 5.73887 49.4066 5.92174C49.0242 6.10461 48.833 6.41217 48.833 6.84442V22.6297C48.833 22.8791 48.9743 23.062 49.2569 23.1784C49.5396 23.2947 50.0882 23.3529 50.9028 23.3529H52.2046C52.2007 23.3687 52.1968 23.3845 52.1929 23.4002C52.0757 23.8689 51.8562 24.595 51.393 25.2898C50.9143 26.0078 49.7588 27.2494 47.8143 27.2494H37.2409C36.7543 27.2494 36.2659 27.2326 35.8075 27.184C35.41 27.1418 34.7665 27.0511 34.1114 26.7813C33.5365 26.5446 32.7951 26.1145 32.1938 25.3364C31.6237 24.5986 31.3403 23.7545 31.2849 22.9332C31.6215 22.8457 31.9334 22.7446 32.2204 22.6297C32.7044 22.436 33.1179 22.2033 33.4609 21.9315C34.475 21.1335 34.9821 19.9033 34.9821 18.2408C34.9821 16.811 34.7244 15.7969 34.209 15.1984C33.6937 14.5999 33.0453 14.2176 32.2639 14.0513C32.7793 13.9682 33.2531 13.6024 33.6854 12.9541C34.1342 12.3057 34.3587 11.3331 34.3587 10.0364C34.3587 9.3714 34.2755 8.78953 34.1093 8.29078C33.9174 7.74715 33.5684 7.26503 33.0621 6.84442C32.7788 6.60903 32.4462 6.39291 32.0644 6.19605C31.8612 6.09281 31.6257 5.9996 31.358 5.91639C31.4586 5.36568 31.6589 4.78962 32.0053 4.2325C32.5563 3.34605 33.318 2.76315 34.0635 2.40662L34.0922 2.39288ZM48.6323 20.3113C48.6356 20.151 48.6372 19.9845 48.6372 19.8118C48.6372 18.6481 48.4627 18.0662 48.1135 18.0662C47.7318 18.0662 47.2413 18.0793 46.6422 18.1055C46.6333 18.1058 46.6244 18.1062 46.6154 18.1066C46.429 18.1148 46.2322 18.1243 46.025 18.135C44.9873 18.1887 43.6884 18.2739 42.1286 18.3904V16.7944L46.6422 16.8942C46.9415 16.8942 47.1742 16.6282 47.3405 16.0962C47.4508 15.7651 47.5279 15.3432 47.5716 14.8306C47.5785 14.7498 47.5846 14.6668 47.5899 14.5815C47.5979 14.4513 47.6039 14.3159 47.6081 14.1752C47.6126 14.0236 47.6148 13.8659 47.6148 13.7022C47.6148 13.5006 47.6065 13.3185 47.5899 13.1557C47.5201 12.4726 47.304 12.1311 46.9415 12.1311C46.7147 12.1311 46.4092 12.1357 46.025 12.1449C45.142 12.166 43.8432 12.2112 42.1286 12.2808V10.61C43.7095 10.7434 45.0083 10.8357 46.025 10.8867C46.3614 10.9036 46.6669 10.916 46.9415 10.9238C47.1811 10.9307 47.3972 10.9341 47.5899 10.9341C47.8392 10.9341 48.0387 10.6349 48.1883 10.0364C48.2867 9.63191 48.3528 9.11242 48.3865 8.4779C48.404 8.14747 48.4128 7.78585 48.4128 7.39304C48.4128 6.2293 48.2382 5.64743 47.8891 5.64743H37.8643C36.8502 5.64743 36.1436 5.73887 35.7446 5.92174C35.3623 6.10461 35.1711 6.41217 35.1711 6.84442V22.6297C35.1711 22.8791 35.3124 23.062 35.595 23.1784C35.8776 23.2947 36.4262 23.3529 37.2409 23.3529H47.8143C48.0637 23.3529 48.2632 23.0537 48.4128 22.4552C48.5402 21.9455 48.6134 21.2309 48.6323 20.3113Z" fill="black"/>
</svg>
