<svg width="367" height="342" viewBox="0 0 367 342" fill="none" xmlns="http://www.w3.org/2000/svg">
<g clip-path="url(#clip0_1201_288)">
<path d="M271.849 39.5416C249.371 37.2223 223.175 47.5622 202.198 55.11C147.23 74.9113 95.1806 108.04 50.7515 145.701C38.7109 155.901 26.9373 166.824 18.6365 180.248C17.2119 182.586 15.813 185.098 15.7792 187.851C15.6978 191.834 18.378 195.322 20.9391 198.366C43.279 225.156 67.3139 250.472 92.8989 274.177C138.371 246.274 183.842 218.372 229.314 190.469C243.066 204.786 252.168 223.46 254.962 243.101C253.86 235.444 258.259 223.075 258.175 214.275C258.046 202.68 261.797 189.52 257.605 170.618C270.169 165.128 290.098 152.327 306.143 135.206C306.769 134.528 280.295 40.3334 271.836 39.4548L271.849 39.5416Z" fill="white"/>
<path d="M258.074 242.694C257.542 238.996 258.557 233.545 259.543 228.257C260.433 223.516 261.33 218.579 261.318 214.325C261.294 210.942 261.6 207.28 261.935 203.454C262.711 194.722 263.56 184.933 261.183 172.518C273.586 166.662 292.517 154.416 308.424 137.439C309.878 135.895 310.122 135.628 302.069 108.271C298.929 97.6354 292.749 77.3953 286.706 61.1775C278.39 38.8415 275.078 36.7064 272.145 36.4124C250.583 34.1708 225.715 43.1975 205.744 50.4727L201.117 52.1311C150.107 70.55 97.4121 102.072 48.7266 143.287C36.8144 153.397 24.5913 164.634 15.9664 178.621C14.2787 181.334 12.7067 184.35 12.6346 187.801C12.5442 192.796 15.5072 196.756 18.5279 200.388C40.8679 227.178 65.1918 252.771 90.7769 276.476L92.5216 278.08L228.776 194.485C241.109 208.071 249.265 225.396 251.873 243.539L258.083 242.64L258.074 242.694ZM254.007 168.826L254.577 171.348C257.361 184.005 256.474 194.012 255.734 202.862C255.392 206.884 255.067 210.656 255.088 214.376C255.115 217.422 254.539 221.177 253.822 224.935C249.177 211.33 241.543 198.716 231.602 188.34L229.841 186.508L93.2978 270.306C68.532 247.225 45.008 222.365 23.3396 196.397C20.9681 193.556 18.8375 190.786 18.913 187.955C18.957 186.105 19.8809 184.213 21.2959 181.93C29.4491 168.704 41.2677 157.845 52.7755 148.114C100.874 107.359 152.937 76.2316 203.279 58.0886L207.937 56.4078C227.154 49.4213 251.062 40.7314 271.105 42.6477C277.981 48.3701 300.159 121.532 302.815 134.278C287.717 150.018 268.725 162.451 256.345 167.86L253.998 168.881L254.007 168.826Z" fill="#231F20"/>
<path d="M89.5118 132.743L75.4098 143.62L61.4075 154.57L33.5827 176.729L32.5042 177.58L33.2177 178.804C41.0995 192.729 49.5399 206.359 58.5486 219.638C63.0417 226.262 67.7916 232.706 72.6057 239.106C77.4198 245.505 82.3944 251.791 87.4749 257.956L88.3136 258.949L89.4983 258.455C101.744 253.331 113.7 247.452 125.512 241.435C137.333 235.363 148.826 228.755 160.082 221.738C154.194 224.806 148.338 227.852 142.414 230.801L124.541 239.433C112.591 245.116 100.4 250.25 88.2185 255.329L90.1874 255.818C85.2257 249.618 80.3699 243.296 75.6104 236.907C70.8509 230.517 66.3161 223.97 61.7813 217.424C52.7117 204.33 44.1783 190.909 36.1585 177.129L35.7614 179.226L62.7924 156.139L76.1907 144.462L89.5214 132.688L89.5118 132.743Z" fill="#231F20"/>
<path d="M232.108 59.9843C232.108 59.9843 233.637 59.7763 236.334 59.3248C238.986 58.809 242.888 58.2329 247.422 57.262C251.978 56.3232 257.27 55.205 262.941 54.013C264.251 53.7663 265.134 53.8664 265.767 54.429C266.41 54.937 266.969 56.0778 267.368 57.3309C268.082 59.9914 268.713 63.2848 269.38 66.2184C270.738 72.259 272.119 78.3317 273.371 84.0156C274.71 89.6868 275.921 94.9691 276.973 99.5478C277.971 104.117 279.026 107.879 279.632 110.521C280.323 113.149 280.729 114.685 280.729 114.685C280.729 114.685 280.638 113.12 280.412 110.405C280.099 107.703 279.856 103.803 279.15 99.1731C278.499 94.5529 277.796 89.107 276.749 83.375C275.767 77.598 274.505 71.49 273.178 65.4269C272.432 62.3102 271.833 59.4731 270.964 56.2503C270.427 54.6629 269.71 52.8184 267.908 51.542C266.092 50.1788 263.703 50.3188 262.233 50.6778C259.227 51.4408 256.69 52.2586 254.077 53.0346C251.518 53.8203 249.087 54.5161 246.884 55.196C242.402 56.5139 238.735 57.8355 236.144 58.6436C233.543 59.5064 232.098 60.0389 232.098 60.0389L232.108 59.9843Z" fill="#231F20"/>
<path d="M216.132 217.557C215.069 224.718 214.498 231.965 214.123 239.219C213.78 246.451 213.906 253.737 214.228 261.03L216.363 259.776C210.352 255.698 204.098 251.888 197.679 248.527C191.239 245.134 184.631 242.05 177.889 239.251L175.474 238.26L175.318 240.907C174.439 255.026 173.582 269.178 171.93 283.216L174.598 281.971C164.353 275.399 154.4 268.287 145.208 260.211L143.865 259.044L143.426 260.74C142.253 265.488 141.244 270.265 140.148 275.054C139.085 279.821 137.989 284.611 137.002 289.42C138.471 284.753 139.917 280.053 141.33 275.376C142.744 270.699 144.19 266 145.494 261.304L143.712 261.833C152.664 270.316 162.254 278.209 172.698 284.929L175.027 286.411L175.366 283.684C177.147 269.556 178.656 255.379 179.107 241.128L176.536 242.784C183.22 245.432 189.738 248.388 196.143 251.662C202.516 254.958 208.806 258.409 214.929 262.168L217.29 263.628L217.032 260.936C216.353 253.749 216.067 246.574 215.899 239.365C215.732 232.156 215.933 224.927 216.222 217.686L216.132 217.557Z" fill="#231F20"/>
</g>
<g filter="url(#filter0_d_1201_288)">
<mask id="path-6-outside-1_1201_288" maskUnits="userSpaceOnUse" x="72.7787" y="78.7328" width="172.834" height="151.354" fill="black">
<rect fill="white" x="72.7787" y="78.7328" width="172.834" height="151.354"/>
<path d="M101.306 146.829L102.691 149.02C104.989 148.164 107.125 147.951 109.099 148.379C111.093 148.794 112.468 149.6 113.224 150.797C113.34 150.98 113.371 151.187 113.319 151.419C113.274 151.617 113.17 151.768 113.008 151.87L106.921 155.716C106.454 156.011 105.919 156.107 105.316 156.006C104.712 155.905 104.086 156.059 103.437 156.469C102.463 157.085 102.155 157.676 102.514 158.244C102.707 158.549 103.1 158.655 103.695 158.563C104.31 158.458 105.318 158.077 106.719 157.419C109.986 155.894 112.586 155.246 114.518 155.473C116.457 155.667 118.029 156.718 119.234 158.625C120.439 160.532 120.743 162.541 120.145 164.65C119.555 166.726 118.249 168.658 116.227 170.446L117.573 172.577C117.714 172.8 117.755 173.044 117.695 173.309C117.635 173.574 117.494 173.777 117.271 173.918L113.588 176.244C113.365 176.385 113.121 176.426 112.856 176.366C112.591 176.306 112.388 176.165 112.247 175.942L110.92 173.842C108.349 174.984 106.069 175.374 104.08 175.012C102.079 174.63 100.597 173.678 99.6358 172.156C99.5205 171.974 99.4852 171.783 99.53 171.584C99.5823 171.353 99.6998 171.179 99.8824 171.064L105.665 167.411C106.091 167.141 106.686 167.049 107.45 167.135C108.234 167.207 109.082 166.955 109.995 166.378C111.517 165.417 112.098 164.652 111.739 164.084C111.509 163.719 111.062 163.618 110.398 163.781C109.722 163.925 108.559 164.375 106.909 165.134C101.239 167.751 97.2114 167.173 94.8271 163.399C93.7375 161.674 93.4169 159.819 93.8652 157.832C94.3338 155.833 95.4875 153.997 97.3263 152.324L95.9804 150.194C95.8394 149.971 95.7987 149.727 95.8585 149.462C95.9183 149.197 96.0598 148.994 96.283 148.853L99.9656 146.526C100.189 146.385 100.433 146.345 100.698 146.404C100.963 146.464 101.165 146.606 101.306 146.829ZM127.969 143.739C128.025 143.334 127.938 142.949 127.707 142.584C127.477 142.219 127.16 141.964 126.757 141.821C126.362 141.645 125.962 141.685 125.556 141.942L122.999 143.557L124.749 146.326L127.306 144.711C127.711 144.455 127.932 144.131 127.969 143.739ZM127.96 151.409L129.844 154.392L132.675 152.603C133.142 152.309 133.39 151.939 133.421 151.493C133.46 151.015 133.357 150.583 133.113 150.197L133.094 150.167C132.851 149.781 132.507 149.53 132.064 149.412C131.641 149.282 131.217 149.352 130.791 149.621L127.96 151.409ZM136.773 157.338L126.365 163.914C126.141 164.055 125.897 164.096 125.633 164.036C125.368 163.976 125.165 163.835 125.024 163.612L112.603 143.951C112.462 143.727 112.421 143.483 112.481 143.219C112.54 142.954 112.682 142.751 112.905 142.61L123.01 136.226C125.891 134.406 128.344 133.594 130.37 133.79C132.404 133.953 134.087 135.09 135.42 137.2L135.478 137.291C136.029 138.164 136.269 139.105 136.198 140.116C136.113 141.106 135.863 141.945 135.447 142.634C136.463 142.446 137.508 142.595 138.582 143.08C139.663 143.533 140.511 144.246 141.126 145.22C143.946 149.684 142.495 153.724 136.773 157.338ZM150.412 140.419L159.786 134.496C160.009 134.355 160.253 134.315 160.518 134.375C160.783 134.434 160.985 134.576 161.126 134.799L163.838 139.09C163.979 139.314 164.019 139.558 163.959 139.822C163.9 140.087 163.758 140.29 163.535 140.431L147.678 150.449C147.455 150.59 147.211 150.631 146.946 150.571C146.681 150.511 146.478 150.37 146.337 150.146L133.916 130.485C133.775 130.262 133.735 130.018 133.794 129.753C133.854 129.488 133.996 129.285 134.219 129.144L149.832 119.281C150.055 119.14 150.299 119.099 150.564 119.159C150.829 119.218 151.032 119.36 151.173 119.583L153.884 123.874C154.025 124.098 154.066 124.342 154.006 124.607C153.946 124.871 153.805 125.074 153.581 125.215L144.451 130.984L145.662 132.901L154.123 127.556C154.346 127.415 154.59 127.374 154.855 127.434C155.12 127.494 155.323 127.635 155.464 127.858L157.964 131.815C158.105 132.038 158.145 132.282 158.086 132.547C158.026 132.812 157.884 133.015 157.661 133.156L149.2 138.501L150.412 140.419ZM169.883 128.117L179.257 122.195C179.48 122.054 179.724 122.014 179.989 122.073C180.254 122.133 180.456 122.275 180.597 122.498L183.309 126.789C183.45 127.012 183.49 127.256 183.43 127.521C183.371 127.786 183.229 127.989 183.006 128.13L167.149 138.148C166.926 138.289 166.682 138.329 166.417 138.27C166.152 138.21 165.949 138.068 165.808 137.845L153.387 118.184C153.246 117.961 153.206 117.717 153.265 117.452C153.325 117.187 153.467 116.984 153.69 116.843L169.303 106.979C169.526 106.838 169.77 106.798 170.035 106.858C170.3 106.917 170.503 107.059 170.644 107.282L173.355 111.573C173.496 111.797 173.537 112.041 173.477 112.305C173.417 112.57 173.276 112.773 173.052 112.914L163.922 118.683L165.133 120.6L173.594 115.255C173.817 115.114 174.061 115.073 174.326 115.133C174.591 115.193 174.794 115.334 174.935 115.557L177.435 119.514C177.576 119.737 177.616 119.981 177.557 120.246C177.497 120.511 177.355 120.714 177.132 120.855L168.671 126.2L169.883 128.117ZM204.764 112.979C204.902 113.062 205.016 113.175 205.106 113.317C205.195 113.459 205.214 113.646 205.162 113.877C205.117 114.076 205.003 114.233 204.821 114.348L198.581 118.29C197.952 118.687 197.343 118.689 196.753 118.295L190.464 114.136L189.216 114.924L192.888 120.737C193.029 120.96 193.07 121.204 193.01 121.469C192.95 121.734 192.809 121.937 192.586 122.078L186.62 125.847C186.397 125.988 186.153 126.028 185.888 125.969C185.623 125.909 185.42 125.767 185.279 125.544L172.858 105.883C172.717 105.66 172.677 105.416 172.736 105.151C172.796 104.886 172.938 104.683 173.161 104.542L182.17 98.8507C185.091 97.0048 187.791 96.2222 190.267 96.5027C192.731 96.763 194.739 98.1207 196.29 100.576C197.828 103.011 197.944 105.62 196.637 108.405L204.764 112.979ZM183.524 105.915L185.562 109.141L187.784 107.738C188.231 107.456 188.486 107.096 188.55 106.658C188.601 106.2 188.486 105.747 188.204 105.301C187.922 104.855 187.556 104.546 187.108 104.375C186.667 104.171 186.213 104.217 185.746 104.512L183.524 105.915ZM105.269 203.028L123.104 191.76C123.328 191.619 123.572 191.578 123.836 191.638C124.101 191.698 124.304 191.839 124.445 192.063L127.541 196.963C127.682 197.186 127.723 197.43 127.663 197.695C127.603 197.96 127.462 198.163 127.238 198.304L122.186 201.495L130.993 215.435C131.134 215.658 131.174 215.902 131.114 216.167C131.055 216.432 130.913 216.635 130.69 216.776L124.603 220.621C124.38 220.762 124.136 220.803 123.871 220.743C123.606 220.683 123.403 220.542 123.262 220.319L114.456 206.379L109.403 209.571C109.18 209.712 108.936 209.753 108.671 209.693C108.407 209.633 108.204 209.492 108.063 209.269L104.967 204.368C104.826 204.145 104.785 203.901 104.845 203.636C104.905 203.372 105.046 203.169 105.269 203.028ZM128.524 191.061C129.442 188.381 131.433 186.072 134.497 184.137C137.561 182.201 140.496 181.411 143.304 181.766C146.12 182.088 148.392 183.619 150.123 186.358L153.122 191.106C154.879 193.886 155.295 196.589 154.371 199.217C153.455 201.811 151.445 204.089 148.341 206.05C145.237 208.011 142.306 208.855 139.55 208.581C136.801 208.274 134.548 206.73 132.792 203.95L129.792 199.202C128.049 196.443 127.626 193.729 128.524 191.061ZM142.563 200.545C143.226 200.694 143.902 200.551 144.592 200.115C145.281 199.679 145.701 199.13 145.85 198.468C146 197.806 145.812 197.059 145.286 196.227L142.056 191.114C141.543 190.302 140.956 189.822 140.294 189.672C139.619 189.503 138.936 189.636 138.246 190.072C137.556 190.507 137.143 191.067 137.007 191.749C136.857 192.411 137.039 193.148 137.552 193.96L140.782 199.073C141.307 199.905 141.901 200.395 142.563 200.545ZM179.266 184.682C179.391 184.745 179.504 184.857 179.607 185.02C179.697 185.162 179.715 185.349 179.663 185.58C179.618 185.779 179.505 185.936 179.322 186.051L172.383 190.435C171.794 190.807 171.231 190.837 170.693 190.524L162.788 186.235L166.903 192.748C167.044 192.971 167.084 193.215 167.025 193.48C166.965 193.745 166.823 193.948 166.6 194.089L160.787 197.761C160.564 197.902 160.32 197.943 160.055 197.883C159.79 197.823 159.587 197.682 159.446 197.459L147.025 177.798C146.884 177.574 146.843 177.33 146.903 177.065C146.963 176.801 147.104 176.598 147.328 176.457L153.141 172.784C153.364 172.643 153.608 172.603 153.873 172.662C154.138 172.722 154.341 172.864 154.482 173.087L158.289 179.113L157.825 170.762C157.766 170.174 158.031 169.695 158.619 169.323L165.345 165.074C165.528 164.958 165.725 164.933 165.936 164.998C166.155 165.03 166.316 165.128 166.418 165.29C166.508 165.432 166.555 165.573 166.558 165.713L166.886 178.365L179.266 184.682ZM184.15 174.697L193.524 168.775C193.748 168.634 193.992 168.594 194.256 168.653C194.521 168.713 194.724 168.855 194.865 169.078L197.576 173.369C197.717 173.592 197.758 173.836 197.698 174.101C197.638 174.366 197.497 174.569 197.274 174.71L181.417 184.728C181.194 184.869 180.95 184.909 180.685 184.85C180.42 184.79 180.217 184.648 180.076 184.425L167.655 164.764C167.514 164.541 167.473 164.297 167.533 164.032C167.593 163.767 167.734 163.564 167.958 163.423L183.571 153.559C183.794 153.418 184.038 153.378 184.303 153.437C184.568 153.497 184.771 153.639 184.912 153.862L187.623 158.153C187.764 158.376 187.804 158.62 187.745 158.885C187.685 159.15 187.543 159.353 187.32 159.494L178.19 165.263L179.401 167.18L187.862 161.835C188.085 161.694 188.329 161.653 188.594 161.713C188.859 161.773 189.062 161.914 189.203 162.137L191.703 166.094C191.844 166.317 191.884 166.561 191.824 166.826C191.765 167.091 191.623 167.294 191.4 167.435L182.939 172.78L184.15 174.697ZM199.451 143.527L204.959 140.047C205.182 139.906 205.426 139.865 205.691 139.925C205.956 139.985 206.159 140.126 206.3 140.349L218.721 160.01C218.862 160.234 218.903 160.478 218.843 160.743C218.783 161.007 218.642 161.21 218.419 161.351L213.61 164.389C213.082 164.723 212.519 164.752 211.92 164.478L201.873 159.966L206.7 167.605C206.841 167.829 206.881 168.073 206.821 168.338C206.762 168.602 206.62 168.805 206.397 168.946L200.888 172.427C200.665 172.568 200.421 172.608 200.156 172.548C199.891 172.489 199.688 172.347 199.547 172.124L187.126 152.463C186.985 152.24 186.944 151.996 187.004 151.731C187.064 151.466 187.206 151.263 187.429 151.122L192.237 148.084C192.806 147.725 193.369 147.696 193.928 147.996L204.397 153.177L199.148 144.868C199.007 144.645 198.966 144.401 199.026 144.136C199.086 143.871 199.227 143.668 199.451 143.527ZM211.722 145.143C210.414 143.073 210.203 140.851 211.087 138.475C211.991 136.087 213.833 134.015 216.613 132.259C219.413 130.49 222.125 129.727 224.749 129.972C227.393 130.203 229.183 131.059 230.119 132.541C230.234 132.723 230.266 132.93 230.214 133.162C230.169 133.361 230.065 133.511 229.903 133.614L223.816 137.459C223.349 137.754 222.814 137.851 222.211 137.75C221.607 137.648 220.981 137.803 220.332 138.213C219.358 138.828 219.05 139.42 219.409 139.988C219.601 140.292 219.995 140.399 220.59 140.307C221.205 140.202 222.213 139.82 223.614 139.162C226.881 137.638 229.48 136.989 231.412 137.217C233.352 137.411 234.982 138.553 236.302 140.643C237.61 142.712 237.726 145.009 236.652 147.533C235.586 150.023 233.52 152.236 230.457 154.172C227.393 156.108 224.591 156.998 222.051 156.842C219.512 156.686 217.671 155.706 216.531 153.9C216.415 153.717 216.38 153.527 216.425 153.328C216.477 153.096 216.595 152.923 216.777 152.807L222.56 149.154C222.986 148.885 223.581 148.793 224.344 148.878C225.128 148.951 225.977 148.699 226.89 148.122C228.412 147.16 228.993 146.396 228.634 145.828C228.403 145.462 227.956 145.361 227.293 145.525C226.617 145.668 225.454 146.119 223.804 146.878C218.134 149.495 214.106 148.917 211.722 145.143Z"/>
</mask>
<path d="M101.306 146.829L102.691 149.02C104.989 148.164 107.125 147.951 109.099 148.379C111.093 148.794 112.468 149.6 113.224 150.797C113.34 150.98 113.371 151.187 113.319 151.419C113.274 151.617 113.17 151.768 113.008 151.87L106.921 155.716C106.454 156.011 105.919 156.107 105.316 156.006C104.712 155.905 104.086 156.059 103.437 156.469C102.463 157.085 102.155 157.676 102.514 158.244C102.707 158.549 103.1 158.655 103.695 158.563C104.31 158.458 105.318 158.077 106.719 157.419C109.986 155.894 112.586 155.246 114.518 155.473C116.457 155.667 118.029 156.718 119.234 158.625C120.439 160.532 120.743 162.541 120.145 164.65C119.555 166.726 118.249 168.658 116.227 170.446L117.573 172.577C117.714 172.8 117.755 173.044 117.695 173.309C117.635 173.574 117.494 173.777 117.271 173.918L113.588 176.244C113.365 176.385 113.121 176.426 112.856 176.366C112.591 176.306 112.388 176.165 112.247 175.942L110.92 173.842C108.349 174.984 106.069 175.374 104.08 175.012C102.079 174.63 100.597 173.678 99.6358 172.156C99.5205 171.974 99.4852 171.783 99.53 171.584C99.5823 171.353 99.6998 171.179 99.8824 171.064L105.665 167.411C106.091 167.141 106.686 167.049 107.45 167.135C108.234 167.207 109.082 166.955 109.995 166.378C111.517 165.417 112.098 164.652 111.739 164.084C111.509 163.719 111.062 163.618 110.398 163.781C109.722 163.925 108.559 164.375 106.909 165.134C101.239 167.751 97.2114 167.173 94.8271 163.399C93.7375 161.674 93.4169 159.819 93.8652 157.832C94.3338 155.833 95.4875 153.997 97.3263 152.324L95.9804 150.194C95.8394 149.971 95.7987 149.727 95.8585 149.462C95.9183 149.197 96.0598 148.994 96.283 148.853L99.9656 146.526C100.189 146.385 100.433 146.345 100.698 146.404C100.963 146.464 101.165 146.606 101.306 146.829ZM127.969 143.739C128.025 143.334 127.938 142.949 127.707 142.584C127.477 142.219 127.16 141.964 126.757 141.821C126.362 141.645 125.962 141.685 125.556 141.942L122.999 143.557L124.749 146.326L127.306 144.711C127.711 144.455 127.932 144.131 127.969 143.739ZM127.96 151.409L129.844 154.392L132.675 152.603C133.142 152.309 133.39 151.939 133.421 151.493C133.46 151.015 133.357 150.583 133.113 150.197L133.094 150.167C132.851 149.781 132.507 149.53 132.064 149.412C131.641 149.282 131.217 149.352 130.791 149.621L127.96 151.409ZM136.773 157.338L126.365 163.914C126.141 164.055 125.897 164.096 125.633 164.036C125.368 163.976 125.165 163.835 125.024 163.612L112.603 143.951C112.462 143.727 112.421 143.483 112.481 143.219C112.54 142.954 112.682 142.751 112.905 142.61L123.01 136.226C125.891 134.406 128.344 133.594 130.37 133.79C132.404 133.953 134.087 135.09 135.42 137.2L135.478 137.291C136.029 138.164 136.269 139.105 136.198 140.116C136.113 141.106 135.863 141.945 135.447 142.634C136.463 142.446 137.508 142.595 138.582 143.08C139.663 143.533 140.511 144.246 141.126 145.22C143.946 149.684 142.495 153.724 136.773 157.338ZM150.412 140.419L159.786 134.496C160.009 134.355 160.253 134.315 160.518 134.375C160.783 134.434 160.985 134.576 161.126 134.799L163.838 139.09C163.979 139.314 164.019 139.558 163.959 139.822C163.9 140.087 163.758 140.29 163.535 140.431L147.678 150.449C147.455 150.59 147.211 150.631 146.946 150.571C146.681 150.511 146.478 150.37 146.337 150.146L133.916 130.485C133.775 130.262 133.735 130.018 133.794 129.753C133.854 129.488 133.996 129.285 134.219 129.144L149.832 119.281C150.055 119.14 150.299 119.099 150.564 119.159C150.829 119.218 151.032 119.36 151.173 119.583L153.884 123.874C154.025 124.098 154.066 124.342 154.006 124.607C153.946 124.871 153.805 125.074 153.581 125.215L144.451 130.984L145.662 132.901L154.123 127.556C154.346 127.415 154.59 127.374 154.855 127.434C155.12 127.494 155.323 127.635 155.464 127.858L157.964 131.815C158.105 132.038 158.145 132.282 158.086 132.547C158.026 132.812 157.884 133.015 157.661 133.156L149.2 138.501L150.412 140.419ZM169.883 128.117L179.257 122.195C179.48 122.054 179.724 122.014 179.989 122.073C180.254 122.133 180.456 122.275 180.597 122.498L183.309 126.789C183.45 127.012 183.49 127.256 183.43 127.521C183.371 127.786 183.229 127.989 183.006 128.13L167.149 138.148C166.926 138.289 166.682 138.329 166.417 138.27C166.152 138.21 165.949 138.068 165.808 137.845L153.387 118.184C153.246 117.961 153.206 117.717 153.265 117.452C153.325 117.187 153.467 116.984 153.69 116.843L169.303 106.979C169.526 106.838 169.77 106.798 170.035 106.858C170.3 106.917 170.503 107.059 170.644 107.282L173.355 111.573C173.496 111.797 173.537 112.041 173.477 112.305C173.417 112.57 173.276 112.773 173.052 112.914L163.922 118.683L165.133 120.6L173.594 115.255C173.817 115.114 174.061 115.073 174.326 115.133C174.591 115.193 174.794 115.334 174.935 115.557L177.435 119.514C177.576 119.737 177.616 119.981 177.557 120.246C177.497 120.511 177.355 120.714 177.132 120.855L168.671 126.2L169.883 128.117ZM204.764 112.979C204.902 113.062 205.016 113.175 205.106 113.317C205.195 113.459 205.214 113.646 205.162 113.877C205.117 114.076 205.003 114.233 204.821 114.348L198.581 118.29C197.952 118.687 197.343 118.689 196.753 118.295L190.464 114.136L189.216 114.924L192.888 120.737C193.029 120.96 193.07 121.204 193.01 121.469C192.95 121.734 192.809 121.937 192.586 122.078L186.62 125.847C186.397 125.988 186.153 126.028 185.888 125.969C185.623 125.909 185.42 125.767 185.279 125.544L172.858 105.883C172.717 105.66 172.677 105.416 172.736 105.151C172.796 104.886 172.938 104.683 173.161 104.542L182.17 98.8507C185.091 97.0048 187.791 96.2222 190.267 96.5027C192.731 96.763 194.739 98.1207 196.29 100.576C197.828 103.011 197.944 105.62 196.637 108.405L204.764 112.979ZM183.524 105.915L185.562 109.141L187.784 107.738C188.231 107.456 188.486 107.096 188.55 106.658C188.601 106.2 188.486 105.747 188.204 105.301C187.922 104.855 187.556 104.546 187.108 104.375C186.667 104.171 186.213 104.217 185.746 104.512L183.524 105.915ZM105.269 203.028L123.104 191.76C123.328 191.619 123.572 191.578 123.836 191.638C124.101 191.698 124.304 191.839 124.445 192.063L127.541 196.963C127.682 197.186 127.723 197.43 127.663 197.695C127.603 197.96 127.462 198.163 127.238 198.304L122.186 201.495L130.993 215.435C131.134 215.658 131.174 215.902 131.114 216.167C131.055 216.432 130.913 216.635 130.69 216.776L124.603 220.621C124.38 220.762 124.136 220.803 123.871 220.743C123.606 220.683 123.403 220.542 123.262 220.319L114.456 206.379L109.403 209.571C109.18 209.712 108.936 209.753 108.671 209.693C108.407 209.633 108.204 209.492 108.063 209.269L104.967 204.368C104.826 204.145 104.785 203.901 104.845 203.636C104.905 203.372 105.046 203.169 105.269 203.028ZM128.524 191.061C129.442 188.381 131.433 186.072 134.497 184.137C137.561 182.201 140.496 181.411 143.304 181.766C146.12 182.088 148.392 183.619 150.123 186.358L153.122 191.106C154.879 193.886 155.295 196.589 154.371 199.217C153.455 201.811 151.445 204.089 148.341 206.05C145.237 208.011 142.306 208.855 139.55 208.581C136.801 208.274 134.548 206.73 132.792 203.95L129.792 199.202C128.049 196.443 127.626 193.729 128.524 191.061ZM142.563 200.545C143.226 200.694 143.902 200.551 144.592 200.115C145.281 199.679 145.701 199.13 145.85 198.468C146 197.806 145.812 197.059 145.286 196.227L142.056 191.114C141.543 190.302 140.956 189.822 140.294 189.672C139.619 189.503 138.936 189.636 138.246 190.072C137.556 190.507 137.143 191.067 137.007 191.749C136.857 192.411 137.039 193.148 137.552 193.96L140.782 199.073C141.307 199.905 141.901 200.395 142.563 200.545ZM179.266 184.682C179.391 184.745 179.504 184.857 179.607 185.02C179.697 185.162 179.715 185.349 179.663 185.58C179.618 185.779 179.505 185.936 179.322 186.051L172.383 190.435C171.794 190.807 171.231 190.837 170.693 190.524L162.788 186.235L166.903 192.748C167.044 192.971 167.084 193.215 167.025 193.48C166.965 193.745 166.823 193.948 166.6 194.089L160.787 197.761C160.564 197.902 160.32 197.943 160.055 197.883C159.79 197.823 159.587 197.682 159.446 197.459L147.025 177.798C146.884 177.574 146.843 177.33 146.903 177.065C146.963 176.801 147.104 176.598 147.328 176.457L153.141 172.784C153.364 172.643 153.608 172.603 153.873 172.662C154.138 172.722 154.341 172.864 154.482 173.087L158.289 179.113L157.825 170.762C157.766 170.174 158.031 169.695 158.619 169.323L165.345 165.074C165.528 164.958 165.725 164.933 165.936 164.998C166.155 165.03 166.316 165.128 166.418 165.29C166.508 165.432 166.555 165.573 166.558 165.713L166.886 178.365L179.266 184.682ZM184.15 174.697L193.524 168.775C193.748 168.634 193.992 168.594 194.256 168.653C194.521 168.713 194.724 168.855 194.865 169.078L197.576 173.369C197.717 173.592 197.758 173.836 197.698 174.101C197.638 174.366 197.497 174.569 197.274 174.71L181.417 184.728C181.194 184.869 180.95 184.909 180.685 184.85C180.42 184.79 180.217 184.648 180.076 184.425L167.655 164.764C167.514 164.541 167.473 164.297 167.533 164.032C167.593 163.767 167.734 163.564 167.958 163.423L183.571 153.559C183.794 153.418 184.038 153.378 184.303 153.437C184.568 153.497 184.771 153.639 184.912 153.862L187.623 158.153C187.764 158.376 187.804 158.62 187.745 158.885C187.685 159.15 187.543 159.353 187.32 159.494L178.19 165.263L179.401 167.18L187.862 161.835C188.085 161.694 188.329 161.653 188.594 161.713C188.859 161.773 189.062 161.914 189.203 162.137L191.703 166.094C191.844 166.317 191.884 166.561 191.824 166.826C191.765 167.091 191.623 167.294 191.4 167.435L182.939 172.78L184.15 174.697ZM199.451 143.527L204.959 140.047C205.182 139.906 205.426 139.865 205.691 139.925C205.956 139.985 206.159 140.126 206.3 140.349L218.721 160.01C218.862 160.234 218.903 160.478 218.843 160.743C218.783 161.007 218.642 161.21 218.419 161.351L213.61 164.389C213.082 164.723 212.519 164.752 211.92 164.478L201.873 159.966L206.7 167.605C206.841 167.829 206.881 168.073 206.821 168.338C206.762 168.602 206.62 168.805 206.397 168.946L200.888 172.427C200.665 172.568 200.421 172.608 200.156 172.548C199.891 172.489 199.688 172.347 199.547 172.124L187.126 152.463C186.985 152.24 186.944 151.996 187.004 151.731C187.064 151.466 187.206 151.263 187.429 151.122L192.237 148.084C192.806 147.725 193.369 147.696 193.928 147.996L204.397 153.177L199.148 144.868C199.007 144.645 198.966 144.401 199.026 144.136C199.086 143.871 199.227 143.668 199.451 143.527ZM211.722 145.143C210.414 143.073 210.203 140.851 211.087 138.475C211.991 136.087 213.833 134.015 216.613 132.259C219.413 130.49 222.125 129.727 224.749 129.972C227.393 130.203 229.183 131.059 230.119 132.541C230.234 132.723 230.266 132.93 230.214 133.162C230.169 133.361 230.065 133.511 229.903 133.614L223.816 137.459C223.349 137.754 222.814 137.851 222.211 137.75C221.607 137.648 220.981 137.803 220.332 138.213C219.358 138.828 219.05 139.42 219.409 139.988C219.601 140.292 219.995 140.399 220.59 140.307C221.205 140.202 222.213 139.82 223.614 139.162C226.881 137.638 229.48 136.989 231.412 137.217C233.352 137.411 234.982 138.553 236.302 140.643C237.61 142.712 237.726 145.009 236.652 147.533C235.586 150.023 233.52 152.236 230.457 154.172C227.393 156.108 224.591 156.998 222.051 156.842C219.512 156.686 217.671 155.706 216.531 153.9C216.415 153.717 216.38 153.527 216.425 153.328C216.477 153.096 216.595 152.923 216.777 152.807L222.56 149.154C222.986 148.885 223.581 148.793 224.344 148.878C225.128 148.951 225.977 148.699 226.89 148.122C228.412 147.16 228.993 146.396 228.634 145.828C228.403 145.462 227.956 145.361 227.293 145.525C226.617 145.668 225.454 146.119 223.804 146.878C218.134 149.495 214.106 148.917 211.722 145.143Z" fill="url(#paint0_linear_1201_288)"/>
<path d="M102.691 149.02L100.155 150.623L101.455 152.681L103.738 151.832L102.691 149.02ZM109.099 148.379L108.463 151.31L108.475 151.313L108.487 151.316L109.099 148.379ZM113.319 151.419L116.245 152.079L116.245 152.079L113.319 151.419ZM105.316 156.006L104.819 158.965L104.819 158.965L105.316 156.006ZM103.695 158.563L104.153 161.528L104.176 161.524L104.199 161.52L103.695 158.563ZM106.719 157.419L105.451 154.7L105.444 154.703L106.719 157.419ZM114.518 155.473L114.167 158.452L114.193 158.455L114.219 158.458L114.518 155.473ZM120.145 164.65L123.031 165.47L123.031 165.468L120.145 164.65ZM116.227 170.446L114.24 168.199L112.328 169.891L113.691 172.049L116.227 170.446ZM117.695 173.309L120.622 173.969L120.622 173.969L117.695 173.309ZM112.856 176.366L113.516 173.44L113.516 173.44L112.856 176.366ZM110.92 173.842L113.457 172.239L112.072 170.048L109.703 171.1L110.92 173.842ZM104.08 175.012L103.518 177.959L103.53 177.961L103.543 177.964L104.08 175.012ZM99.53 171.584L102.456 172.245L99.53 171.584ZM107.45 167.135L107.116 170.116L107.145 170.119L107.173 170.122L107.45 167.135ZM110.398 163.781L111.02 166.716L111.068 166.706L111.116 166.694L110.398 163.781ZM106.909 165.134L105.656 162.408L105.652 162.41L106.909 165.134ZM93.8652 157.832L90.9443 157.148L90.9415 157.16L90.9388 157.172L93.8652 157.832ZM97.3263 152.324L99.345 154.543L101.207 152.85L99.8626 150.722L97.3263 152.324ZM95.8585 149.462L92.9321 148.801L92.9321 148.801L95.8585 149.462ZM100.698 146.404L101.358 143.478L101.358 143.478L100.698 146.404ZM98.7702 148.431L100.155 150.623L105.227 147.418L103.843 145.227L98.7702 148.431ZM103.738 151.832C105.614 151.133 107.16 151.028 108.463 151.31L109.734 145.447C107.09 144.873 104.364 145.196 101.644 146.209L103.738 151.832ZM108.487 151.316C110.038 151.638 110.526 152.144 110.688 152.399L115.76 149.195C114.409 147.056 112.148 145.949 109.71 145.442L108.487 151.316ZM110.688 152.399C110.531 152.152 110.417 151.859 110.368 151.541C110.321 151.228 110.347 150.959 110.392 150.758L116.245 152.079C116.453 151.156 116.345 150.12 115.76 149.195L110.688 152.399ZM110.392 150.758C110.444 150.528 110.548 150.254 110.736 149.98C110.926 149.704 111.161 149.489 111.406 149.334L114.61 154.407C115.489 153.851 116.037 153.001 116.245 152.079L110.392 150.758ZM111.406 149.334L105.319 153.18L108.523 158.252L114.61 154.407L111.406 149.334ZM105.319 153.18C105.406 153.124 105.518 153.079 105.636 153.057C105.749 153.037 105.816 153.048 105.813 153.048L104.819 158.965C106.065 159.174 107.363 158.985 108.523 158.252L105.319 153.18ZM105.813 153.048C104.31 152.795 102.943 153.233 101.834 153.933L105.039 159.006C105.142 158.941 105.165 158.946 105.112 158.959C105.084 158.965 105.042 158.973 104.988 158.975C104.934 158.978 104.876 158.974 104.819 158.965L105.813 153.048ZM101.834 153.933C101.184 154.344 100.332 154.995 99.8138 155.991C99.1633 157.243 99.2342 158.669 99.9781 159.847L105.051 156.642C105.195 156.871 105.347 157.227 105.367 157.681C105.387 158.136 105.267 158.509 105.138 158.758C105.019 158.987 104.899 159.1 104.888 159.11C104.873 159.124 104.911 159.086 105.039 159.006L101.834 153.933ZM99.9781 159.847C101.172 161.737 103.243 161.668 104.153 161.528L103.237 155.598C103.173 155.608 103.383 155.561 103.735 155.656C104.162 155.771 104.691 156.073 105.051 156.642L99.9781 159.847ZM104.199 161.52C105.262 161.339 106.604 160.787 107.995 160.134L105.444 154.703C104.786 155.012 104.259 155.238 103.851 155.393C103.648 155.469 103.489 155.523 103.369 155.559C103.245 155.596 103.191 155.606 103.191 155.606L104.199 161.52ZM107.988 160.137C111.116 158.677 113.086 158.325 114.167 158.452L114.868 152.494C112.085 152.166 108.856 153.111 105.451 154.7L107.988 160.137ZM114.219 158.458C115.088 158.545 115.899 158.962 116.698 160.227L121.77 157.023C120.16 154.473 117.826 152.789 114.816 152.488L114.219 158.458ZM116.698 160.227C117.463 161.438 117.616 162.569 117.259 163.832L123.031 165.468C123.869 162.512 123.416 159.627 121.77 157.023L116.698 160.227ZM117.259 163.83C116.861 165.231 115.939 166.696 114.24 168.199L118.215 172.694C120.559 170.62 122.248 168.221 123.031 165.47L117.259 163.83ZM113.691 172.049L115.037 174.179L120.109 170.975L118.764 168.844L113.691 172.049ZM115.037 174.179C114.908 173.976 114.8 173.718 114.75 173.42C114.701 173.123 114.722 172.858 114.769 172.649L120.622 173.969C120.851 172.953 120.689 171.892 120.109 170.975L115.037 174.179ZM114.769 172.649C114.816 172.44 114.911 172.191 115.083 171.944C115.256 171.696 115.465 171.51 115.668 171.382L118.873 176.454C119.79 175.875 120.392 174.986 120.622 173.969L114.769 172.649ZM115.668 171.382L111.986 173.708L115.19 178.781L118.873 176.454L115.668 171.382ZM111.986 173.708C112.189 173.58 112.447 173.471 112.745 173.421C113.042 173.372 113.307 173.393 113.516 173.44L112.196 179.293C113.212 179.522 114.273 179.36 115.19 178.781L111.986 173.708ZM113.516 173.44C113.725 173.487 113.974 173.582 114.221 173.754C114.469 173.927 114.655 174.136 114.783 174.339L109.711 177.544C110.29 178.461 111.179 179.063 112.196 179.293L113.516 173.44ZM114.783 174.339L113.457 172.239L108.384 175.444L109.711 177.544L114.783 174.339ZM109.703 171.1C107.473 172.09 105.822 172.28 104.617 172.061L103.543 177.964C106.315 178.468 109.225 177.877 112.138 176.584L109.703 171.1ZM104.643 172.065C103.338 171.816 102.629 171.278 102.172 170.554L97.0996 173.759C98.5651 176.078 100.819 177.444 103.518 177.959L104.643 172.065ZM102.172 170.554C102.295 170.749 102.413 171.01 102.473 171.331C102.533 171.655 102.519 171.968 102.456 172.245L96.6036 170.924C96.3722 171.95 96.5879 172.949 97.0996 173.759L102.172 170.554ZM102.456 172.245C102.411 172.445 102.319 172.7 102.142 172.962C101.961 173.228 101.732 173.444 101.485 173.6L98.2801 168.528C97.3544 169.112 96.8118 170.001 96.6036 170.924L102.456 172.245ZM101.485 173.6L107.267 169.947L104.063 164.874L98.2801 168.528L101.485 173.6ZM107.267 169.947C107.072 170.07 106.921 170.1 106.889 170.104C106.864 170.108 106.929 170.095 107.116 170.116L107.783 164.153C106.68 164.03 105.298 164.094 104.063 164.874L107.267 169.947ZM107.173 170.122C108.822 170.275 110.33 169.715 111.597 168.915L108.393 163.842C107.834 164.195 107.645 164.14 107.726 164.147L107.173 170.122ZM111.597 168.915C112.444 168.38 113.339 167.717 113.961 166.899C114.284 166.474 114.657 165.847 114.791 165.041C114.94 164.152 114.761 163.251 114.276 162.482L109.203 165.686C108.897 165.201 108.78 164.609 108.873 164.053C108.952 163.58 109.151 163.311 109.184 163.268C109.225 163.214 109.207 163.252 109.057 163.375C108.914 163.492 108.7 163.648 108.393 163.842L111.597 168.915ZM114.276 162.482C112.98 160.432 110.745 160.606 109.68 160.869L111.116 166.694C111.2 166.674 110.969 166.751 110.571 166.661C110.353 166.612 110.089 166.513 109.826 166.331C109.559 166.148 109.351 165.921 109.203 165.686L114.276 162.482ZM109.777 160.847C108.73 161.068 107.285 161.66 105.656 162.408L108.163 167.86C109.834 167.091 110.714 166.781 111.02 166.716L109.777 160.847ZM105.652 162.41C103.082 163.596 101.273 163.867 100.062 163.694C99.0091 163.542 98.1378 163.022 97.3634 161.797L92.2909 165.001C93.9007 167.55 96.2352 169.206 99.2095 169.633C102.026 170.037 105.066 169.289 108.167 167.858L105.652 162.41ZM97.3634 161.797C96.6979 160.743 96.5188 159.702 96.7916 158.493L90.9388 157.172C90.315 159.936 90.7772 162.605 92.2909 165.001L97.3634 161.797ZM96.786 158.517C97.0892 157.223 97.8592 155.895 99.345 154.543L95.3076 150.105C93.1157 152.099 91.5783 154.442 90.9443 157.148L96.786 158.517ZM99.8626 150.722L98.5166 148.591L93.4441 151.796L94.7901 153.927L99.8626 150.722ZM98.5166 148.591C98.6451 148.795 98.7538 149.052 98.8034 149.351C98.8528 149.647 98.8321 149.913 98.7849 150.122L92.9321 148.801C92.7028 149.817 92.8648 150.879 93.4441 151.796L98.5166 148.591ZM98.7849 150.122C98.7377 150.331 98.6424 150.58 98.4704 150.827C98.2974 151.075 98.0887 151.261 97.8853 151.389L94.6806 146.317C93.7636 146.896 93.1614 147.785 92.9321 148.801L98.7849 150.122ZM97.8853 151.389L101.568 149.063L98.3633 143.99L94.6806 146.317L97.8853 151.389ZM101.568 149.063C101.364 149.191 101.107 149.3 100.809 149.349C100.512 149.399 100.246 149.378 100.037 149.331L101.358 143.478C100.342 143.249 99.2803 143.411 98.3633 143.99L101.568 149.063ZM100.037 149.331C99.8282 149.284 99.5795 149.188 99.3328 149.016C99.0847 148.843 98.8988 148.635 98.7702 148.431L103.843 145.227C103.263 144.31 102.374 143.707 101.358 143.478L100.037 149.331ZM127.969 143.739L124.998 143.324L124.988 143.393L124.981 143.462L127.969 143.739ZM126.757 141.821L125.536 144.561L125.643 144.609L125.753 144.648L126.757 141.821ZM122.999 143.557L121.397 141.021L118.861 142.623L120.463 145.159L122.999 143.557ZM124.749 146.326L122.213 147.929L123.815 150.465L126.351 148.863L124.749 146.326ZM127.96 151.409L126.358 148.873L123.822 150.475L125.424 153.011L127.96 151.409ZM129.844 154.392L127.308 155.994L128.91 158.53L131.447 156.928L129.844 154.392ZM133.421 151.493L130.431 151.253L130.43 151.269L130.428 151.285L133.421 151.493ZM132.064 149.412L131.181 152.28L131.238 152.297L131.296 152.312L132.064 149.412ZM125.633 164.036L126.293 161.11L125.633 164.036ZM112.481 143.219L115.407 143.879L115.407 143.879L112.481 143.219ZM130.37 133.79L130.081 136.776L130.106 136.779L130.13 136.781L130.37 133.79ZM136.198 140.116L139.187 140.37L139.189 140.349L139.19 140.327L136.198 140.116ZM135.447 142.634L132.879 141.082L129.423 146.799L135.992 145.584L135.447 142.634ZM138.582 143.08L137.345 145.814L137.384 145.831L137.423 145.848L138.582 143.08ZM130.94 144.154C131.1 143.004 130.83 141.909 130.244 140.981L125.171 144.186C125.121 144.107 125.058 143.979 125.02 143.808C124.98 143.635 124.977 143.467 124.998 143.324L130.94 144.154ZM130.244 140.981C129.658 140.055 128.805 139.365 127.762 138.994L125.753 144.648C125.655 144.613 125.536 144.553 125.419 144.459C125.303 144.365 125.222 144.266 125.171 144.186L130.244 140.981ZM127.979 139.081C126.555 138.447 125.098 138.682 123.954 139.405L127.158 144.478C127.043 144.551 126.804 144.67 126.459 144.704C126.101 144.74 125.778 144.669 125.536 144.561L127.979 139.081ZM123.954 139.405L121.397 141.021L124.602 146.093L127.158 144.478L123.954 139.405ZM120.463 145.159L122.213 147.929L127.285 144.724L125.536 141.954L120.463 145.159ZM126.351 148.863L128.908 147.247L125.703 142.175L123.147 143.79L126.351 148.863ZM128.908 147.247C129.909 146.615 130.815 145.54 130.956 144.015L124.981 143.462C125.01 143.153 125.12 142.846 125.297 142.586C125.463 142.342 125.635 142.218 125.703 142.175L128.908 147.247ZM125.424 153.011L127.308 155.994L132.381 152.789L130.496 149.807L125.424 153.011ZM131.447 156.928L134.277 155.14L131.073 150.067L128.242 151.855L131.447 156.928ZM134.277 155.14C135.338 154.469 136.301 153.326 136.414 151.701L130.428 151.285C130.449 150.984 130.553 150.683 130.722 150.431C130.878 150.198 131.035 150.091 131.073 150.067L134.277 155.14ZM136.412 151.733C136.499 150.644 136.259 149.559 135.65 148.595L130.577 151.8C130.527 151.72 130.482 151.618 130.454 151.503C130.427 151.39 130.427 151.302 130.431 151.253L136.412 151.733ZM135.65 148.595L135.631 148.564L130.558 151.769L130.577 151.8L135.65 148.595ZM135.631 148.564C134.98 147.535 134.003 146.823 132.832 146.512L131.296 152.312C131.184 152.283 131.034 152.221 130.882 152.109C130.729 151.997 130.623 151.872 130.558 151.769L135.631 148.564ZM132.947 146.545C131.566 146.12 130.24 146.42 129.188 147.085L132.393 152.157C132.323 152.201 132.16 152.287 131.913 152.327C131.655 152.37 131.399 152.347 131.181 152.28L132.947 146.545ZM129.188 147.085L126.358 148.873L129.562 153.945L132.393 152.157L129.188 147.085ZM135.171 154.802L124.762 161.378L127.967 166.451L138.376 159.875L135.171 154.802ZM124.762 161.378C124.966 161.25 125.223 161.141 125.522 161.091C125.818 161.042 126.084 161.063 126.293 161.11L124.972 166.963C125.988 167.192 127.05 167.03 127.967 166.451L124.762 161.378ZM126.293 161.11C126.502 161.157 126.751 161.252 126.997 161.424C127.246 161.597 127.431 161.806 127.56 162.009L122.487 165.214C123.067 166.131 123.956 166.733 124.972 166.963L126.293 161.11ZM127.56 162.009L115.139 142.348L110.066 145.553L122.487 165.214L127.56 162.009ZM115.139 142.348C115.267 142.552 115.376 142.809 115.426 143.108C115.475 143.404 115.454 143.67 115.407 143.879L109.554 142.558C109.325 143.574 109.487 144.636 110.066 145.553L115.139 142.348ZM115.407 143.879C115.36 144.088 115.265 144.337 115.093 144.583C114.92 144.832 114.711 145.017 114.507 145.146L111.303 140.074C110.386 140.653 109.784 141.542 109.554 142.558L115.407 143.879ZM114.507 145.146L124.612 138.762L121.407 133.69L111.303 140.074L114.507 145.146ZM124.612 138.762C127.276 137.079 129.035 136.675 130.081 136.776L130.66 130.804C127.654 130.513 124.505 131.733 121.407 133.69L124.612 138.762ZM130.13 136.781C131.01 136.851 131.929 137.291 132.884 138.802L137.956 135.598C136.245 132.889 133.797 131.055 130.61 130.8L130.13 136.781ZM132.884 138.802L132.942 138.894L138.014 135.689L137.956 135.598L132.884 138.802ZM132.942 138.894C133.158 139.237 133.23 139.544 133.205 139.904L139.19 140.327C139.307 138.666 138.9 137.091 138.014 135.689L132.942 138.894ZM133.208 139.861C133.154 140.498 133.008 140.869 132.879 141.082L138.014 144.186C138.718 143.021 139.072 141.714 139.187 140.37L133.208 139.861ZM135.992 145.584C136.325 145.522 136.749 145.544 137.345 145.814L139.819 140.347C138.268 139.645 136.601 139.369 134.901 139.684L135.992 145.584ZM137.423 145.848C137.946 146.067 138.309 146.379 138.59 146.823L143.662 143.618C142.712 142.114 141.379 140.999 139.741 140.313L137.423 145.848ZM138.59 146.823C139.632 148.472 139.671 149.634 139.329 150.584C138.928 151.703 137.772 153.159 135.171 154.802L138.376 159.875C141.497 157.903 143.927 155.532 144.976 152.612C146.086 149.522 145.44 146.432 143.662 143.618L138.59 146.823ZM150.412 140.419L147.875 142.021L149.478 144.557L152.014 142.955L150.412 140.419ZM163.959 139.822L161.033 139.162L163.959 139.822ZM146.946 150.571L147.607 147.644L146.946 150.571ZM133.794 129.753L136.721 130.414L136.721 130.414L133.794 129.753ZM150.564 119.159L149.904 122.085L149.904 122.085L150.564 119.159ZM154.006 124.607L151.079 123.946L151.079 123.946L154.006 124.607ZM144.451 130.984L142.849 128.447L140.312 130.05L141.915 132.586L144.451 130.984ZM145.662 132.901L143.126 134.503L144.728 137.04L147.265 135.437L145.662 132.901ZM154.855 127.434L155.516 124.508L155.516 124.508L154.855 127.434ZM158.086 132.547L161.012 133.207L161.012 133.207L158.086 132.547ZM149.2 138.501L147.598 135.965L145.062 137.567L146.664 140.104L149.2 138.501ZM152.014 142.955L161.388 137.033L158.183 131.96L148.809 137.882L152.014 142.955ZM161.388 137.033C161.184 137.161 160.927 137.27 160.629 137.319C160.332 137.369 160.066 137.348 159.857 137.301L161.178 131.448C160.162 131.219 159.1 131.381 158.183 131.96L161.388 137.033ZM159.857 137.301C159.648 137.254 159.399 137.158 159.153 136.986C158.905 136.813 158.719 136.605 158.59 136.401L163.663 133.197C163.083 132.28 162.194 131.677 161.178 131.448L159.857 137.301ZM158.59 136.401L161.301 140.693L166.374 137.488L163.663 133.197L158.59 136.401ZM161.301 140.693C161.173 140.489 161.064 140.232 161.015 139.933C160.965 139.637 160.986 139.371 161.033 139.162L166.886 140.483C167.115 139.467 166.953 138.405 166.374 137.488L161.301 140.693ZM161.033 139.162C161.08 138.953 161.176 138.704 161.348 138.458C161.521 138.209 161.729 138.024 161.933 137.895L165.137 142.967C166.054 142.388 166.657 141.499 166.886 140.483L161.033 139.162ZM161.933 137.895L146.076 147.913L149.281 152.985L165.137 142.967L161.933 137.895ZM146.076 147.913C146.279 147.784 146.537 147.676 146.835 147.626C147.132 147.577 147.398 147.597 147.607 147.644L146.286 153.497C147.302 153.727 148.364 153.565 149.281 152.985L146.076 147.913ZM147.607 147.644C147.816 147.692 148.064 147.787 148.311 147.959C148.559 148.132 148.745 148.341 148.874 148.544L143.801 151.749C144.381 152.666 145.27 153.268 146.286 153.497L147.607 147.644ZM148.874 148.544L136.453 128.883L131.38 132.088L143.801 151.749L148.874 148.544ZM136.453 128.883C136.581 129.086 136.69 129.344 136.739 129.642C136.789 129.939 136.768 130.205 136.721 130.414L130.868 129.093C130.639 130.109 130.801 131.171 131.38 132.088L136.453 128.883ZM136.721 130.414C136.674 130.623 136.578 130.871 136.406 131.118C136.233 131.366 136.025 131.552 135.821 131.681L132.617 126.608C131.7 127.188 131.097 128.077 130.868 129.093L136.721 130.414ZM135.821 131.681L151.434 121.817L148.23 116.744L132.617 126.608L135.821 131.681ZM151.434 121.817C151.231 121.945 150.973 122.054 150.675 122.104C150.378 122.153 150.113 122.132 149.904 122.085L151.225 116.232C150.208 116.003 149.147 116.165 148.23 116.744L151.434 121.817ZM149.904 122.085C149.695 122.038 149.446 121.943 149.199 121.771C148.951 121.598 148.765 121.389 148.637 121.185L153.709 117.981C153.13 117.064 152.241 116.462 151.225 116.232L149.904 122.085ZM148.637 121.185L151.348 125.477L156.42 122.272L153.709 117.981L148.637 121.185ZM151.348 125.477C151.219 125.273 151.111 125.016 151.061 124.717C151.012 124.421 151.032 124.155 151.079 123.946L156.932 125.267C157.162 124.251 157 123.189 156.42 122.272L151.348 125.477ZM151.079 123.946C151.127 123.737 151.222 123.488 151.394 123.242C151.567 122.994 151.776 122.808 151.979 122.679L155.184 127.752C156.101 127.172 156.703 126.283 156.932 125.267L151.079 123.946ZM151.979 122.679L142.849 128.447L146.053 133.52L155.184 127.752L151.979 122.679ZM141.915 132.586L143.126 134.503L148.199 131.299L146.987 129.381L141.915 132.586ZM147.265 135.437L155.726 130.092L152.521 125.02L144.06 130.365L147.265 135.437ZM155.726 130.092C155.522 130.221 155.265 130.329 154.966 130.379C154.67 130.428 154.404 130.408 154.195 130.36L155.516 124.508C154.499 124.278 153.438 124.44 152.521 125.02L155.726 130.092ZM154.195 130.36C153.986 130.313 153.737 130.218 153.49 130.046C153.242 129.873 153.056 129.664 152.928 129.461L158 126.256C157.421 125.339 156.532 124.737 155.516 124.508L154.195 130.36ZM152.928 129.461L155.428 133.417L160.5 130.213L158 126.256L152.928 129.461ZM155.428 133.417C155.299 133.214 155.19 132.956 155.141 132.658C155.091 132.361 155.112 132.096 155.159 131.887L161.012 133.207C161.241 132.191 161.079 131.13 160.5 130.213L155.428 133.417ZM155.159 131.887C155.206 131.678 155.302 131.429 155.474 131.182C155.647 130.934 155.855 130.748 156.059 130.62L159.263 135.692C160.18 135.113 160.783 134.224 161.012 133.207L155.159 131.887ZM156.059 130.62L147.598 135.965L150.803 141.037L159.263 135.692L156.059 130.62ZM146.664 140.104L147.875 142.021L152.948 138.816L151.736 136.899L146.664 140.104ZM169.883 128.117L167.346 129.72L168.949 132.256L171.485 130.654L169.883 128.117ZM183.43 127.521L180.504 126.861L183.43 127.521ZM166.417 138.27L167.078 135.343L166.417 138.27ZM153.265 117.452L156.192 118.112L156.192 118.112L153.265 117.452ZM170.035 106.858L169.375 109.784L169.375 109.784L170.035 106.858ZM173.477 112.305L170.551 111.645L170.551 111.645L173.477 112.305ZM163.922 118.683L162.32 116.146L159.783 117.749L161.386 120.285L163.922 118.683ZM165.133 120.6L162.597 122.202L164.199 124.739L166.736 123.136L165.133 120.6ZM174.326 115.133L174.987 112.206L174.987 112.206L174.326 115.133ZM177.557 120.246L180.483 120.906L180.483 120.906L177.557 120.246ZM168.671 126.2L167.069 123.664L164.533 125.266L166.135 127.802L168.671 126.2ZM171.485 130.654L180.859 124.732L177.654 119.659L168.28 125.581L171.485 130.654ZM180.859 124.732C180.655 124.86 180.398 124.969 180.1 125.018C179.803 125.068 179.537 125.047 179.328 125L180.649 119.147C179.633 118.918 178.571 119.08 177.654 119.659L180.859 124.732ZM179.328 125C179.119 124.953 178.87 124.857 178.624 124.685C178.376 124.512 178.19 124.304 178.061 124.1L183.134 120.896C182.554 119.979 181.665 119.376 180.649 119.147L179.328 125ZM178.061 124.1L180.772 128.392L185.845 125.187L183.134 120.896L178.061 124.1ZM180.772 128.392C180.644 128.188 180.535 127.931 180.486 127.632C180.436 127.336 180.457 127.07 180.504 126.861L186.357 128.182C186.586 127.165 186.424 126.104 185.845 125.187L180.772 128.392ZM180.504 126.861C180.551 126.652 180.647 126.403 180.819 126.156C180.992 125.908 181.2 125.722 181.404 125.594L184.608 130.666C185.525 130.087 186.128 129.198 186.357 128.182L180.504 126.861ZM181.404 125.594L165.547 135.612L168.752 140.684L184.608 130.666L181.404 125.594ZM165.547 135.612C165.75 135.483 166.008 135.374 166.306 135.325C166.603 135.275 166.869 135.296 167.078 135.343L165.757 141.196C166.773 141.425 167.835 141.263 168.752 140.684L165.547 135.612ZM167.078 135.343C167.287 135.39 167.535 135.486 167.782 135.658C168.03 135.831 168.216 136.039 168.345 136.243L163.272 139.448C163.852 140.365 164.741 140.967 165.757 141.196L167.078 135.343ZM168.345 136.243L155.924 116.582L150.851 119.787L163.272 139.448L168.345 136.243ZM155.924 116.582C156.052 116.785 156.161 117.043 156.21 117.341C156.26 117.638 156.239 117.903 156.192 118.112L150.339 116.792C150.11 117.808 150.272 118.869 150.851 119.787L155.924 116.582ZM156.192 118.112C156.145 118.322 156.049 118.57 155.877 118.817C155.704 119.065 155.496 119.251 155.292 119.38L152.088 114.307C151.171 114.886 150.568 115.775 150.339 116.792L156.192 118.112ZM155.292 119.38L170.905 109.516L167.701 104.443L152.088 114.307L155.292 119.38ZM170.905 109.516C170.702 109.644 170.444 109.753 170.146 109.802C169.849 109.852 169.584 109.831 169.375 109.784L170.696 103.931C169.679 103.702 168.618 103.864 167.701 104.443L170.905 109.516ZM169.375 109.784C169.166 109.737 168.917 109.641 168.67 109.469C168.422 109.296 168.236 109.088 168.108 108.884L173.18 105.68C172.601 104.763 171.712 104.16 170.696 103.931L169.375 109.784ZM168.108 108.884L170.819 113.176L175.891 109.971L173.18 105.68L168.108 108.884ZM170.819 113.176C170.69 112.972 170.582 112.715 170.532 112.416C170.483 112.12 170.503 111.854 170.551 111.645L176.403 112.966C176.633 111.95 176.471 110.888 175.891 109.971L170.819 113.176ZM170.551 111.645C170.598 111.436 170.693 111.187 170.865 110.941C171.038 110.692 171.247 110.507 171.45 110.378L174.655 115.45C175.572 114.871 176.174 113.982 176.403 112.966L170.551 111.645ZM171.45 110.378L162.32 116.146L165.524 121.219L174.655 115.45L171.45 110.378ZM161.386 120.285L162.597 122.202L167.67 118.998L166.458 117.08L161.386 120.285ZM166.736 123.136L175.197 117.791L171.992 112.718L163.531 118.064L166.736 123.136ZM175.197 117.791C174.993 117.919 174.736 118.028 174.437 118.078C174.141 118.127 173.875 118.106 173.666 118.059L174.987 112.206C173.971 111.977 172.909 112.139 171.992 112.718L175.197 117.791ZM173.666 118.059C173.457 118.012 173.208 117.917 172.961 117.745C172.713 117.572 172.527 117.363 172.399 117.16L177.471 113.955C176.892 113.038 176.003 112.436 174.987 112.206L173.666 118.059ZM172.399 117.16L174.899 121.116L179.971 117.911L177.471 113.955L172.399 117.16ZM174.899 121.116C174.77 120.913 174.661 120.655 174.612 120.357C174.562 120.06 174.583 119.795 174.63 119.586L180.483 120.906C180.712 119.89 180.55 118.828 179.971 117.911L174.899 121.116ZM174.63 119.585C174.677 119.376 174.773 119.128 174.945 118.881C175.118 118.633 175.326 118.447 175.53 118.318L178.735 123.391C179.652 122.812 180.254 121.923 180.483 120.906L174.63 119.585ZM175.53 118.318L167.069 123.664L170.274 128.736L178.735 123.391L175.53 118.318ZM166.135 127.802L167.346 129.72L172.419 126.515L171.208 124.598L166.135 127.802ZM204.764 112.979L206.316 110.411L206.276 110.387L206.236 110.364L204.764 112.979ZM205.162 113.877L208.088 114.538L205.162 113.877ZM196.753 118.295L198.42 115.801L198.414 115.797L198.408 115.793L196.753 118.295ZM190.464 114.136L192.118 111.633L190.501 110.564L188.861 111.599L190.464 114.136ZM189.216 114.924L187.613 112.388L185.077 113.99L186.679 116.526L189.216 114.924ZM193.01 121.469L190.084 120.809L190.084 120.809L193.01 121.469ZM185.888 125.969L186.549 123.042L185.888 125.969ZM172.736 105.151L175.663 105.811L175.663 105.811L172.736 105.151ZM190.267 96.5027L189.93 99.4837L189.941 99.4849L189.952 99.4861L190.267 96.5027ZM196.637 108.405L193.921 107.13L192.737 109.652L195.165 111.019L196.637 108.405ZM183.524 105.915L181.922 103.379L179.386 104.981L180.988 107.518L183.524 105.915ZM185.562 109.141L183.026 110.744L184.629 113.28L187.165 111.678L185.562 109.141ZM188.55 106.658L191.518 107.092L191.526 107.042L191.531 106.991L188.55 106.658ZM187.108 104.375L185.849 107.098L185.943 107.142L186.04 107.179L187.108 104.375ZM203.212 115.546C202.934 115.378 202.717 115.153 202.569 114.919L207.642 111.714C207.314 111.196 206.87 110.746 206.316 110.411L203.212 115.546ZM202.569 114.919C202.084 114.151 202.186 113.436 202.235 113.217L208.088 114.538C208.242 113.855 208.306 112.766 207.642 111.714L202.569 114.919ZM202.235 113.217C202.298 112.94 202.42 112.651 202.613 112.384C202.804 112.12 203.024 111.935 203.218 111.812L206.423 116.885C207.233 116.373 207.857 115.563 208.088 114.538L202.235 113.217ZM203.218 111.812L196.979 115.754L200.184 120.826L206.423 116.885L203.218 111.812ZM196.979 115.754C197.036 115.718 197.271 115.59 197.644 115.589C198.029 115.588 198.303 115.722 198.42 115.801L195.087 120.789C195.794 121.262 196.667 121.592 197.661 121.589C198.643 121.587 199.498 121.26 200.184 120.826L196.979 115.754ZM198.408 115.793L192.118 111.633L188.809 116.638L195.099 120.798L198.408 115.793ZM188.861 111.599L187.613 112.388L190.818 117.46L192.066 116.672L188.861 111.599ZM186.679 116.526L190.352 122.339L195.424 119.135L191.752 113.322L186.679 116.526ZM190.352 122.339C190.223 122.136 190.115 121.878 190.065 121.58C190.016 121.283 190.037 121.018 190.084 120.809L195.936 122.13C196.166 121.113 196.004 120.052 195.424 119.135L190.352 122.339ZM190.084 120.809C190.131 120.6 190.226 120.351 190.398 120.104C190.571 119.856 190.78 119.67 190.983 119.542L194.188 124.614C195.105 124.035 195.707 123.146 195.937 122.13L190.084 120.809ZM190.983 119.542L185.018 123.31L188.223 128.383L194.188 124.614L190.983 119.542ZM185.018 123.31C185.222 123.182 185.479 123.073 185.777 123.024C186.074 122.974 186.34 122.995 186.549 123.042L185.228 128.895C186.244 129.124 187.306 128.962 188.223 128.383L185.018 123.31ZM186.549 123.042C186.758 123.089 187.006 123.185 187.253 123.357C187.501 123.53 187.687 123.738 187.816 123.942L182.743 127.146C183.323 128.063 184.212 128.666 185.228 128.895L186.549 123.042ZM187.816 123.942L175.395 104.281L170.322 107.485L182.743 127.146L187.816 123.942ZM175.395 104.281C175.523 104.484 175.632 104.742 175.681 105.04C175.731 105.337 175.71 105.602 175.663 105.811L169.81 104.491C169.581 105.507 169.743 106.568 170.322 107.485L175.395 104.281ZM175.663 105.811C175.616 106.02 175.52 106.269 175.348 106.516C175.175 106.764 174.967 106.95 174.763 107.078L171.559 102.006C170.642 102.585 170.039 103.474 169.81 104.491L175.663 105.811ZM174.763 107.078L183.772 101.387L180.567 96.3145L171.559 102.006L174.763 107.078ZM183.772 101.387C186.337 99.7666 188.352 99.3049 189.93 99.4837L190.605 93.5218C187.23 93.1394 183.846 94.2431 180.567 96.3145L183.772 101.387ZM189.952 99.4861C191.341 99.6328 192.598 100.349 193.753 102.178L198.826 98.9734C196.879 95.8923 194.122 93.8932 190.582 93.5193L189.952 99.4861ZM193.753 102.178C194.702 103.679 194.828 105.197 193.921 107.13L199.353 109.679C201.059 106.044 200.954 102.342 198.826 98.9734L193.753 102.178ZM195.165 111.019L203.293 115.593L206.236 110.364L198.108 105.79L195.165 111.019ZM180.988 107.518L183.026 110.744L188.099 107.539L186.061 104.313L180.988 107.518ZM187.165 111.678L189.387 110.274L186.182 105.201L183.96 106.605L187.165 111.678ZM189.387 110.274C190.416 109.624 191.303 108.565 191.518 107.092L185.581 106.224C185.618 105.976 185.716 105.729 185.863 105.521C186.002 105.325 186.138 105.229 186.182 105.201L189.387 110.274ZM191.531 106.991C191.669 105.759 191.33 104.633 190.74 103.699L185.667 106.903C185.662 106.895 185.624 106.832 185.595 106.717C185.564 106.597 185.553 106.46 185.568 106.325L191.531 106.991ZM190.74 103.699C190.148 102.762 189.292 101.997 188.175 101.572L186.04 107.179C185.949 107.144 185.859 107.091 185.782 107.027C185.708 106.964 185.673 106.913 185.667 106.903L190.74 103.699ZM188.367 101.652C186.863 100.957 185.333 101.224 184.144 101.975L187.348 107.048C187.27 107.098 187.059 107.209 186.735 107.241C186.394 107.276 186.082 107.206 185.849 107.098L188.367 101.652ZM184.144 101.975L181.922 103.379L185.127 108.452L187.348 107.048L184.144 101.975ZM123.836 191.638L124.497 188.712L124.497 188.712L123.836 191.638ZM127.663 197.695L130.589 198.355L130.589 198.355L127.663 197.695ZM122.186 201.495L120.584 198.959L118.048 200.561L119.65 203.098L122.186 201.495ZM131.114 216.167L128.188 215.506L128.188 215.506L131.114 216.167ZM114.456 206.379L116.992 204.777L115.39 202.241L112.853 203.843L114.456 206.379ZM106.872 205.564L124.707 194.296L121.502 189.224L103.667 200.491L106.872 205.564ZM124.707 194.296C124.503 194.425 124.246 194.533 123.947 194.583C123.651 194.632 123.385 194.612 123.176 194.565L124.497 188.712C123.481 188.482 122.419 188.644 121.502 189.224L124.707 194.296ZM123.176 194.565C122.967 194.517 122.718 194.422 122.472 194.25C122.223 194.077 122.038 193.868 121.909 193.665L126.982 190.46C126.402 189.543 125.513 188.941 124.497 188.712L123.176 194.565ZM121.909 193.665L125.005 198.565L130.077 195.36L126.982 190.46L121.909 193.665ZM125.005 198.565C124.876 198.362 124.768 198.104 124.718 197.806C124.669 197.509 124.689 197.243 124.736 197.034L130.589 198.355C130.819 197.339 130.657 196.277 130.077 195.36L125.005 198.565ZM124.736 197.034C124.784 196.825 124.879 196.577 125.051 196.33C125.224 196.082 125.433 195.896 125.636 195.767L128.841 200.84C129.758 200.26 130.36 199.371 130.589 198.355L124.736 197.034ZM125.636 195.767L120.584 198.959L123.788 204.032L128.841 200.84L125.636 195.767ZM119.65 203.098L128.456 217.037L133.529 213.832L124.722 199.893L119.65 203.098ZM128.456 217.037C128.328 216.834 128.219 216.576 128.169 216.278C128.12 215.981 128.141 215.715 128.188 215.506L134.041 216.827C134.27 215.811 134.108 214.749 133.529 213.832L128.456 217.037ZM128.188 215.506C128.235 215.297 128.331 215.049 128.502 214.802C128.675 214.554 128.884 214.368 129.088 214.239L132.292 219.312C133.209 218.732 133.811 217.843 134.041 216.827L128.188 215.506ZM129.088 214.239L123.001 218.085L126.205 223.157L132.292 219.312L129.088 214.239ZM123.001 218.085C123.204 217.956 123.462 217.848 123.76 217.798C124.057 217.749 124.322 217.769 124.531 217.817L123.21 223.669C124.227 223.899 125.288 223.737 126.205 223.157L123.001 218.085ZM124.531 217.817C124.74 217.864 124.989 217.959 125.236 218.131C125.484 218.304 125.67 218.513 125.798 218.716L120.726 221.921C121.305 222.838 122.194 223.44 123.21 223.669L124.531 217.817ZM125.798 218.716L116.992 204.777L111.919 207.982L120.726 221.921L125.798 218.716ZM112.853 203.843L107.801 207.035L111.006 212.107L116.058 208.916L112.853 203.843ZM107.801 207.035C108.005 206.906 108.262 206.798 108.561 206.748C108.857 206.699 109.123 206.719 109.332 206.767L108.011 212.619C109.027 212.849 110.089 212.687 111.006 212.107L107.801 207.035ZM109.332 206.767C109.541 206.814 109.79 206.909 110.036 207.081C110.284 207.254 110.47 207.463 110.599 207.666L105.526 210.871C106.106 211.788 106.995 212.39 108.011 212.619L109.332 206.767ZM110.599 207.666L107.503 202.766L102.431 205.971L105.526 210.871L110.599 207.666ZM107.503 202.766C107.632 202.97 107.74 203.227 107.79 203.526C107.839 203.822 107.819 204.088 107.771 204.297L101.919 202.976C101.689 203.992 101.851 205.054 102.431 205.971L107.503 202.766ZM107.771 204.297C107.724 204.506 107.629 204.755 107.457 205.001C107.284 205.249 107.075 205.435 106.872 205.564L103.667 200.491C102.75 201.071 102.148 201.96 101.919 202.976L107.771 204.297ZM128.524 191.061L125.686 190.089L125.683 190.097L125.681 190.105L128.524 191.061ZM143.304 181.766L142.928 184.743L142.945 184.745L142.963 184.747L143.304 181.766ZM154.371 199.217L157.2 200.216L157.202 200.212L154.371 199.217ZM139.55 208.581L139.216 211.562L139.235 211.564L139.253 211.566L139.55 208.581ZM142.563 200.545L143.224 197.618L142.563 200.545ZM145.85 198.468L148.777 199.129L148.777 199.129L145.85 198.468ZM140.294 189.672L139.562 192.582L139.598 192.591L139.633 192.599L140.294 189.672ZM137.007 191.749L139.933 192.409L139.941 192.374L139.948 192.338L137.007 191.749ZM131.362 192.033C132.003 190.162 133.45 188.347 136.099 186.673L132.895 181.601C129.416 183.798 126.881 186.599 125.686 190.089L131.362 192.033ZM136.099 186.673C138.743 185.003 140.985 184.497 142.928 184.743L143.681 178.79C140.008 178.325 136.379 179.399 132.895 181.601L136.099 186.673ZM142.963 184.747C144.739 184.95 146.263 185.865 147.587 187.961L152.659 184.756C150.522 181.373 147.5 179.227 143.645 178.786L142.963 184.747ZM147.587 187.961L150.586 192.708L155.659 189.504L152.659 184.756L147.587 187.961ZM150.586 192.708C151.952 194.87 152.104 196.621 151.541 198.222L157.202 200.212C158.486 196.558 157.806 192.902 155.659 189.504L150.586 192.708ZM151.543 198.218C150.916 199.992 149.464 201.792 146.739 203.514L149.943 208.586C153.427 206.385 155.995 203.63 157.2 200.216L151.543 198.218ZM146.739 203.514C144.016 205.234 141.749 205.785 139.846 205.595L139.253 211.566C142.863 211.925 146.458 210.788 149.943 208.586L146.739 203.514ZM139.883 205.599C138.214 205.413 136.7 204.519 135.328 202.348L130.256 205.553C132.396 208.941 135.387 211.134 139.216 211.562L139.883 205.599ZM135.328 202.348L132.329 197.6L127.256 200.805L130.256 205.553L135.328 202.348ZM132.329 197.6C130.981 195.468 130.805 193.688 131.367 192.018L125.681 190.105C124.447 193.77 125.117 197.418 127.256 200.805L132.329 197.6ZM141.903 203.471C143.494 203.83 144.977 203.42 146.194 202.651L142.989 197.579C142.892 197.641 142.879 197.629 142.945 197.615C142.979 197.608 143.023 197.602 143.077 197.602C143.13 197.602 143.18 197.609 143.224 197.618L141.903 203.471ZM146.194 202.651C147.411 201.883 148.418 200.72 148.777 199.129L142.924 197.808C142.934 197.764 142.95 197.716 142.972 197.668C142.995 197.62 143.02 197.582 143.04 197.555C143.082 197.501 143.087 197.517 142.989 197.579L146.194 202.651ZM148.777 199.129C149.167 197.399 148.582 195.826 147.823 194.625L142.75 197.829C142.817 197.935 142.859 198.016 142.883 198.071C142.908 198.126 142.914 198.149 142.912 198.144C142.911 198.137 142.902 198.1 142.9 198.038C142.899 197.974 142.904 197.895 142.924 197.808L148.777 199.129ZM147.823 194.625L144.592 189.512L139.52 192.716L142.75 197.829L147.823 194.625ZM144.592 189.512C143.832 188.309 142.666 187.132 140.954 186.746L139.633 192.599C139.552 192.581 139.482 192.554 139.426 192.525C139.371 192.498 139.34 192.474 139.331 192.467C139.324 192.461 139.339 192.472 139.373 192.512C139.408 192.553 139.458 192.618 139.52 192.716L144.592 189.512ZM141.025 186.763C139.416 186.358 137.898 186.743 136.644 187.535L139.849 192.608C139.933 192.555 139.931 192.574 139.85 192.59C139.81 192.597 139.76 192.602 139.705 192.601C139.65 192.599 139.601 192.592 139.562 192.582L141.025 186.763ZM136.644 187.535C135.39 188.328 134.391 189.533 134.065 191.16L139.948 192.338C139.94 192.377 139.926 192.425 139.904 192.475C139.882 192.526 139.856 192.568 139.832 192.601C139.782 192.668 139.765 192.661 139.849 192.608L136.644 187.535ZM134.08 191.089C133.694 192.801 134.256 194.36 135.015 195.562L140.088 192.357C140.026 192.259 139.988 192.186 139.966 192.138C139.945 192.089 139.941 192.071 139.944 192.08C139.946 192.091 139.954 192.129 139.956 192.191C139.957 192.253 139.951 192.328 139.933 192.409L134.08 191.089ZM135.015 195.562L138.246 200.675L143.318 197.471L140.088 192.357L135.015 195.562ZM138.246 200.675C139.005 201.877 140.174 203.081 141.903 203.471L143.224 197.618C143.311 197.638 143.385 197.667 143.442 197.696C143.497 197.724 143.527 197.748 143.532 197.752C143.537 197.756 143.518 197.741 143.479 197.695C143.44 197.648 143.385 197.576 143.318 197.471L138.246 200.675ZM179.266 184.682L177.902 187.354L177.909 187.357L177.915 187.361L179.266 184.682ZM179.663 185.58L176.737 184.92L176.737 184.92L179.663 185.58ZM170.693 190.524L172.2 187.93L172.162 187.908L172.123 187.887L170.693 190.524ZM162.788 186.235L164.219 183.598L154.108 178.112L160.252 187.837L162.788 186.235ZM167.025 193.48L169.951 194.14L169.951 194.14L167.025 193.48ZM160.055 197.883L160.715 194.957L160.055 197.883ZM146.903 177.065L149.829 177.726L149.83 177.726L146.903 177.065ZM153.873 172.662L154.533 169.736L154.533 169.736L153.873 172.662ZM158.289 179.113L155.752 180.715L161.925 190.486L161.284 178.946L158.289 179.113ZM157.825 170.762L160.82 170.595L160.816 170.529L160.81 170.463L157.825 170.762ZM165.936 164.998L165.053 167.866L165.274 167.933L165.502 167.967L165.936 164.998ZM166.558 165.713L163.559 165.782L163.559 165.791L166.558 165.713ZM166.886 178.365L163.887 178.443L163.934 180.227L165.523 181.037L166.886 178.365ZM177.915 187.361C177.406 187.104 177.155 186.755 177.071 186.622L182.143 183.417C181.854 182.96 181.375 182.385 180.616 182.003L177.915 187.361ZM177.071 186.622C176.586 185.854 176.687 185.139 176.737 184.92L182.59 186.241C182.744 185.558 182.808 184.469 182.143 183.417L177.071 186.622ZM176.737 184.92C176.799 184.643 176.921 184.354 177.115 184.087C177.306 183.823 177.525 183.638 177.72 183.515L180.924 188.588C181.734 188.076 182.358 187.266 182.59 186.241L176.737 184.92ZM177.72 183.515L170.78 187.899L173.985 192.972L180.924 188.588L177.72 183.515ZM170.78 187.899C170.82 187.874 171.024 187.758 171.362 187.74C171.722 187.722 172.02 187.825 172.2 187.93L169.185 193.117C169.904 193.535 170.752 193.78 171.676 193.732C172.578 193.685 173.357 193.369 173.985 192.972L170.78 187.899ZM172.123 187.887L164.219 183.598L161.357 188.872L169.262 193.161L172.123 187.887ZM160.252 187.837L164.366 194.35L169.439 191.145L165.324 184.632L160.252 187.837ZM164.366 194.35C164.238 194.147 164.129 193.889 164.08 193.591C164.03 193.294 164.051 193.029 164.098 192.819L169.951 194.14C170.18 193.124 170.018 192.062 169.439 191.145L164.366 194.35ZM164.098 192.819C164.145 192.61 164.241 192.362 164.413 192.115C164.586 191.867 164.794 191.681 164.998 191.552L168.202 196.625C169.119 196.046 169.722 195.156 169.951 194.14L164.098 192.819ZM164.998 191.552L159.185 195.225L162.389 200.297L168.202 196.625L164.998 191.552ZM159.185 195.225C159.388 195.096 159.646 194.988 159.944 194.938C160.241 194.889 160.506 194.909 160.715 194.957L159.395 200.809C160.411 201.039 161.472 200.877 162.389 200.297L159.185 195.225ZM160.715 194.957C160.924 195.004 161.173 195.099 161.42 195.271C161.668 195.444 161.854 195.653 161.982 195.856L156.91 199.061C157.489 199.978 158.378 200.58 159.395 200.809L160.715 194.957ZM161.982 195.856L149.561 176.195L144.489 179.4L156.91 199.061L161.982 195.856ZM149.561 176.195C149.69 176.399 149.798 176.656 149.848 176.955C149.897 177.251 149.877 177.517 149.829 177.726L143.977 176.405C143.747 177.421 143.909 178.483 144.489 179.4L149.561 176.195ZM149.83 177.726C149.782 177.935 149.687 178.184 149.515 178.43C149.342 178.678 149.133 178.864 148.93 178.993L145.725 173.92C144.808 174.5 144.206 175.389 143.977 176.405L149.83 177.726ZM148.93 178.993L154.743 175.32L151.538 170.248L145.725 173.92L148.93 178.993ZM154.743 175.32C154.539 175.449 154.282 175.558 153.984 175.607C153.687 175.657 153.421 175.636 153.212 175.589L154.533 169.736C153.517 169.507 152.455 169.669 151.538 170.248L154.743 175.32ZM153.212 175.589C153.003 175.542 152.755 175.446 152.508 175.274C152.26 175.101 152.074 174.893 151.945 174.689L157.018 171.484C156.438 170.567 155.549 169.965 154.533 169.736L153.212 175.589ZM151.945 174.689L155.752 180.715L160.825 177.511L157.018 171.484L151.945 174.689ZM161.284 178.946L160.82 170.595L154.829 170.928L155.293 179.279L161.284 178.946ZM160.81 170.463C160.836 170.726 160.79 171.077 160.605 171.412C160.436 171.718 160.241 171.847 160.221 171.859L157.017 166.787C156.408 167.171 155.787 167.725 155.353 168.512C154.903 169.326 154.754 170.211 154.839 171.061L160.81 170.463ZM160.221 171.859L166.947 167.61L163.743 162.538L157.017 166.787L160.221 171.859ZM166.947 167.61C166.701 167.766 166.383 167.897 166.009 167.944C165.638 167.992 165.309 167.944 165.053 167.866L166.819 162.131C165.794 161.816 164.686 161.941 163.743 162.538L166.947 167.61ZM165.502 167.967C165.285 167.935 164.986 167.854 164.669 167.663C164.342 167.465 164.074 167.196 163.882 166.892L168.955 163.688C168.311 162.668 167.309 162.167 166.37 162.03L165.502 167.967ZM163.882 166.892C163.74 166.667 163.57 166.286 163.559 165.782L169.557 165.644C169.539 164.86 169.276 164.197 168.955 163.688L163.882 166.892ZM163.559 165.791L163.887 178.443L169.885 178.287L169.557 165.635L163.559 165.791ZM165.523 181.037L177.902 187.354L180.629 182.01L168.25 175.693L165.523 181.037ZM184.15 174.697L181.614 176.3L183.216 178.836L185.753 177.234L184.15 174.697ZM197.698 174.101L194.772 173.441L197.698 174.101ZM180.685 184.85L181.345 181.923L180.685 184.85ZM167.533 164.032L170.46 164.692L167.533 164.032ZM184.303 153.437L183.643 156.364L183.643 156.364L184.303 153.437ZM187.745 158.885L184.818 158.225L184.818 158.225L187.745 158.885ZM178.19 165.263L176.587 162.726L174.051 164.329L175.654 166.865L178.19 165.263ZM179.401 167.18L176.865 168.782L178.467 171.318L181.003 169.716L179.401 167.18ZM188.594 161.713L189.255 158.786L189.255 158.786L188.594 161.713ZM191.824 166.826L194.751 167.486L194.751 167.486L191.824 166.826ZM182.939 172.78L181.337 170.244L178.8 171.846L180.403 174.382L182.939 172.78ZM185.753 177.234L195.127 171.311L191.922 166.239L182.548 172.161L185.753 177.234ZM195.127 171.311C194.923 171.44 194.666 171.549 194.367 171.598C194.071 171.648 193.805 171.627 193.596 171.58L194.917 165.727C193.901 165.498 192.839 165.66 191.922 166.239L195.127 171.311ZM193.596 171.58C193.387 171.533 193.138 171.437 192.892 171.265C192.643 171.092 192.458 170.884 192.329 170.68L197.402 167.475C196.822 166.558 195.933 165.956 194.917 165.727L193.596 171.58ZM192.329 170.68L195.04 174.971L200.113 171.767L197.402 167.475L192.329 170.68ZM195.04 174.971C194.912 174.768 194.803 174.51 194.753 174.212C194.704 173.915 194.725 173.65 194.772 173.441L200.625 174.762C200.854 173.745 200.692 172.684 200.113 171.767L195.04 174.971ZM194.772 173.441C194.819 173.232 194.914 172.983 195.086 172.736C195.259 172.488 195.468 172.302 195.671 172.174L198.876 177.246C199.793 176.667 200.395 175.778 200.625 174.762L194.772 173.441ZM195.671 172.174L179.815 182.191L183.019 187.264L198.876 177.246L195.671 172.174ZM179.815 182.191C180.018 182.063 180.276 181.954 180.574 181.905C180.871 181.855 181.136 181.876 181.345 181.923L180.025 187.776C181.041 188.005 182.102 187.843 183.019 187.264L179.815 182.191ZM181.345 181.923C181.555 181.97 181.803 182.066 182.05 182.238C182.298 182.411 182.484 182.619 182.613 182.823L177.54 186.027C178.119 186.944 179.008 187.547 180.025 187.776L181.345 181.923ZM182.613 182.823L170.191 163.162L165.119 166.366L177.54 186.027L182.613 182.823ZM170.191 163.162C170.32 163.365 170.429 163.623 170.478 163.921C170.528 164.218 170.507 164.483 170.46 164.692L164.607 163.372C164.378 164.388 164.54 165.449 165.119 166.366L170.191 163.162ZM170.46 164.692C170.412 164.901 170.317 165.15 170.145 165.397C169.972 165.645 169.763 165.831 169.56 165.959L166.355 160.887C165.438 161.466 164.836 162.355 164.607 163.372L170.46 164.692ZM169.56 165.959L185.173 156.096L181.969 151.023L166.355 160.887L169.56 165.959ZM185.173 156.096C184.97 156.224 184.712 156.333 184.414 156.382C184.117 156.432 183.852 156.411 183.643 156.364L184.963 150.511C183.947 150.282 182.886 150.444 181.969 151.023L185.173 156.096ZM183.643 156.364C183.433 156.317 183.185 156.221 182.938 156.049C182.69 155.876 182.504 155.668 182.375 155.464L187.448 152.26C186.869 151.343 185.98 150.74 184.963 150.511L183.643 156.364ZM182.375 155.464L185.087 159.756L190.159 156.551L187.448 152.26L182.375 155.464ZM185.087 159.756C184.958 159.552 184.849 159.295 184.8 158.996C184.75 158.7 184.771 158.434 184.818 158.225L190.671 159.546C190.9 158.53 190.738 157.468 190.159 156.551L185.087 159.756ZM184.818 158.225C184.865 158.016 184.961 157.767 185.133 157.521C185.306 157.272 185.515 157.086 185.718 156.958L188.923 162.03C189.84 161.451 190.442 160.562 190.671 159.546L184.818 158.225ZM185.718 156.958L176.587 162.726L179.792 167.799L188.923 162.03L185.718 156.958ZM175.654 166.865L176.865 168.782L181.937 165.578L180.726 163.66L175.654 166.865ZM181.003 169.716L189.464 164.371L186.26 159.298L177.799 164.644L181.003 169.716ZM189.464 164.371C189.261 164.499 189.003 164.608 188.705 164.658C188.408 164.707 188.143 164.686 187.934 164.639L189.255 158.786C188.238 158.557 187.177 158.719 186.26 159.298L189.464 164.371ZM187.934 164.639C187.725 164.592 187.476 164.497 187.229 164.325C186.981 164.152 186.795 163.943 186.667 163.74L191.739 160.535C191.16 159.618 190.271 159.016 189.255 158.786L187.934 164.639ZM186.667 163.74L189.166 167.696L194.239 164.491L191.739 160.535L186.667 163.74ZM189.166 167.696C189.038 167.493 188.929 167.235 188.88 166.937C188.83 166.64 188.851 166.375 188.898 166.165L194.751 167.486C194.98 166.47 194.818 165.408 194.239 164.491L189.166 167.696ZM188.898 166.165C188.945 165.956 189.041 165.708 189.213 165.461C189.386 165.213 189.594 165.027 189.798 164.898L193.002 169.971C193.919 169.392 194.522 168.502 194.751 167.486L188.898 166.165ZM189.798 164.898L181.337 170.244L184.541 175.316L193.002 169.971L189.798 164.898ZM180.403 174.382L181.614 176.3L186.687 173.095L185.475 171.178L180.403 174.382ZM218.843 160.743L215.917 160.082L218.843 160.743ZM211.92 164.478L213.169 161.75L213.159 161.745L213.149 161.741L211.92 164.478ZM201.873 159.966L203.102 157.23L194.019 153.151L199.337 161.569L201.873 159.966ZM206.821 168.338L209.748 168.998L209.748 168.998L206.821 168.338ZM200.156 172.548L200.816 169.622L200.156 172.548ZM187.004 151.731L189.931 152.391L187.004 151.731ZM193.928 147.996L192.508 150.639L192.552 150.662L192.597 150.685L193.928 147.996ZM204.397 153.177L203.067 155.866L212.636 160.601L206.933 151.574L204.397 153.177ZM199.026 144.136L201.953 144.796L201.953 144.796L199.026 144.136ZM201.053 146.063L206.562 142.583L203.357 137.511L197.848 140.991L201.053 146.063ZM206.562 142.583C206.358 142.712 206.101 142.82 205.802 142.87C205.506 142.919 205.24 142.899 205.031 142.851L206.352 136.999C205.336 136.769 204.274 136.931 203.357 137.511L206.562 142.583ZM205.031 142.851C204.822 142.804 204.573 142.709 204.327 142.537C204.078 142.364 203.892 142.155 203.764 141.952L208.836 138.747C208.257 137.83 207.368 137.228 206.352 136.999L205.031 142.851ZM203.764 141.952L216.185 161.613L221.258 158.408L208.836 138.747L203.764 141.952ZM216.185 161.613C216.057 161.409 215.948 161.152 215.898 160.853C215.849 160.557 215.87 160.291 215.917 160.082L221.77 161.403C221.999 160.387 221.837 159.325 221.258 158.408L216.185 161.613ZM215.917 160.082C215.964 159.873 216.059 159.624 216.231 159.378C216.404 159.13 216.613 158.944 216.816 158.815L220.021 163.888C220.938 163.308 221.54 162.419 221.77 161.403L215.917 160.082ZM216.816 158.815L212.008 161.853L215.212 166.926L220.021 163.888L216.816 158.815ZM212.008 161.853C212.131 161.775 212.351 161.68 212.635 161.665C212.912 161.651 213.103 161.72 213.169 161.75L210.671 167.205C212.13 167.873 213.772 167.836 215.212 166.926L212.008 161.853ZM213.149 161.741L203.102 157.23L200.644 162.703L210.691 167.214L213.149 161.741ZM199.337 161.569L204.163 169.208L209.236 166.003L204.41 158.364L199.337 161.569ZM204.163 169.208C204.035 169.004 203.926 168.747 203.876 168.448C203.827 168.152 203.848 167.886 203.895 167.677L209.748 168.998C209.977 167.982 209.815 166.92 209.236 166.003L204.163 169.208ZM203.895 167.677C203.942 167.468 204.038 167.219 204.209 166.973C204.382 166.725 204.591 166.539 204.795 166.41L207.999 171.483C208.916 170.903 209.518 170.014 209.748 168.998L203.895 167.677ZM204.795 166.41L199.286 169.89L202.491 174.963L207.999 171.483L204.795 166.41ZM199.286 169.89C199.489 169.762 199.747 169.653 200.045 169.604C200.342 169.554 200.607 169.575 200.816 169.622L199.496 175.475C200.512 175.704 201.573 175.542 202.491 174.963L199.286 169.89ZM200.816 169.622C201.026 169.669 201.274 169.765 201.521 169.937C201.769 170.11 201.955 170.318 202.084 170.522L197.011 173.726C197.59 174.643 198.479 175.246 199.496 175.475L200.816 169.622ZM202.084 170.522L189.662 150.861L184.59 154.065L197.011 173.726L202.084 170.522ZM189.662 150.861C189.791 151.064 189.9 151.322 189.949 151.62C189.999 151.917 189.978 152.182 189.931 152.391L184.078 151.071C183.849 152.087 184.011 153.148 184.59 154.065L189.662 150.861ZM189.931 152.391C189.883 152.6 189.788 152.849 189.616 153.096C189.443 153.344 189.234 153.53 189.031 153.658L185.826 148.586C184.909 149.165 184.307 150.054 184.078 151.071L189.931 152.391ZM189.031 153.658L193.84 150.62L190.635 145.548L185.826 148.586L189.031 153.658ZM193.84 150.62C193.772 150.663 193.564 150.772 193.243 150.789C192.911 150.806 192.65 150.715 192.508 150.639L195.347 145.353C193.767 144.504 192.05 144.654 190.635 145.548L193.84 150.62ZM192.597 150.685L203.067 155.866L205.728 150.488L195.258 145.307L192.597 150.685ZM206.933 151.574L201.684 143.266L196.612 146.47L201.861 154.779L206.933 151.574ZM201.684 143.266C201.813 143.469 201.921 143.727 201.971 144.025C202.02 144.322 202 144.587 201.953 144.796L196.1 143.476C195.87 144.492 196.032 145.553 196.612 146.47L201.684 143.266ZM201.953 144.796C201.905 145.005 201.81 145.254 201.638 145.501C201.465 145.749 201.256 145.935 201.053 146.063L197.848 140.991C196.931 141.57 196.329 142.459 196.1 143.476L201.953 144.796ZM211.087 138.475L208.281 137.413L208.278 137.421L208.275 137.429L211.087 138.475ZM224.749 129.972L224.471 132.959L224.479 132.96L224.487 132.96L224.749 129.972ZM230.214 133.162L233.14 133.823L230.214 133.162ZM222.211 137.75L221.714 140.708L222.211 137.75ZM220.59 140.307L221.048 143.271L221.071 143.268L221.093 143.264L220.59 140.307ZM223.614 139.162L222.346 136.444L222.339 136.447L223.614 139.162ZM231.412 137.217L231.062 140.196L231.088 140.199L231.114 140.202L231.412 137.217ZM236.652 147.533L239.41 148.714L239.413 148.707L236.652 147.533ZM222.051 156.842L221.868 159.836L222.051 156.842ZM216.425 153.328L219.351 153.988L216.425 153.328ZM224.344 148.878L224.011 151.86L224.04 151.863L224.068 151.866L224.344 148.878ZM227.293 145.525L227.915 148.46L227.963 148.45L228.011 148.438L227.293 145.525ZM223.804 146.878L222.551 144.152L222.547 144.154L223.804 146.878ZM214.258 143.54C213.471 142.294 213.327 141.056 213.898 139.522L208.275 137.429C207.078 140.645 207.358 143.852 209.186 146.745L214.258 143.54ZM213.892 139.538C214.507 137.914 215.826 136.304 218.215 134.795L215.01 129.723C211.839 131.726 209.475 134.261 208.281 137.413L213.892 139.538ZM218.215 134.795C220.601 133.288 222.66 132.79 224.471 132.959L225.027 126.985C221.59 126.665 218.224 127.692 215.01 129.723L218.215 134.795ZM224.487 132.96C226.693 133.153 227.363 133.796 227.583 134.143L232.655 130.938C231.003 128.323 228.093 127.253 225.01 126.983L224.487 132.96ZM227.583 134.143C227.426 133.895 227.312 133.603 227.263 133.284C227.216 132.972 227.242 132.702 227.287 132.502L233.14 133.823C233.348 132.9 233.24 131.864 232.655 130.938L227.583 134.143ZM227.287 132.502C227.339 132.271 227.443 131.997 227.63 131.724C227.82 131.448 228.056 131.232 228.3 131.078L231.505 136.15C232.384 135.595 232.932 134.745 233.14 133.823L227.287 132.502ZM228.3 131.078L222.213 134.923L225.418 139.996L231.505 136.15L228.3 131.078ZM222.213 134.923C222.301 134.868 222.413 134.822 222.531 134.801C222.644 134.781 222.71 134.792 222.708 134.791L221.714 140.708C222.96 140.918 224.258 140.729 225.418 139.996L222.213 134.923ZM222.708 134.791C221.204 134.539 219.837 134.977 218.729 135.677L221.934 140.749C222.036 140.684 222.059 140.689 222.006 140.702C221.979 140.709 221.937 140.716 221.883 140.719C221.828 140.721 221.771 140.718 221.714 140.708L222.708 134.791ZM218.729 135.677C218.079 136.088 217.226 136.738 216.709 137.735C216.058 138.986 216.129 140.413 216.873 141.59L221.945 138.386C222.09 138.615 222.242 138.971 222.262 139.425C222.282 139.88 222.162 140.253 222.033 140.502C221.913 140.731 221.794 140.843 221.783 140.854C221.768 140.868 221.806 140.83 221.934 140.749L218.729 135.677ZM216.873 141.59C218.067 143.48 220.138 143.412 221.048 143.271L220.132 137.342C220.068 137.352 220.278 137.304 220.63 137.4C221.056 137.515 221.586 137.817 221.945 138.386L216.873 141.59ZM221.093 143.264C222.157 143.083 223.499 142.531 224.89 141.878L222.339 136.447C221.681 136.756 221.154 136.982 220.746 137.136C220.543 137.213 220.384 137.266 220.264 137.302C220.14 137.339 220.085 137.349 220.086 137.349L221.093 143.264ZM224.883 141.881C228.011 140.421 229.981 140.069 231.062 140.196L231.763 134.237C228.98 133.91 225.751 134.855 222.346 136.444L224.883 141.881ZM231.114 140.202C231.894 140.28 232.794 140.706 233.766 142.245L238.838 139.04C237.17 136.399 234.809 134.542 231.711 134.231L231.114 140.202ZM233.766 142.245C234.477 143.371 234.634 144.613 233.892 146.358L239.413 148.707C240.818 145.404 240.742 142.053 238.838 139.04L233.766 142.245ZM233.894 146.352C233.136 148.124 231.575 149.917 228.854 151.636L232.059 156.708C235.466 154.556 238.036 151.923 239.41 148.714L233.894 146.352ZM228.854 151.636C226.105 153.373 223.93 153.952 222.235 153.848L221.868 159.836C225.252 160.044 228.681 158.843 232.059 156.708L228.854 151.636ZM222.235 153.848C220.449 153.738 219.59 153.126 219.067 152.298L213.994 155.502C215.753 158.285 218.575 159.635 221.868 159.836L222.235 153.848ZM219.067 152.298C219.19 152.492 219.308 152.754 219.368 153.074C219.428 153.398 219.414 153.712 219.351 153.988L213.498 152.668C213.267 153.693 213.483 154.692 213.994 155.502L219.067 152.298ZM219.351 153.988C219.306 154.189 219.214 154.444 219.037 154.705C218.856 154.972 218.627 155.187 218.379 155.344L215.175 150.271C214.249 150.856 213.707 151.745 213.498 152.668L219.351 153.988ZM218.379 155.344L224.162 151.69L220.958 146.618L215.175 150.271L218.379 155.344ZM224.162 151.69C223.966 151.814 223.815 151.843 223.784 151.848C223.759 151.852 223.824 151.839 224.011 151.86L224.678 145.897C223.575 145.774 222.193 145.837 220.958 146.618L224.162 151.69ZM224.068 151.866C225.717 152.018 227.225 151.459 228.492 150.658L225.288 145.586C224.729 145.939 224.539 145.884 224.621 145.891L224.068 151.866ZM228.492 150.658C229.339 150.123 230.233 149.461 230.855 148.643C231.179 148.217 231.551 147.591 231.686 146.784C231.834 145.895 231.656 144.994 231.17 144.225L226.098 147.43C225.792 146.945 225.675 146.353 225.768 145.797C225.847 145.323 226.046 145.055 226.079 145.012C226.12 144.958 226.102 144.995 225.952 145.119C225.809 145.236 225.594 145.392 225.288 145.586L228.492 150.658ZM231.17 144.225C229.875 142.175 227.639 142.35 226.575 142.612L228.011 148.438C228.094 148.417 227.864 148.494 227.465 148.404C227.247 148.355 226.984 148.256 226.72 148.075C226.454 147.892 226.246 147.664 226.098 147.43L231.17 144.225ZM226.671 142.59C225.625 142.812 224.179 143.403 222.551 144.152L225.057 149.603C226.729 148.835 227.609 148.525 227.915 148.46L226.671 142.59ZM222.547 144.154C219.977 145.34 218.168 145.611 216.957 145.437C215.904 145.286 215.033 144.766 214.258 143.54L209.186 146.745C210.796 149.293 213.13 150.949 216.104 151.376C218.921 151.781 221.961 151.032 225.061 149.601L222.547 144.154Z" fill="#010101" mask="url(#path-6-outside-1_1201_288)"/>
</g>
<defs>
<filter id="filter0_d_1201_288" x="77.4219" y="83.2861" width="166.322" height="145.87" filterUnits="userSpaceOnUse" color-interpolation-filters="sRGB">
<feFlood flood-opacity="0" result="BackgroundImageFix"/>
<feColorMatrix in="SourceAlpha" type="matrix" values="0 0 0 0 0 0 0 0 0 0 0 0 0 0 0 0 0 0 127 0" result="hardAlpha"/>
<feOffset dx="3" dy="4"/>
<feComposite in2="hardAlpha" operator="out"/>
<feColorMatrix type="matrix" values="0 0 0 0 0.00392157 0 0 0 0 0.00392157 0 0 0 0 0.00392157 0 0 0 1 0"/>
<feBlend mode="normal" in2="BackgroundImageFix" result="effect1_dropShadow_1201_288"/>
<feBlend mode="normal" in="SourceGraphic" in2="effect1_dropShadow_1201_288" result="shape"/>
</filter>
<linearGradient id="paint0_linear_1201_288" x1="135.428" y1="116.789" x2="185.634" y2="196.258" gradientUnits="userSpaceOnUse">
<stop stop-color="#FFED97"/>
<stop offset="1" stop-color="#FFC32C"/>
</linearGradient>
<clipPath id="clip0_1201_288">
<rect width="304" height="204" fill="white" transform="matrix(-0.819239 0.573452 0.573452 0.819239 249.049 0)"/>
</clipPath>
</defs>
</svg>
