<svg width="1651" height="857" viewBox="0 0 1651 857" fill="none" xmlns="http://www.w3.org/2000/svg">
<g clip-path="url(#clip0_1124_6831)">
<path d="M4.83558 503.235C40.4171 440.05 82.9136 381.017 131.542 327.224L724.665 863.398C715.78 873.227 708.016 884.013 701.515 895.557L4.83558 503.235Z" fill="url(#paint0_linear_1124_6831)" fill-opacity="0.12"/>
<path d="M223.862 237.699C279.126 190.75 339.439 150.09 403.689 116.469L774.388 824.891C762.648 831.034 751.629 838.463 741.531 847.041L223.862 237.699Z" fill="url(#paint1_linear_1124_6831)" fill-opacity="0.12"/>
<path d="M513.239 88.4541C581.123 62.9538 651.631 45.0801 723.464 35.1625L832.816 827.198C819.691 829.01 806.809 832.276 794.406 836.935L513.239 88.4541Z" fill="url(#paint2_linear_1124_6831)" fill-opacity="0.12"/>
<path d="M848.749 26.0076C921.261 25.3767 993.619 32.8098 1064.49 48.1703L895.124 829.576C882.175 826.769 868.955 825.411 855.706 825.526L848.749 26.0076Z" fill="url(#paint3_linear_1124_6831)" fill-opacity="0.12"/>
<path d="M1197.53 87.0538C1265.52 112.276 1330.49 144.979 1391.25 184.56L954.829 854.496C943.728 847.264 931.857 841.289 919.435 836.68L1197.53 87.0538Z" fill="url(#paint4_linear_1124_6831)" fill-opacity="0.12"/>
<path d="M1509.96 254.541C1563.98 302.922 1612.45 357.158 1654.48 416.251L1002.92 879.664C995.241 868.868 986.386 858.958 976.516 850.118L1509.96 254.541Z" fill="url(#paint5_linear_1124_6831)" fill-opacity="0.12"/>
</g>
<defs>
<linearGradient id="paint0_linear_1124_6831" x1="129.379" y1="450.125" x2="779.091" y2="990.414" gradientUnits="userSpaceOnUse">
<stop stop-color="white"/>
<stop offset="1" stop-color="#6EC7FC" stop-opacity="0"/>
</linearGradient>
<linearGradient id="paint1_linear_1124_6831" x1="359.092" y1="231.014" x2="781.451" y2="962.895" gradientUnits="userSpaceOnUse">
<stop stop-color="white"/>
<stop offset="1" stop-color="#6EC7FC" stop-opacity="0"/>
</linearGradient>
<linearGradient id="paint2_linear_1124_6831" x1="642.766" y1="127.884" x2="792.805" y2="959.464" gradientUnits="userSpaceOnUse">
<stop stop-color="white"/>
<stop offset="1" stop-color="#6EC7FC" stop-opacity="0"/>
</linearGradient>
<linearGradient id="paint3_linear_1124_6831" x1="956.85" y1="107.53" x2="812.114" y2="940.05" gradientUnits="userSpaceOnUse">
<stop stop-color="white"/>
<stop offset="1" stop-color="#6EC7FC" stop-opacity="0"/>
</linearGradient>
<linearGradient id="paint4_linear_1124_6831" x1="1269.53" y1="201.717" x2="837.932" y2="928.185" gradientUnits="userSpaceOnUse">
<stop stop-color="white"/>
<stop offset="1" stop-color="#6EC7FC" stop-opacity="0"/>
</linearGradient>
<linearGradient id="paint5_linear_1124_6831" x1="1534.94" y1="387.612" x2="867.152" y2="905.392" gradientUnits="userSpaceOnUse">
<stop stop-color="white"/>
<stop offset="1" stop-color="#6EC7FC" stop-opacity="0"/>
</linearGradient>
<clipPath id="clip0_1124_6831">
<rect width="1651" height="857" fill="white"/>
</clipPath>
</defs>
</svg>
